<mxfile host="app.diagrams.net" modified="2024-07-11T06:50:44.457Z" agent="Mozilla/5.0 (Windows NT 10.0; Win64; x64) AppleWebKit/537.36 (KHTML, like Gecko) Chrome/126.0.0.0 Safari/537.36" etag="oc1yeU9mBLVcVt3oALTi" version="24.6.4" type="github">
  <diagram name="第 1 页" id="XSPiBPHcB5AXMJNi1NB2">
    <mxGraphModel dx="2555" dy="2084" grid="1" gridSize="10" guides="1" tooltips="1" connect="1" arrows="1" fold="1" page="1" pageScale="1" pageWidth="827" pageHeight="1169" math="0" shadow="0">
      <root>
        <mxCell id="0" />
        <mxCell id="1" parent="0" />
        <mxCell id="bgPquZVtsYAJ8FmIdvjN-155" value="" style="rounded=0;whiteSpace=wrap;html=1;dashed=1;dashPattern=8 8;strokeWidth=4;fillColor=#FFFFFF;strokeColor=#b85450;labelBorderColor=default;" vertex="1" parent="1">
          <mxGeometry x="-810" y="450" width="2650" height="2510" as="geometry" />
        </mxCell>
        <mxCell id="bgPquZVtsYAJ8FmIdvjN-154" value="" style="rounded=0;whiteSpace=wrap;html=1;dashed=1;dashPattern=8 8;strokeWidth=3;" vertex="1" parent="1">
          <mxGeometry x="-820" y="-650" width="2660" height="820" as="geometry" />
        </mxCell>
        <mxCell id="bgPquZVtsYAJ8FmIdvjN-20" style="edgeStyle=orthogonalEdgeStyle;rounded=0;orthogonalLoop=1;jettySize=auto;html=1;shape=flexArrow;" edge="1" parent="1">
          <mxGeometry relative="1" as="geometry">
            <mxPoint x="365" y="940" as="targetPoint" />
            <mxPoint x="365" y="890" as="sourcePoint" />
          </mxGeometry>
        </mxCell>
        <mxCell id="bgPquZVtsYAJ8FmIdvjN-6" value="使用 import-html-entry 基于 HTML Entry 加载子应用模板" style="rounded=0;whiteSpace=wrap;html=1;fontSize=15;fontStyle=1;labelBackgroundColor=none;fillColor=#FFF2CC;strokeColor=#d79b00;align=left;spacing=20;" vertex="1" parent="1">
          <mxGeometry x="200" y="720" width="330" height="150" as="geometry" />
        </mxCell>
        <mxCell id="bgPquZVtsYAJ8FmIdvjN-7" value="格式化上一步加载到的子应用模板&lt;div&gt;&lt;br&gt;&lt;div style=&quot;font-size: 15px;&quot;&gt;子应用模板中的一些如 head 标签需要替，因为浏览器会删除。&lt;/div&gt;&lt;div style=&quot;font-size: 15px;&quot;&gt;另外一些不规范的子应用模板也需要做一些处理&lt;/div&gt;&lt;/div&gt;" style="rounded=0;whiteSpace=wrap;html=1;fontSize=15;fontStyle=1;labelBackgroundColor=none;fillColor=#FFF2CC;strokeColor=#d79b00;align=left;spacing=20;" vertex="1" parent="1">
          <mxGeometry x="200" y="960" width="330" height="150" as="geometry" />
        </mxCell>
        <mxCell id="bgPquZVtsYAJ8FmIdvjN-8" value="初始化子应用挂载点&lt;div&gt;&lt;br&gt;&lt;div style=&quot;font-size: 15px;&quot;&gt;确保子应用传入的 container 节点当前存在，不存在则报错&lt;/div&gt;&lt;/div&gt;" style="rounded=0;whiteSpace=wrap;html=1;fontSize=15;fontStyle=1;labelBackgroundColor=none;fillColor=#FFF2CC;strokeColor=#d79b00;align=left;spacing=20;" vertex="1" parent="1">
          <mxGeometry x="200" y="1200" width="330" height="150" as="geometry" />
        </mxCell>
        <mxCell id="bgPquZVtsYAJ8FmIdvjN-9" value="初始化沙箱" style="rounded=0;whiteSpace=wrap;html=1;fontSize=15;fontStyle=1;labelBackgroundColor=none;fillColor=#FFF2CC;strokeColor=#d79b00;align=left;spacing=20;" vertex="1" parent="1">
          <mxGeometry x="200" y="1440" width="330" height="150" as="geometry" />
        </mxCell>
        <mxCell id="bgPquZVtsYAJ8FmIdvjN-33" value="" style="group" vertex="1" connectable="0" parent="1">
          <mxGeometry x="-560" y="930" width="600" height="260" as="geometry" />
        </mxCell>
        <mxCell id="bgPquZVtsYAJ8FmIdvjN-31" value="" style="shape=note;whiteSpace=wrap;html=1;backgroundOutline=1;darkOpacity=0.05;fillColor=#D4E1F5;" vertex="1" parent="bgPquZVtsYAJ8FmIdvjN-33">
          <mxGeometry width="600" height="260" as="geometry" />
        </mxCell>
        <mxCell id="bgPquZVtsYAJ8FmIdvjN-30" value="" style="shape=image;verticalLabelPosition=bottom;labelBackgroundColor=default;verticalAlign=top;aspect=fixed;imageAspect=0;image=data:image/png,iVBORw0KGgoAAAANSUhEUgAABlYAAAKqCAIAAADHTvSoAAAAAXNSR0IArs4c6QAAIABJREFUeAHsvfl3FNeZ/89/opZa+y60o30D7QKBJKMFrd0OthMbG4MXbGFJbAKMkJAEQkIgEJJ3myx2Ejvnczxzsk0ynskkccYf+xvGifmNP8Hn853qp/X07bpV1VXV1S0J3uf00SlV13Lv69b66uc+d8fqvU81P3c++qXR58Nf3vF9bn/wC9Vn5YOfa3ze/2RF63PrvU8MPjff/Vjn87Ob7yqf5Xd+avC58fZPHPksvfVjq5/F9Xv2P2sfLVr5XF/7CB8QAAEQAAEQAAEQAAEQAAEQAAEQAIGIErD0qq4sHIYZsGohlt76sSMC5MbbPzHQLMvv/JRsjO+vtrExkDy33tNWQ4ov0lJJKt10+4NfkIlS/ho6K03NtXrv0x2aXxhtS19+3f7gFxqF1jJfK++HZb4M5JcjTW7+UAvngDY+eSJ63lra+MLdD/EBARAAARAAARAAARAAARAAARAAgS1OwNKrbkQXNn7fD8ckmPcVjugRPR0miLCf6YQufWzgwjRjpDRFmGzBTIowTdmlVmBm5NedD38pF8Kk/DJAoEfNNz9E2Ff4TWvmMLJ5mOqHdDl+ym3x6xGKBwIgAAIgAAIgAAIgAAIgAAIgAALbiIDjr+1GdsxW1JgZmxG+MzHhwrSDwm6+a92FSRFhsoMKhIMZRoSpRFhAgdmWXyaDv2zJL7/5ikTYl5mjxJrziozq2kaXBhQVBEAABEAABEAABEAABEAABEAABB5bAuH4MqfUmBnXYduImRBhDgWFmbBgQeFg5kSYX4Hp+q+Nbo96mb80/JfU81FPfpkJ+9KTX/YazMyhYEp7OW27InWBWP1gAR8QAAEQAAEQAAEQAAEQAAEQAAEQAAGTBCKTC8ieHQvTi5lxIPbsiqYLM9M70iAoTKN3ZLAIk2PB1BZMX4RRONgOXfn1kT/hvQX59cHP5RJr+q8oy6+QrR5ae2k5LxtHcLiqy+QZi8VAAARAAARAAARAAARAAARAAARAAASiQCA8ZWZDLGh7sVCdKEOKERsuzHERJjslOelWaBGmnylfR4EJwV+aW9cI/pL8l0X55XCfx5Cta0N7WTo07diuSJ6c11bfxwcEQAAEQAAEQAAEQAAEQAAEQAAEQEBFILLdp6w7MkvyQcOIRVeHaYqw4LEjrfWOVIuw4FiwlQ9+ruepQiYIkxSYCfml4b9CdX7UD/ty0nwZay+rzsvkMWdZdYXtuVTnKv4FARAAARAAARAAARAAARAAARAAARCIMgEHxJlFO2ZSU6ilWHhGzHx0mIMuTG3B3v9EFQ6mZ8HUXSODI8IEBWZCfql26f832H/JwV86/ssx+aVnvhx3XtZsl3XV5fjpevXO+/iAAAiAAAiAAAiAAAiAAAiAAAiAAAiYJOD4i7kdU2ZFjYX0Yk4ZMZMuzLYIk22SWoRJ4WBWI8I2FFgo/2VGfq28/4mqxFryK7LmK4T2Ck7pFfJAMeW8LKou26eTydPVv9jt967iAwIgAAIgAAIgAAIgAAIgAAIgAAIgYIOAlYAS26/5lu2YCTUWUnRYMmKaIUcRdWEqraS2YFI4GNkqzaAwuV/kDnGW5jra8itU5i8b8sskxBtv/0RuAyPzJWivkIdCCOdl2nbZOAFCGC4bZ2wUV5lfeRcfEAABEAABEAABEAABEAABEAABEIgQga0e5GGozGwoAgt2zNCLhdQgQUZMv8uk7GHMOxzNuDDj4SNDiDCtcDC9iDDRevkVmKb80sj5RbsJ7vloIvjLH/mlWe3ld35qEpxMXNt8Cc5rce0j4/YO33lZOpR1PZcTuipCFxpsFgRAAARAAARAAARAAARAAARAAAQeWwLO2DcdR2ZJKZjyYmEYsSAdtvaRpnKRzYxJpaNnhAQX9rEYTRXCglkJB+MEYYoC0/Rf2sFfluXXx1QZzaqaxGQ27EswXwbaKxznZf7Q1FZdtjxXhK4ycyvv4AMCIAACIAACIAACIAACIAACIAACjyGBCL1o25RlWnbMvH8I4cXsGrEgHSZFh9kWYTfe/ommINoQYUEW7Oa7Hzsowu58+Msdsv8yKb/CCf4yKb9kppoOkhtGz3wZaS/Dvo1mjrnwbVeY595jeLVClUEABEAABEAABEAABEAABEAABEAgygTCfHm3JsjsejHbRkzPqLBy0RQysrcxKXxkEbZhwX4mxoKZsmCmI8LUCsyk/1J5uFvvfaIqol7wl0kWMkQN1hthX3rtpGu+7GovDdtlOrDL3qni8Pl86505fEAABEAABEAABEAABEAABEAABEAABJiAo32k7L37W7BjkhoziN2xp8P0HIuBC5Mdjkn5oy/CgsLBZAdlL01+QIGZlF+2g7/M1F+mpmG+1u8xd7lhbGgvg8NF7bzMCS9LR7x9ycWn61admL35Nj4gAAIgAAIgAAIgAAIgAAIgAAIgYInANgjdsGvNLOkCs14sWIoZKA4jI6bTX1K2LixkNHWNbHXMuCCVCItcOJhfgWn4Lyntlyy/HAz+kjFp0NQP+7JqvgyOiSDtFcp5mTx87XguJ8SWpasMFgYBEAABEAABEAABEAABEAABEACBx5yAMwLOuiMzqRdCezHBiBmoD10d5oQLkw1PSBGmsmDL7/x0Q4RZDwfT6hdJScB2aMivD34uR5TJUWeaPR9vvvszVblD1lNGE6780unnqNf2Qc7rzvsGx5OZI9Ka7bLlubbU9ejK8lv4gAAIgAAIgAAIgAAIgAAIgAAIgEAUCGyp12GbssyKHTNjIQwkhkp36FkR8zrMUlCYbHtCCiKVUNqwYCGyg9167xPZYmnKLkmBRTH4S8ahll+Wwr7CMV/60V7GB5wp4WXdc4VzVkfhouPbxfqVZXxAAARAAARAAARAAARAAARAAARAYFMIRCMaI5x3czuCzIQdM3YUJnVYNF2YbH6MRZjKgjkbDhaswCT/ZSL462PNzPfGVbrx9k9UFByXX5otGmRAdbSXwfHkrPCydy4ZGq5Nue5gpyAAAiAAAiAAAiAAAiAAAiAAAiDwCBPQ1W323ust2LHwpJiuEQvVWVI7LkzqI2k+KEylgEIqI5UI2wgHC+oUKQ8WGTIcTFBgdvzXz2z4L1XNnZVfIcyX49rLRISX1VMiapJr5sYaPiAAAiAAAiAAAiAAAiAAAiAAAiDwWBFwukuTY4LMlBozlGIGMT0hdZimTtFwYdESYToWLKxOkRsKLNh/RSj4y5780kh1L/V51GyqQMyXlvkyODJ0o71CCS/ztkvfc9kU51vzgjW9tIYPCIAACIAACIAACIAACIAACIAACJgksDXfbcOwZtqCzLw9CO3FdKSYgfTQ1mEboWGagsWGC9MbO1KlhowjwnREmPVwsA9+vvLBz3fIOcM20X+pgujsyS975suG9jJzyOqoLjuey5ELgcmLDhYDARAAARAAARAAARAAARAAARAAgUeegCMv2nYFmYYdM+MZjKSYRR1m1YXZF2Hr98QugJtjwd7/RK3AVP5LGvbRn/nL0siPqrqJ1VamfTnvw5dfNsyXVe0V8ljUEl7WbJeN02+LXZLuTi/hAwIgAAIgAAIgAAIgAAIgAAIgAAKOENhCXYtsvLBbt2NqLxZSROgaMSs6zJILi74I04kFU3eKlLODqaK+AgpMJb9uvfeJ5L/CzfxlR36F6vNo1Xxpay/9Ho56R5s922XjhAnDcDlyucFGQAAEQAAEQAAEQAAEQAAEQAAEQOCxImDTu9l45TfnyMx6MV0ddusdTRkid5Z01oWpop38XSP1I8JsdYpUizDZbrEI8ysw1RKS/LIz7KNR8Jcv8mtx7SMRh7rbY7D8kjuj6skvuQnnV97VaGwd7WXOeYWO7TJ56NsyXI5dei4vruIDAiAAAiAAAiAAAiAAAiAAAiAAAo8JAUf7LVk2ZSZFgVUvpucxdI2YFCCmKVLUOkw/WZg6Liw4Zb5ofjQThKn0kS0RFiI7GFkwRYGF8l+Wg7+o9G9Mzuzr6svJK3bFJcS43PiAAAiAAAiAAAiAAAiAAAiAAAiAAAiAAAiAgIqAKy4hJ694X1ffG5Mz5JQMRJjJfpEq2bXy/ic7VLOk+C/Ff6m2blAOVnf7uvpU9cG/IAACIAACIAACIAACIAACIAACIAACIAACIGBAYF9XH8slAwGlUlU336X4raBwMJXyCigwTfllz39V724yqAy+AgEQAAEQAAEQAAEQAAEQAAEQAAEQAAEQAAFNAtW7m8KwYLrZwfwKTNN/qYyagXvjki299WPEf2m2H2aCAAiAAAiAAAiAAAiAAAiAAAiAAAiAAAiYISDGgi299WMDJaWSVwbhYIoCc9B/nTw3baYmWAYEQAAEQAAEQAAEQAAEQAAEQAAEQAAEQAAE9AicPDctRlyFb8F2hPRfBvsQi7L01o8X1+8hBEyv5TAfBEAABEAABEAABEAABEAABEAABEAABEDAJIF9XX2L6/dU6slAUonhYJqxYKIC0xj50WDTYiEW1+/RJyev2GRNsBgIgAAIgAAIgAAIgAAIgAAIgAAIgAAIgAAIaBLIyStm3SQ6KANVpWXBAqnBWIHZHPmRgr+4TK64BM1yYyYIgAAIgAAIgAAIgAAIgAAIgAAIgAAIgAAImCTgiktg3aQKBzNpwZbf+akYDkYKzIL/EsWbWJTFtY8W1z4yWQ0sBgIgAAIgAAIgAAIgAAIgAAIgAAIgAAIgAAIGBMg1ifZJtFJ6IkyMBRMt2A7yYaqv9bYi7kksAZXpOhSYy23QcvgKBEAABEAABEAABEAABEAABEAABEAABEDAJIHrvnArRTptJOAyGQ6m0lzkvhQFpvrCtv+CAjPZhFgMBEAABEAABEAABEAABEAABEAABEAABEDAmMD1tY8ctGA7RP8VjvyiYhkXHd+CAAiAAAiAAAiAAAiAAAiAAAiAAAiAAAiAgBkC5JqcEmEBBRa+/1q4+6GZCmAZEAABEAABEAABEAABEAABEAABEAABEAABEDAmsHD3QwctmF+BOeK/oMCMWw7fggAIgAAIgAAIgAAIgAAIgAAIgAAIgAAImCSwcPdDBy2YkQIzSH4vSjgqEP01WQcsBgIgAAIgAAIgAAIgAAIgAAIgAAIgAAIgAAIGBETjJJooqwnyKQmYosA0Q8C0/ZcvFb+4V7E0C6sfGJQbX4EACIAACIAACIAACIAACIAACIAACIAACICASQILqx+I3kn0UYoFE0aKFC2WpuZafuenOzS/ENcMDDxp4L9WP1CKBQXmcptsRSwGAiAAAiAAAiAAAiAAAiAAAiAAAiAAAiBgQIBckyjCwrFgGgqM/VdAfq3fI7sm7ing4Tb8FxSYQbPhKxAAARAAARAAARAAARAAARAAARAAARAAAfMEAgpMCAcT3ZQqFmxx/R5LLTnkS63AeFED/xWQX3c/5NJcW33/2ur75quBJUEABEAABEAABEAABEAABEAABEAABEAABEBAjwC5JlZPoo9iEWbeggUpsDD9FxSYXpthPgiAAAiAAAiAAAiAAAiAAAiAAAiAAAiAgCUCpMCurb7viAULKLDw/dfVO4gCQy4wEAABEAABEAABEAABEAABEAABEAABEAABBwhcvaP0OHQqFsyvwKz5LyH5Fxfl6p33ocAsuUwsDAIgAAIgAAIgAAIgAAIgAAIgAAIgAAIgoEeAXBOrp0AsmFZqsJA9IhUF5pT/unr7Pb1CYz4IgAAIgAAIgAAIgAAIgAAIgAAIgAAIgAAImCdw9fZ7DlqwHc74r9vvKcWCAnM5EOZn/lDAkiAAAiAAAiAAAiAAAiAAAiAAAiAAAiDwqBIg10QiLPxYMC0FtvbR4tpHnFo/kG9fr//jhv+aX3n3UYWOeoEACIAACIAACIAACIAACIAACIAACIAACESTwPzKu+FbMI798iuwxfV7/k8Y/gsKLJrHAfYFAiAAAiAAAiAAAiAAAiAAAiAAAiAAAo8wgfmVdx20YIoCM++/OOrs2qqS/J5VHJUJCuwRPuxQNRAAARAAARAAARAAARAAARAAARAAARCIJgHWTSygxDEir62+H0iQf/dD6sXInRpV2fGX3vrxDgf919zKO9EEgX2BAAiAAAiAAAiAAAiAAAiAAAiAAAiAAAg8qgTmVt5x0IJtKLBQ/R9Dxn/NrbwDBfaoHnOoFwiAAAiAAAiAAAiAAAiAAAiAAAiAAAhEmQC5JqcsmE+BOeS/oMCifChgdyAAAiAAAiAAAiAAAiAAAiAAAiAAAiDwqBIgBeZULJhfgXFXSUvjP5KH4wLN3UJHSPejetihXiAAAiAAAiAAAiAAAiAAAiAAAiAAAiAQTQJzt5Qeh2ZiwQJJwVY/YLXFskvJC7Z+b8fi2kc8ixcS1+QukJr577koSrGgwFxQYCAAAiAAAiAAAiAAAiAAAiAAAiAAAiAAAg4QINfE6sm4R6ToslhwsfJaXPtoB/9zfe0jXoJXs+S/oMCiqUKxLxAAARAAARAAARAAARAAARAAARAAARB4hAn4FZiNWDBpgMjrogIL33/N3nz7EeaOqoEACIAACIAACIAACIAACIAACIAACIAACESNwOzNtx20YP4oMEf8FxRY1A4C7AgEQAAEQAAEQAAEQAAEQAAEQAAEQAAEHm0CszffdtCCKQrMKf91ZfmtRxs9agcCIAACIAACIAACIAACIAACIAACIAACIBAdAleW33LQgu0I4b/uvH/19nv0kcd/pGg0Ks2V5begwKJzBGAvIAACIAACIAACIAACIAACIAACIAACIPDIEyDXZGzBWFspozjeeZ+T2nOaexZfGwps9QP6jhelNXlDnHXfn4ffN/7j3K13qByzN9/2FWv9kaePCoIACIAACIAACIAACIAACIAACIAACIAACESBwJXldQ4Ek3tEsqpieWVswQwVWHD81/zKuzwOpRj/xf7ryjIUmANDfkbhGMIuQAAEQAAEQAAEQAAEQAAEQAAEQAAEQGCLE/ApMC0LtvIOGSpNC8bRXapAMJ8C0wwBs+6/oMC2+KGD4oEACIAACIAACIAACIAACIAACIAACIDAdiGwocCcsWA7WImxJFPCxmz5r5kba1sHojcvf6W25ov2toc9nd8fOvj9oYMPezq/aG9bqa3x5uVvVjm97UkrJ1K/WEx/eC/j+08zv/808+G9jC8W01dOpHrbkzarVHGdmQnjhcl3y1I+q079bU3qb2tSPqtOvluWMF4Y15m5WaXCfkEABEAABEAABEAABEAABEAABEAABB5nAjM31hy0YH4FZsl/cQowyv9FpZm5sbYVFFi6O3GmsvJhT+f/6+82+Dzs6ZyprEx3J0bnSEpPiZ85kvLwXsb/+1WmwefhvYyZIynpKfHRKVVMakLC8TxFe/2+1uCT8ll1wvG8mNSEKJXKhc6kIAACIAACIAACIAACIAACIAACIAACIOAm1yRbMErPpfy10iNSUWBB/msjBIy7U/LmeAfCEJDrov+aXtrkKLAXi4tDyi/Riz3s6XyxuDjSZufFvuSQ8kv0Yg/vZbzYlxzpUrmHslN+FUJ+iV4s5VfV7qHsSJcK2wcBEAABEAABEAABEAABEAABEAABEAABIjC9pIRbacaCsaRibcUiy9+1URogUlJgwV0geUO8acF/vaXyX5urwFbqakW9ZX56pa42csfWyolUUW+Zn145kRq5UiWOF4p6y/x04nhh5EqFLYMACIAACIAACIAACIAACIAACIAACIAAE5heWpMs2Fs8RiSrKpZXZME4u9fVO+9z1NfC6gc7+B85BRhvgjdK/kscApJs3MwNpUybqMA+athj3nnJS37UsIf5Ojjx0Rmb/otM2UdnImLBEi8VmXde8pKJl4ocRIRNgQAIgAAIgAAIgAAIgAAIgAAIgAAIgIAmAVGBCbFgb7GeYmHFCsvAgvkVmOy/5lfe9a9/6x3aIu+AU4Cp/Nf00l3NEkd6pu34L9GFOR4LZjv+S4wUczwWzHb8l+jCEAsW6UMa2wcBEAABEAABEAABEAABEAABEAABEJheumvVgqm7Q95+j2PBFAWm+K9QKcBk/3VleZ0UGJXGV6xNUGAvFheLJiucaQfzgr3YlyyarHCmHcwL5h7KFk1WONPIC4YrEQiAAAiAAAiAAAiAAAiAAAiAAAiAQEQJkGsSLZicGn/25tv+WDC91PgbScE2FJhhCjCT/iv6UWDp7kRL+e+NBdnDnk5HxohMT4m3lP/eWJA9vJfhzBiRqQmW8t8bC7KUX1VjjMiInufYOAiAAAiAAAiAAAiAAAiAAAiAAAg85gQ2FFhQLJh5C6ZKCraD47+u3n6PosW4/yT3qCQF5uv/qJEC32fj7k4v3b28uBrltpmprDS2Wla/namsDL8KM0dSjK2W1W9njqSEX6qE43nGVsvqtwnH88IvFbYAAiAAAiAAAiAAAiAAAiAAAiAAAiAAApoELi+ublgwfw764AEiraXGDygw7i2pmQJM9l+cAp9Kc3lxNfoKzMEQMJJlD3s6NaFbmulgCBjJsof3MiwVQHPhlM+qrUou4+VTPqvW3BFmggAIgAAIgAAIgAAIgAAIgAAIgAAIgED4BMg1iRaMs9JvxILpWjDWXP5YsDvv76Ap/kLTfxkMASn6r6nrd8KvnvktePPyrQZ5mVnem5dvvgzykt72JKtBXmaW97YnyfsyPyeuM9PYZ9n7Nq4z03wZsCQIgAAIgAAIgAAIgAAIgAAIgAAIgAAImCcwdf2OGQvG+bu4OyPZLZZd5L6CFJiqCyRvgoeA1EyBT6W5vLgaZQW2UltjRmlZXWaltsZ8Y8hLOjIQpCzFwhwaMmG80J7kMl4rYbxQJoA5IAACIAACIAACIAACIAACIAACIAACIBA+AVZgqh6Rwd0h168sv8UKSzM1fkCBsRUTQ8B4ZWP/RSnAyH9NLUQ1CuyL9jaresvM8l+0t4XTSF8spssCK/w5Xyymh1Oq5LtlxjLL3rfJd8vCKRXWBQEQAAEQAAEQAAEQAAEQAAEQAAEQAAE9AlMLd9iCbXSHtJYan5XX1dvv7eB/RP81d+sdUmD6/mtN1QVSKVZ0FZjjicBIkIWZDszxRGCkz8JMB+Z4IjBSZkgHpneWYj4IgAAIgAAIgAAIgAAIgAAIgAAIgECYBMg1SRZMMzV+IBZMrzukX4FpdoGUU+D7Bn+kPfmHgOT4r6mFO5cWbodZN0urf3/ooJmoLqvLfH/ooKViqBb+/tPM8GO+5C18/2lYWbdSf1tjL84rxFq/DavTqAod/gUBEAABEAABEAABEAABEAABEAABEAABJnBp4bYVCyalxl95h3wXhX8FK7Bb73D8l/kU+P7SQIG53DEuNxQYH6mYAAEQAAEQAAEQAAEQAAEQAAEQAAEQAAHbBAIKTKNHpBKhJQ8QyXm9xKRgAQVm3AWSN7cRAhaI/1KFgEU5CgwdIc0fQ+gIaZ4VlgQBEAABEAABEAABEAABEAABEAABENgKBC4t3A5YsI3RITVT48/cWLuyvO77+FPjy90hd+h3gaQ110mBif5LlQKfukBeWrj95rWVaAJCOnzztJEO3zwrLAkCIAACIAACIAACIAACIAACIAACILAVCLx5bUXTgplMjS8Ggs2tvLOhwAy7QG74L+0U+FSaN6+tRFmBrdTWWM3zZWb5ldqw8lutnEiVM3mFP2flRGo4B1/CeGGIrF6/r7WxQMJ4YTilwrogAAIgAAIgAAIgAAIgAAIgAAIgAAIgoEeAXJOhBdNMje8PBJu9+bZowXwKzOe/OAsYjwJp0AVy6roy/qMY/xV9BebNyzejtKwu483L10NvZr63PSl84SVvwdueZGbvesvEdWbaMFwhV4nrDCtJv15pMR8EQAAEQAAEQAAEQAAEQAAEQAAEQAAEyDWFigUzSgomdocMKDBKGMb+68qyRhfIy4ur9NFUYBev3opy8zieDuxhT2f4VXh4L0N2WOHMeXgvI/xSOZ4OLOWz6vBLhS2AAAiAAAiAAAiAAAiAAAiAAAiAAAiAgCaBi1dvGQSCaSYF28gItn5lOTgpmNIR0lQXSCUFvkEKsDevrVy8eiv6CmymstJqkJfx8jOVlZrQLc2cOZISjvCS1505kmKpAJoLJxzPCxnVZWmBhON5mjvCTBAAARAAARAAARAAARAAARAAARAAARAInwC5JgMLZpgUTN0dMkiBcQhYcAr80CnAqEzRV2Dp7kQHA8Ee9nSmuxPDb6H0lHgHA8Ee3stIT4kPv1QxqQkpv6q2JLkMFk75VXVMaoIDpXK5sREQAAEQAAEQAAEQAAEQAAEQAAEQAAEQkAmwbjJhwYySglH4l6LAzHeB1Ov/yGWSixvpOS8WFxsHdpn/9sXiYqdK+2JfshzMZW/Oi33JTpXKPZRtYLUsfeUeynaqVNgOCIAACIAACIAACIAACIAACIAACIAACMgEWDcZ94jciAULJAXT7A6pocCCQ8AC/R8vL64aK7AL8zfl4kZhzkpdrXnPpbfkSl2ts0V1ZGjIMAeClGuU6MTQkIkYCBLBayAAAiAAAiAAAiAAAiAAAiAAAiAAAhEmcGH+Jlswg0Aww6RggYxgO1QhYMH+y0IXyAvzNzdLgcW43B817NFzW2bmf9SwR7ZF4c/56EyqvcgvWuujM6nhl0HeQuKlIksBX6qFEy8VydvEHBAAARAAARAAARAAARAAARAAARAAARBwlgC5JjMWTAwEm15aI7u1EQvmt2DGCiwQAhYy/uvC/M3zc8vOVtXS1mzHgjke/yUW23YsmOPxX2KpbMeCIf5LxIhpEAABEAABEAABEAABEAABEAABEACByBE4P7dsz4LpKjCdLPhmR4G8ePUWFWhzFViMy/1icbGl7PgPezodzP+l1+Qv9iVbyo7/8F6Gg/m/9ErlHsq2lB0/5VfVyP+lBxPzQQAEQAAEQAAEQAAEQAAEQAAEQAAEHCdgS4HdnV6Sk4IpgWBKFJiBAru8uGomBRiJVwuLAAAgAElEQVSFgG26AotxudPdiTOVlSFF2MOezpnKSkfGfzTTwOkp8TNHUkKKsIf3MmaOpDgz/qOZ7ripCQnH81I+CzFMZMpn1QnH8zD+o5mGxjIgAAIgAAIgAAIgAAIgAAIgAAIgAAJOETg/t2zLgukoMFP+6/qdqQXlc2nh9qWF25SBjLticgjYVlBgTNmbl79SW/NFe9vDns7vDx38/tDBhz2dX7S3rdTWePPyebEoT3jbk1ZOpH6xmP7wXsb3n2Z+/2nmw3sZXyymr5xI9bYnRbkwvLu4zsyE8cLku2WKDvttTepva1I+q06+W5YwXhjXmcmLYQIEQAAEQAAEQAAEQAAEQAAEQAAEQAAEokbAvAKbun6HorjEpGCq7pA7TCkwc/7r/OyNqFHAjkAABEAABEAABEAABEAABEAABEAABEAABB5hAudnb5i3YGYU2PqV5fXggSAtZ8FXCjR7AwrsET7sUDUQAAEQAAEQAAEQAAEQAAEQAAEQAAEQiCYBck1OWbAdNEIkFFg0mxD7AgEQAAEQAAEQAAEQAAEQAAEQAAEQAAEQMCbgvAJzyn9NoiOkmST0WAYEQAAEQAAEQAAEQAAEQAAEQAAEQAAEQCAUgUlfj0OnukMqUWDhKjBfgSZnb0CBGctLfAsCIAACIAACIAACIAACIAACIAACIAACIGCSALkmjgWj8Rh5eEYarZFGbqRRHI2T4u8I139tZAGDAjPZflgMBEAABEAABEAABEAABEAABEAABEAABEAgJAGVAjs/txyOBbOvwCgbGak4KtO5K0shS48FQAAEQAAEQAAEQAAEQAAEQAAEQAAEQAAEQCAkgXNXljQtmL1AMEWBTS/Rx/5AkJOzN85dWYICC9l4WAAEQAAEQAAEQAAEQAAEQAAEQAAEQAAEQMAMAXJNTmUEM6vAWLBRyJlmCBgUmJn2wzIgAAIgAAIgAAIgAAIgAAIgAAIgAAIgAAIhCbACC2nBzGQE2xFmCBh3gVSKNbMYsvRYAARAAARAAARAAARAAARAAARAAARAAARAAARCEjg3s6i2YHPLtjOChVBglF3fVAjYzOLZ6eshS48FQAAEQAAEQAAEQAAEQAAEQAAEQAAEQAAEQCAkgbPT18mCaWYEuzB/k4UVjw5pMDQkKTCbWcBUIWBQYCEbDwuAAAiAAAiAAAiAAAiAAAiAAAiAAAiAAAiYIcAKLCgvvt1AMCMFZjUEDArMTPthGRAAARAAARAAARAAARAAARAAARAAARAAgZAEzk5fZwsWfiBYkAKbun6HAsYoi5ixApNDwKDAQjYeFgABEAABEAABEAABEAABEAABEAABEAABEDBDQFRgtgPBppeUvo/TS2s7aOry4urlxVVZgXGnSqOBIH1ZwM5OXz8zvWCmAlgGBEAABEAABEAABEAABEAABEAABEAABEAABIwJnJleEC2YmUAwg6EhNRSY7RAwKDDjlsO3IAACIAACIAACIAACIAACIAACIAACIAACJgmoFJjlQLDrdyjki8K/FAWmFwL25rUVMQrsvC/f2PnZG+dnb4i9IEnInZlegAIz2YRYDARAAARAAARAAARAAARAAARAAARAAARAwJgAuSZ/INiVpSAFNnuDPJXmuJCXFm7LQ0NqKzDjLGCkwM759n1O6AV55jI6QrqNGw/fggAIgAAIgAAIgAAIgAAIgAAIgAAIgAAImCFw5rISbiX2hSQLRuFZrMA0LZiuApOzgKlCwC7M31Q2bRgCBgVmpv2wDAiAAAiAAAiAAAiAAAiAAAiAAAiAAAiAQEgCpMACFkwrEIyS13MvRgrqkjOCTS/d3aHXC5JXNpkIXykWosBciAIDARAAARAAARAAARAAARAAARAAARAAARBwgAC5poACm1nU6wupCgSTFdjlxdUgBWYvET71zIQCCykvsQAIgAAIgAAIgAAIgAAIgAAIgAAIgAAIgIBJAqzAyIKd8ymwIAvmS1sfIhBsIym+osAMekGaDQGbVkLATk9dM1kHLAYCIAACIAACIAACIAACIAACIAACIAACIAACBgROT11TLJhvAEYxIxgN0qiXEUyvL6RagRknwhcHgqRE+GIIGBSYQbPhKxAAARAAARAAARAAARAAARAAARAAARAAAfME/ApMsGBWA8HEpPg7DELALl695c+CbyIR/umpa1Bg5lsRS4IACIAACIAACIAACIAACIAACIAACIAACBgQINekDgTTSop/fm5ZlQ7szWsrqoxgGgrMOBH+Od+eKATs7PR1JQrMlwj/9NS1U1NXDcqNr0AABEAABEAABEAABEAABEAABEAABEAABEDAJIFTU1fFQDCxLyRlBNPrC3nx6i1dBRYiEf7sjfOzNwx6QZKWgwIz2YRYDARAAARAAARAAARAAARAAARAAARAAARAwJgAKTBVRjCNvpCzNygKzCgQ7PqdHdQrUlZgZhPhb4SAKVFgl+aNi45vQQAEQAAEQAAEQAAEQAAEQAAEQAAEQAAEQMAMgVOX5gN9IX0ZwcRAMKtJ8dUKTK8XpEEIGI0FeWrqKhSYmfbDMiAAAiAAAiAAAiAAAiAAAiAAAiAAAiAAAiEJnLo0r+oLeWZ64ez0dY1AsLllzUAwMR2YosDkEDAbifChwEK2HBYAARAAARAAARAAARAAARAAARAAARAAARAwSYAVmKovpGLBrCfF11Zgmr0gjRPhK8VCR0iX22QrYjEQAAEQAAEQAAEQAAEQAAEQAAEQAAEQAAEDAuSaVIFgYl9I46T4b15bEZPi+xUYzdXoBWk6Ef6pS/MTbyIXGBQYCIAACIAACIAACIAACIAACIAACIAACICAAwQm3lTCrRxJij+1cGeHtV6QM4sk285MLyifywv+sSB9IWBQYAbmEl+BAAiAAAiAAAiAAAiAAAiAAAiAAAiAAAiYJ+BXYGJSfJ+PEgPBNJPic4yXGAimocBs94KEAjPfilgSBEAABEAABEAABEAABEAABEAABEAABEDAgAArMEf6QgYUGBsylQIzGAvSHwLmGwty4k10hHQgxs+g4fEVCIAACIAACIAACIAACIAACIAACIAACDw+BMg1WegLaTgupKLAzCYCC9ULElFgj89RiJqCAAiAAAiAAAiAAAiAAAiAAAiAAAiAQEQJBBSYlb6QFNrFkV7cF1JbgZ33abPzG7nwzYwFOfHm/PjFuYjWHBuPEIF8d+a9gue/KT07nTOQHJcUob1Y3WxsbPxCX/m3423/d7TlWFOB1dWxfEgC7sTE9on9njVP//X+/KaikMtjgUgTcMXGN73QPHLXM3RrqLynMtK7w/ZBAARAAARAAARAAAS2NYGU+IQPD9f8c7z1v15t6qvI2dZ1QeFBQI/A+MU5230hQysw870gKRf+KaEXJBSYXptt8fmnsrrvl07eL538quRMS1LJFiltd3n216MtDybaHky0ff7CnoykreLmtgif8ItR3l3puevxrnu969794wfC3yC2ECaBvPrC4VvD1CIHp7rjU5PD3CBWBwEQAAEQAAEQAAEQeIQJvNhU8I+xVnpj+vBwzSNcU1TtcSZACkwcF/LMZWVsRhqk8ez09XMzixS2FUiKL/WFVEeBsRsLKLCNELDJ2RvK5kz0gtyOCiwxKbW8qq5mT3PNnubiksrYuPhH7Nh6IX3v/dLJz4tezo5L16saK7BvSs62J5frLRbl+aIC+83R+pwUywpsaaDiwUTblyea63LTwi988/FWchOVA/67izwn/L1EcwuiAus40xnNXav2VTlQ4133Dt8eLtq7VQysqoTR+VdUYD0zPQnpKdHZL/YCAtuLQElHWe9cn2fNb/DpytxxdjMvYtsL4GaVNmNX9sDSoHfd23ulNzFTub7JcyJXNmcfCSJXTmzZHoGivSXDt5XfkPhSIM+xt+UoryWfFPKcCBUpNzXpdy/WP5ho++SZugjtApuNBAFRgf1sG7adfITLc2RuSdlpTcdalHvKmvJb/vDt4a7zXXn1hfKSYc4p2lcyeEO5c4k3L71tumLjd7WXdk91e1aVRxTPmmdwabDpWEtStgOvouJOE9KS951sp7p71738ciou84hNBymw8PpCXlq4vUNOBGa7F+R2U2Dx6Zk7q+oayH89zgqsOD7744Kj35SenckZTIndKm/dSfEJNwYqqCPkKy12rmjOPu/Kwkues72uNQlpyR2nO6kjZGFL8SYWHgqM4MclJjYfb6WOkBV9VZvYItg1CGxZAjUjdSMb4av0SAoFtmUbS1Uw+a1GnqNaxcF/nX0kiHG563LTvjzRDF/gYBuFsylZeMlzwtl+1NaVTwp5ToQKEwkFhtMkQo0lbjYzOfGnT9dSR8ihqu3XEVI+wuU5Yn1jXO7ClmLWUuKTgGfN03SsxeV2JqLF5Y7f80w9ySwzCsydmChqKbFgg0uDDuq5zLKcnpkecfuPiQJzsC9kkAILhIDNLZ+fvWEwFqRmL8jxi7OqA3TL/hsbl5BXUFK9u6lmT3NlTX159Z7HWYFt2WYKs2DOPu+SphFF+3ZXYGHidXB1KDAHYWJTIPAIE0jOSe+bO+Rd9w7eGKwers3Ylc2f5J0O/8T6CGPcrKolZqb0XukVf0gP+Z7jYFGdfSSAAnOwaRzZFB9L2z0KbBNPEygwRw5FbMQqAavHfGbZzv7r/RRj1XG6s3hfSW5tQePzzcMrI4oVWvPWHd5jtQzy8okZqR1nO/0hZisjQzeHxJuXvHyMy910tJmWH1gabHiuMbe2oLy7svNcFwWt9y8MpBdlaa5oaWbZwQp/1pQ178DiAOW0eTwU2GxQINjU1dNT12z3hdRRYCZ7QQYnAtsuCizOnbSrrJqCv0rKq93xyfmFJVBglk6/bbGws8+7egrMs+op6SjbFkC2bCGhwLZs06BgILClCHBn4fpnG7dUwVAYMwQM3nOeuHAwLjHRzEZsL+PsIwEUmO2GiNCKBgps72v7IrTTSGx2E08TKLBINCi2GZKA1WO+9cRe77p35K6nZiSox252Ze7A4oB33ds3dyg5Rzf/T8jyUCf9vvk+CrM6dPVQdmWuosOEXvzyRtKKskjM9cz0pOZm8AKu2PiG5xpJjTUeaeL59iYanm2iQPiRu57GF5qL9/k7gD+2CsxvwaaVjGBnp69zRrBAOrDZG+fnlsVxIakHpKLADBKBmR8Lcvzi3HZRYAlJaZW1DdW7m3bmFblilVDJ7aXA8vILy8rNjhZnJheYvZNw66/l7POurMBqD+9GBitHDgMoMEcwYiMg8MgT4J5Nj8PT3qPXmvJ7Tkpu+qGrSlgfR+5ErtbOPhJAgUWupextWVZgOdV5FLjRfLzV3jY3Za1NPE2gwDalxbFTS8c8L6z5w0njkSbFjt0ZKdoXVnJh/8PGmnffyfaENGVwqpAKjDIse+565EwmCWnJ3ZeVfovhD3VFxRi8MUgVfKweisYvKlFg9vpCigrs4tVbb15bUSswg0RglG+f4s1OT11TjQXpK9b26AiZkJRWXlWXmp7NF53tosDy8gufeurp0dHRjs4uLjxPlMTnLuf+4G8lp++XTv6h+ORoZmdSbJKeAqP5NBAk/13PeyY5TiPrfHJc0nreM/dLJ+/lH0nVShaW787616JX7pdOnsnqcbncXCSrE5wygIY14b8n2oqMN9VTlvP5C3u+HVeGj/xmtPUtT1VuarKzz7uyAtsi4iavvvDgVDf9JjC8MrL39X2JGanUSXNgaTBjV+A4j3G5+VopdiAPmYeekztSrlnvundoZbjjbGfu7gK5XXgXzcdbk7LT9o62U2SyZ9XTPdWt2RPegGRyTjp1dx9aHtpZm8+7M7gV6W2NVhlYGswsySnpKven017zKuHKzzfRHY63b2OCnr+Hbw8X7y/d+/o+MaVXRV/V0K0hz5rn4KWDmWU7xY3zU7vYImJ/W3FhcTohLXn30/WHrvXzz0G9s32V/dWaGRB4L83HWxMzUve+vo8aZeSup3e2r6SrnH4MELdP07m7CzrOdg6t+MapXPMOLg/uHW1PyQv8uqVaxeWOr+yv7p3t86dO8K2y72S76jiktegopcNPfRiPtmumDtVuxHWlYI40YstLyqgX4ugQ9c82KsH2QrCnKza+a/IJ77q3eriWqy+ecWKy9qGbQ3t16hLjclMy18GlQQqSH7nrOXStf/fT9ZpHo42621iFapRZlrN/4gC9PXp954hBMld7dWd0lib48mJSgakID98e7p7qzm/y//ql2rV46di5Oz9wXb093HG6M7Ms3AQrVYM19Dtw7eHdql3Tv/TL9vDKSH5j4JZHjcj548UVxQKL82k6IS254bnG/oUBOrqGb+tetOV1IzSHX124OjzHWQVm9ZEgNjb+cF3u58/v+ftJ/zjUX59s+fiHtV2l6k4rJ9qK+MnEYOJ3L9bnpqqfpgrSkxf7K/56oumf48rYbd+Ot/3ny03nu0oyk50Jf/vkmToaAqg+L/3Z+vx/O9bwz/HW78aVQYHmesv09mK+7vSE9veTLU/tznvLUyWman2lpfD/jrb8c7z18+d3N+Rr3CDccfFj7cV/PN5Az2nfjrV+/vyew3W5sb7foR053vg2x8cSz1EpMD7qDl09lJKrESqSXZU7uKxkv26f2M83R4OLD2+Qdy3WyOWOrxmp65vvo5s1PQvtai/lLYsLx7jcvLWInibuuPiJ/cV/frXpu/G278bb/vxq01h7cUF6skE6fHdc/KutRb871vCtb/DB78bb/vu15nefrJaHnNqapwkLvn9/qaHENxyHinxbUcZ/v6Zk9/vwcI18ZPaU5Xz6bB1dIv453vqnV4xOXvEF5Jk9eXQyPpho++r15re81QXp2uN9Kxcu4SpkvPxITS5fr/ha9PeTLSM1uap6qf7tKs36+Ie1X/uuddSIb3mrS7NSVYvFuNy8i6WBioL05Le81d+M+q5dvvO3J+x7Iu/R0jGvd17T1ir6qug+a/Ihgcugmijaq6TAr/Xu5vPU4F5M69Lj4uDyoOo5n77d+9o+4yAyVQH0/u0423nw0sH0Xf57k8F1SW8L23c+uSZLfSHP+/o1kt26MH+To76CFJhuIjC9sSClXpDbJQoszp3kjg96NNn6Cozl18mTJ0dHR/fvP6A6gp9Iqf7LrgmWWTSxmvf0aGan5oiQlhRYjMtNy/951/iehMCjOZehI7nym5KzX5Wc2ZsUVpdAewpsbF8x3Y/5HvBgou03R+vf8lQ5OCIkvWyIPywYv34wnIhOVA/XimkaSaP0TPfSpdYRBWaQ3NGz6hEtANWUL8d7X9vXM62kfRE/w7eHK/urVUwMSPr71a95638U1O/J4FaktzXWAQ3PNdKTqFiwrotPhB81PbA0OHx7eP/YAboBK0GCt4YrB2roYZpbh4ZCIwh8LxcLE1KBZZbtpNAJ1VrKT0yXu+WK8F5aX27rOq/oG/EjB5PHuNyu2PjdTwclAeVVhm9pj92ZnJPedVG9cVpLcxVWYA3PNfozOAgF618YyK5UP8lxIza+0Cw3ombdVQeb8b8U2in+TLd//ABVgbUFPauJl4IYl5s1UI23jk0xE+uZ6ZEbRS+Zq14j2qi7jVViXG7Nqwql39IcN8NG3Y1bweBbvryYebrNqy+kXgncEDShpMs92szPtbw7vnTUeOvkPLsDixoHJK9rZiKzJIfGQ+w6/4Tc6Y/fAbov94gOlBqRX4bFHXGB5bF0sytz+xeU/iCqj9J14kiTXHdxs5Gb5jp2TT5BZeA5mu7AXkmsPhKkxCe8463+zvcTmvgUoViqsdaxfUFjxdh+tx+qyvnba02q7dO///LCnqIMB0YiYgV2paeUTJO4u8+e2y3vxVLdWYF98IMaxvX1aMuJtiISB7S7Xx9V67+ijJR/eWGPWBia/m687R1vdUp8gr2GVq3Ft7mWl/wxXzxHpcD4ij1yZ6R4f6lqOzEuN9lqVTSHwcXH4DBOzkk/eLlbdRoq//qiS9xanX95a5E7TVLiE+49VcuNyM2xNlL1u2MNmiM8FGWkfPbcbrkRH0y0fT3a4qkNullv2dOEzNT/vNH61O48ud1f31v03XjbP8ZaX2oJ+n03Njb++qFyMtcqAv/+UoOm82UFdurALllU/eZovXwyjrUXy6ct7e7Prza1FKnNMvspsUjGCiw2Nv58V4n8xqTZiKICWxup+vVRZahQ8fP3ky2vtmq8EspgQ86xdMy73PHpRVkZu7LFZ2nehVMKLGNXdlZF0C/WBvdi2js/Cxn86Kt5K+fCm5kobN0lXjcMrktmtra9ltFTYKH7Qs4ty30hA1FgAQVmkAjs8gIlwleiwC7Nn7o0P/HmPMWkjV+cHbtwZXuh5NJuZQWmkl/PPPPDwqJdXHKayHNnflZ4/H7p5F92TZzK6q5NLCiLzzuWse8PxSfXcp/WVGDJcUnZcen8ubZz5H7ppF4UmPJSlFDwH7vG7pdOvpC+V7V3l8s9lT1wv3TyFwXHMuPCSkjsjouvyUmry/V/jjcX3H9D+cHBIAqsqSDjLyeUx8pvx1o/PFzzZO3O3orslcHKb0Zbf+sb2vnLE83iL1RZWRmri699eu+i8ecHng5VNeWXDXmOapVI/5tVsZM6vXtWPfvHDxTvK8lvLGp9uW14ZeTQNSVPpKzA3ImJab47B+WQ3v10fci+nPU/8vdgP3Tt0O6n6nNrC/Ibi5pe8GedHL41nN8QNF4nX44PXesfXhlpfbktv7GovLvy4KWDJIbkfJB6JPMbCinj48FLB8V3QuOAZL2t0d1r+PbwwNJgz3Rv5UBNXn2hmD5TZdmsNh89bY/cGemd7aserq0erqW36IHFgX0n2/Mbi7ouKHrIc9dT3h3oyMz3cmqR8t7KkTtKOk+DN/zEzBS/W1zzUkVyavJqPHU8OsyBUx2qF2x+E+id7Ru6NUSNUryvZP/4AVKog8uD2VVBj7ClneVUEm5EcXlZB7hi49vH9tOTfc90b42nLrsyt3hfyd7X9tEu5HanxwXPqmfo5tCha4dqPHVUEc6/0HGmU1URasSRO0pe0p7p3oq+qtzagj3P1A8u+cerll91LLVjSUeZZ9XDoQEJ6Sk9Mz2DN3xmc9z/wwPBVP3QR3UZvjV86Fo/N0rd4T2HrimdvLzr3tYTQVfO9KIsMhR08pY+UZFZtrOir4pPk/axQPQBVcFG3W2sUthaTDpyeGWk6YXm/MYisd37r/fLP29arbulFolxuZN3pnHOez5Bdj9dzzNpQpUOPyUvgw4kz5qn81xXeXdlbm1Bw3ONJKE0tS9fOg5dO3To2qG6w3tyavIqB2qU08035rqmujJfHVdsPLUIxaKqVuQrpypXCK2i+dzMBVYpML5EeNY8Hac7S5+oUNW9arBGtffo/MvvOSy85DlhlsTqI0GMyz3dXUYu4D9ebrzQWdJRktVbkb3QV07xDl+PtvSUB4Kp6/PSx9qL6TN1sJSW+d2xBp5JE0ca8pMEs1OTk/anVwIPKkca8hvyM15pKfz8+d206/d/oBF1YhUFKbC/n2z58kTzr4/Wn2gr6i7Pnt+oyHfjbdPd6h8pLdWdFNj9N1p/f6xhbF/x2L5iknp/OdH09pNVvRXZn/oUyT/GWl9sChiEJJ9teTChhBp9/vzuV1oK23dlTnbu+o+XG2nm9UPlqprOTx01fkL79N7FsdeeVK3Ftzm+C8hzeBU+3Xhh/orP0/7r/WlC7mpeRb476x3GcYmJB0510G3x4KWDFX1VOTV5gfvCmrfpaDPvlyfkrclzeGF7E2P7iv/hi+T68kTzlZ7SjpKsF5sKfv7Duq9eb/7TK0q7fPJMUIql2Nj4939QQ+3166P14/uLW4oynqzdue6pIp/yp1eaanICz/9b9jRhbbQ0UKFCFxsb//EPax9MtP3Xq03VwYOrvL63iOTUX080XXpCuUQQLpJisvONcblJgX092vKfLzfRySge9g8m2u4MB436zQFo34y2zveVd5Rk1eWmPVm7k8Z5fDChnDuqQM6U+ITqnYE3pvNdJQ8m2owV2LP1+f/je6v6ZrR1ZbCytyL7ydqdHx6uoUaURRvj+s+Xm3iVF5sK+MKlavcYl/sHno6QJ+/q4mtZWUFGTz7C5Tmq9tL71/9AsjJc2Bz064Xe8ubnG9yLaSO0a/nNS/xW81ZuvgzykgbXJXnh7T5n7MIVuS/k6alrYlJ88+nAdnBI2IX5m2H2goQCc/bYUsmvp556Oi8/yDXw7rypDfdLJ78qOdOdEvRc+78u7LPClzQVGK9LE9M+h2WgwLgvpLxMZlzaLwqOhd8LUlUk8fcHAwU23V32YEL50ebUgSAz+GTtzr/61JhTCozejcU+g3qvH3JFIjTH30XrrqfGG/SwoiRH9I2Konch5vKErAIpAO+6VxWYEONy72ovpWgX1RMkX46HV0aKha74rtj4Nl8CS++at/bJoH5AmsVISEtWdMC6d3hlpLBVfSczuBVpbo2tmXfde+B0h/gTys7a/KFlZZyXMNNn8tM2v8FSSBH7lMyynRQOZpDJm+nJD9ncahV9VTT+S+vLbWK3R3di4oHTytO2qiMV5fWkN/+hW0NioyjpbA7vodd7sVRxiYkULDa0PJS7J/AyE+NyVxyqovArldNJK8oiDyX2HKEy13jrlAKveVUv3vS44F33qoKk3ImJ1L5DN4dyqoN+qqX5ciMm56T3ziqJS5k247I0QbljWG9RpXrn+gYWBzg0jNqod7YvKTPQccBflzXvgVNBRxeLmP6F/tSCwDMf/VCpijKIcbm57rIlsVF3q6twuw8uDapC8MoOVpAS5cObwVqtO69ocoJrQTJR7y9bFdps7ZO7lQN7zbv76Xox6Cl9V1b/gvILgXy+06XDu6Zc7sSoPXdiIoU3Dt8a1uzKbbIiHF0inwsxLjdlMJFPXqq+5nOz3rWO6u6Rbg1phZkUPSpfz81XIZwl4xITn7igXNW5sWy/5+tfFn4AACAASURBVOgVw+ojQU5K0m980Q3/+kK96g3zcJ2/n5H8tkx757h1lS+Qy/ZKS6FmdElKfAK9dX95ork+T6NHnrwpgzmkwB5MtP3k6VoxtGp/SdZXryvdu/5wvFGMPbFad67vXK9fpZ3r2PVgoo27lTXk+/uRia7tqd159Na9PFAhdi7LTE78lU+ZycbBngLjvHL8TMI3ZZ7D9PjAk88szmmtupcZ3J15a3xg046K95fSZbPleKt4FUpIS6YTQWXZaK1InyYZSUmf+4Ly/nqiqa0ok5nExsYv9JXTD8+qQ7p6Zxo9Ucs9BE8d2PWPMaW/7et7tQOC+LBRbZP3yxNROE24L6TcVbl6Z9p/vap4alUdizJS/nBc0YK/O9Ygnj6xsfEXu0o1z2tWYN+Nt917KuhkLM1K/eNxJc7uT680VmQHHiEobu7bsdbnGwMZP2Jc7tjY+LsjSo+Wr0dbugUXz9B4grZgoMCS4hN++SMlju+r15ufKAto/RiX++XWQnJ8KjHHCuyb0dYnawMhUVyq78bbzgS/fNlTYE4d8/zEFYl7nMG9mFoBCoyPxghNbCgwa+NC6vWF1FZglEWfcuGTTuNEYCTbNBOBQYE51eQq+XX4qaf05Bft8WL2ofulkx8XHs0IDsLi+KzPi17OjjN6ugqpwLgv5B+KT5bFB72UtiSV/K99C78XpEyPL74GCuxnvuQXqnsJ3Tb4yVKMAnPFxhcW5pWVFhp/UtMCP2fJBdsiczrOKKOTyO/8/Btm+ArMoKZ6z3z8mNhxtlN85otxuXk0N9XwTJovcn41s+ZtOtai2g77LPnhNcbl1twaryJKTK4ddXaThQsvYGaCn7bZXlFJuJBMTH4c5+0zPd4If8UT3Ms1s0SdnKhoXwk9cHOvPVqLy8YdK3hr3Dlr/0aUU4zLzT5L1VIxLnd8avLBKaVbR89MT0K6qc47vHdVxelxQdZAMS43ZxUVI+YCjRicLInqQkY4TEmRWpDRv9DPB0lhc/GwL+1dz0wPOyyyVyqSVBdV70gqGH1lvmAhDmArdacnNtmqxLjcmri43VV+M8bl5idUVoF8CDlYd96mOGFPgeldHgN1l34lJvKqLG9UEu4YpTogxXKamebTTfV2zaeV/OBu8Nite6j4bg2y44txuf2juITt8sxUdlOWsfpIYFBIflvWe3U3/25vsJeQL64G66q+4igwORnQh4eVEJ6vXm/eVxxQHqrVxX8168715UcyKjzbBF5LlIYLfeUPJpSkUW1ST64f7cn7dqxVFTUW43Ln5mYbP6GVlRaqokjEwpuc9l+ZpSsq331UOa0N7s58c1cpsKYXmpUu5FKQdYzLTb+qqqLCTZY8zMVEn6XaVH1e+pcnFFuqd8yrlhcHhRAbXVyMDxvz2xRXp2kHTxOKz/pmtLW3IkgDvdhU8A/f0ajqBTlYmfP/nWyRXY/SiJkp//6S4rM+PBwUf8AK7H99oje4iyh/pVJa5O5Vv9lT3TOSkupy06p3pole2wYibvd1T1AAmvIr6YYV/c3R+pyUQKYgfgv7+Ie1or+Ocbm7y7O/HlUyJ6q2lpqWFvLkLSzMk5/q5RpZneOKjW861kI/fal+aLe6Kc3lDe7FtDxdUujNKy4xUekDsebhnB70Lb8RaO7CxkyD65KNrW3xVQwUmEZfyCtL564sBcaF3OgLybFffgUW6AU5t3x+9kZAgc0sBhRYqF6QUGCOHDq9fYdGR0cp59fIiCc7J8g3ae7CQGDppcNXbcdgC7zknoSiP+8av1866U1t4JkxLveprG5HekGK26Rpvvjy85a8DD3z8ROYuAB3xRcVmLjAdp82uByLF2KDauq9QRmswl/pPfPx5VjlO2Jcbv6RVvWYKBcjuzKXQop6Z/vEcAzeu0Hd5a3RWrSKphZ0ZHBPFj1sr6gkfMNjYjIZrhfT443wVzxhUPeEtOSKvqrqkVpVrAqXTd41l0psFFI/mi4gxuUmY8hKiAumN6G3d/8byG2NzGJ6HAwaUa/d9UqlOZ9NBPEn21X/bGPH2U52WCSPON0MbcfgjLNaML3lbdTd6irc7pqHH9VRbncH667ZKOJMvQNDXCbG5ebwVZWppMX4FVfls/TIiwOJaJJR7d3gX46zU2HknwfkIDuD812zwFx38YzmIhHATXnx5jJEdMLBRwIWOnqv7pF+t1elhuAcEXW5aeXZqao30v89Sqnumm/RFK5lECGiahTNunN9+ZHMjAIjKan5kMYbFKPGVCWJ3L8coiVGQAducMG9II0vApq3UeU3G5+M5mcAsS58W1TtXVwmQtOMXZZWmu1uXAyDrdGKvIDeeWS8ffrWQIGp+gOKp0lxhkbWeQ5LVB11pInlmESKTdM7d+ik+/yFPRlJAXPEnkvzZNSsC0fA8cllBou4jOZmxQXI5T2YaFPlN6RlqPqqeAJ+C5MPFdZ/4TSrWLzwp0s6yqhvStfFJ8SuHuFvmbZgcC+mBcRnofSiLMpUw4lN6FvNq0E4JTT5UBTOLrbOumMXrmxYsKBxIU31hdxQYJwUX1JgJhKBUQiYnAgMCsyRo8Tj8b7++utDwyNZ2YGgU+MtGwgsBxVYSmzK+3nP3i+dXM79QXysfwCj1NiUe/lH7pdOTmUPhDMWpGYF+eJrcEtw8HlXswxbeabB5Vi8EBtUQfMNSl4+r76we6pbzrtPPZJUL1p8OTZpWzhua+TOSHlvZcau7MyynZ3numhU49JOdZYQKp5B3fUqRatoKjC9VWQUBnP4iZZfkmmzfMPjp2SZDG+W6fFG+CueMKg7L6Oa4LLJu+ZSie1oXAy9o8sVG68MtTnrH/dK7rCm2jtth0OuxDLrFSDSjcjvP00vKClaml5oJlnQfLyVrQFF4akGgtBjwoe3XE1lwL7nm5QOqr48Uypc8vI26m51FcYuZ9rK2JVNHZnlM8hG3cW2tjTNJTQ4QcQh1cSjmnektxGD64DeKrxN8xPcS1EUcAYW3uB81ywwn9FdF59QpUvL2JXNydSMAZqvzlZb0t4jAQ3Eppkl2iAixtK7fWZy4lxv2ZcnmlU5yCm9tOYLNm9fTEFN05pGyUCBGbwem687l4cfyWizXBgWKOILM5Xq34417PelNxINxWBlDuXRF5eP2hGVnJPeN6fkahQjW8Uf6lSBKgYXAT7pVBcc/8k717ezNl91MhY2F1NiBNVtMQrV53aUsXMLyl4jNjb+2fr83x/zj+kpH5Py1qguvDt5m3JlbZwm/KYgF0lzj9yxUfRWLHTkcCc6yO+/0Xq8uUA8emmahgjgU4BrZPAbvObJyN0wvx1v++2L9R8erjnXsau3IlvT4vFexAnNzYoLMCg+f8VvNQvMq8iNa3CoiJuN2nQgA0zYA9foldngXkyriM9Crtj41lf2IgpMD6a9+XoK7NTUVRvpwHQVGPWCPDejRIGZ7AX5xnmkw3fba1RxLY/HSyFgzz13RM58Ly7J09FRYDEu9ysZ+++XTv666LUCtz9+uD6x+MuSU9+UnO1IDmT45oKFOcEXX83rNW3c3vNumAXbIqsbXI7FC7FBaTXfoFTL6w0Px2/sqmc+fkyUH+z0HhOpGLxBnlD1FRILZlB3vUrRKvILvIGkEPcYcpo1E79bUkm2uALTrBc3ItdFXEzz6FJC0I82e9Y83HzyhOqQoO3Irsfg9/ZINyL3kqNuoR1n/MFf1JT1zza6YuO7Jp+QOzxqMhGhqaZ1hwnbGMJPxmKj7lZX4XaX247nyGeQ1bqrUFj6l0uoeWTypvQuNbSA3kb0Lh28WUcmsqty6dWXexlzJ1O+Vog7okbU/EqzwFx3bjLNCWOAYgG217SNRwLNESTF12nNF2mxC5jeAoxOb0hE3stmKTBLdWeXwY9k5hUY11RzQn7BZnQRnWj15ScVcyBQ/0TNbH161w0D504nr+YJyDNVt8WI1pc2zu0oY9fzGgZDInKDyltT7S5Cpwm/KXBJeEJvj3eGlexaYr9g6pOrmdGMDnLepuaEJQWm18SvthbJY0c+mGj7ZrT1+qFy416QMS7346zAdtbmU8iVKgexHmp78w3uxbRB42ch+lbzVm6vPLSWwXUpnM1uzXXfOM9RYBrpwFR9Ic/NLJLLmvRFdykZweaWqdcj9YUMKDDNXPiBXpDTwliQU1cpBGxjOMhZGg4SCsyRIya/oOiZZ37IfSHNiLCoKTDuC9mfUkuVJSn2fwpfznEHMj07wsFkOnyrz7uPVC6ws0ouMM3rqfGFmBtI8w2Kv41xufltzbPqaT2xN7e2gH/J3Fmb3zunJCCPnALrm+9LydM+rgxuRXqVolXkF3goMLHFadr4nqp5dHGnkuGVkYbnGrMrc/lQ0fu5m7Yju57NVWDU+fGJCweTc9I5BRgB2T9+ICkztXe2j/PlMzpNJvytPEGvXkpS9vm+ir4qZpWxK1tvnFYbB7DVVbjd+fVMnpDPIKt1l2mYn8MlNDY4rIFUVyfakd5G9C4d5otnZknuC8lpHPkyq/kybPVax3WX206cYwzQTEW25jJWHwl4ILZvx1rvDFfRQGwU37G/JOvfjimJfvRepFkl6C3AiOiV+8FE2x+PN7zUEhRLYmYcN96O8QTV3XzfK6t15/pGWoFFJxdYjMvNty3OnklXZnk0EoO70uOgwLjz4DejrbM9ZS1FGRwPFTKUjw+bLXKaxLjcXJ1zHf5xtOgM1RyVImoKLMblLs1Knezc9eOnav/j5cavTyqZtvgTctDYLaLAop8LLLsyl/3XrgPqQW+Nr5mWvjW4F9N2jJ+F6FvNVzZLxVAtrPc8o1rs0fjXkgI7O31dVmBkwXQVmO1EYFBgDh5hhUW7VCKspFS7R5gypLf+eI4OdoRUcjlt9IWczRmKc8XzMJGR6AUZIQWWlZWxuvhayCF7f+DpcLA1I7Qpg8ux8YWYyxPylU9v0EmDZz6+HMuvc/xupnovlYtR/6NG6h2mGkeJS25Qd3lrtBatIr/AQ4ExVZ7gRtR8T9Y8uihB2PDt4V3tpbwdmuD4ONUhQdvZagqM8mH1zvbl7i4YWBqkPjJUhZ6ZHuXHxqVB1XCQMS63JhMVB/6Xku4r/lor1Z2DB7DVY9643bn8qglLdVeta/VfkyXUu9TQ7vQ2okfeaiFDLk99IUfujBTvV04WyrWveSLwEBCaz82aBTaue8iybfcFrCowvREklaTsqUm/e7E+fAVWkZ36p1c0RpQj1CFfXM23iFUFZrXu7DJsKDA5TMagXvZGhDTYoN5X3Bey6/wTcYmJ4rmj6gUZjgLTPHn1ihSF+dyOctyW3jFPiaL+frLlcF2uqoQGW6MleQFjBRa100Rpyo1BHn/5o91J8Qlca7kXpJnoKhUQ+lezX6HmkgYz3XHxnaVZv/OJeFX6fHmtkFcSDpfj81fciGaBeRXzh4q9ESHFkliaTs3N6Jnp8a57PaseVXoKS9sxs7DBewetbvwsRN86fjXQe54xU6NttwwpsPDTgQUUmKVc+AaJwN44P7PtaFKB8wtLavY0F5dUxsbFb6kqmBRhUVNgMS73axkd90snKeyrOqHgP3aNRagXJBRYyEPR4HJsfCHmLWu+QfG3nMxVUxuJD4viKnw5VvkOA2smFyMxM6Vnute77h1eGSlsLRa3T9NUdw6jEBfwD3UnDfdmVQeI2zQzzaKHtRHVi294TEwmw9tnerwR/oonDNrdRjp83qw4wWnRNR8p5HT4nIGbKytujcmoKk5Hqeabvx6HSDcij4Y5sDRYOVAzfHuYekRS2w0uDVb2Vw/fHpaTrJs84wgL41UBoW/l04Hm26i71VW4YAaHn9iyNG2p7vLqluboHRiqjfABKbeUwXijeuRVGw//35zqvKGbQ951b/PxVh7AV/PcYQVm/lrHdVf90hB+sbfFFqwqMErWrhk5xS/Geq/uJt/tOQu1/Bpp+wVbsy2sKjCrdef68is0vXWz3mJiYk0N0uFr1iLG5Y6aAotxucURlv2XlzVv1aB6gD9RgXHIGJeff9XoONPJM/kJSu/UFpeM5jS3o9hMVABuQfGYz0lJ+s1RxQVzQ4ulNdgaLcYLiNsUt0DTUTtNaHfrHqUvJIV9kejR7AWpZIBpKfxuvE2zq7JcC56jaZT4W0sT7KH4vNNcPaQCY8KOpMPXPFRiXO5oKjAK1VcSB9/11IzUaWJxcKbBszfthd4+5F4C9C1dahy/Gph8KHKQwyZu6o3zM2GlAwvOiK90hAwosI1c+PYSgUGBReiwEEXYyZMnjxw5UlRcIu7rYvah+6WTHxcezYhLE+e7XO4pX4DY50UvZ8eli1+ppg0kmmpJMfmXN7Xhfunkvxa9ku/OUi3myL9mrvv0dKUaxCTG5Y6Njf/4h7V0h3tkR4T0DTYkvxrxO5WmuhKbJuQrH41npHlBTyvK6r/e72BHSJUK4dyWPdO9iZkpYrE56IYH6eNvXbHx7RP7lWHIlwbTioIOS6s6gLdpcoJFD+uDCCkwuo9qjrNetK9k5M6Id92rekbnsmk6F7mCaUVZNCInpyviZXjMRDGFML91y+FRMS53fmPR8IpSKtXeSZ147npUY88bSApqxGFpGHvO4SUfElxykxNku4ZvDxNnIkkpwIZXhltfafOueVXDQfIBGfKMozKwaZK3E+NyNx5pUuSvNFCmjbpbXYXbXdVSVOzknWkZu7JT8zNV8RFbUIHxy6d8eTQ4VEJeD00eQiEXE5N/ZVfl9i8oF9LWE3s1VyS88oFtdK3TH4cuPjU5Y1d2WlFWJAbM0ix/lGdafSSg5f/7teaGfHWne05QrffqbvXd/uZAhUxjrrfswYTlF2x5O//raOwpMPN15/ryq7gZBbbQV86uQVVsHstPNZqearGI/ism/+I32OwqdaxTjMvNt1H6XUQsFd/jaBwV/qrphWbvulezW6U7MTGtKCtjV3Z8qsaohbyFSExU70z764mmBxNtHx5Wm776vPQvTzSrIh8DCuxYQ75U2t6K7G9GWx9MtMlCjQrPh43eeUSLsaCJ9GlCuxOTf1E45H+/1txWpL4IxLjcVDBNQRYbG1+enVqXmyYnrbeqwC4dLP3J07W3h6tyU4NGloxxuRvyM2jUiIU+3c5AZmQ6t/u6p0p1XGUkJX3+wp4HE23iEAFiIILcuHoKTLXlyP2bmJHqHzjrrqfGW6d6LDHYb1xiYvPx1pG7nuGVEfnh02BFeqAycFg82LS82YS05O7LSrTaExcOxiX6B5RT7Su3tuDQtX7vmrfrfFdyjtE7u7ji46bALPWFNE4HZqTATCYCIyH3xvkrUGDiQen4tCjCOjq7xO2Tivqq5Ex3StD9rDax4A/FJ++XTjqowHgIyNNZ3TM5g/dLJ6lTpFgep6bNKDC9SP4na3fSXVnz112nSri529HrpVi8r2TolhJiEPKFPOQrH+3Cu+atO7xHrKzLHd9yvJX6KqpiDfhyLL9FcxiUahXNYrhifbtY93rXvPU/ahT3LqbwOHC6Q3yXY3FG/RrEtejupclEswDiumam+fk40gqsoq/Kc1fJOt/6cpvLHQhcdScmHjjdQaFz+Y1FYpm5bHKjiIvxNKcrGloeyt1TwPNjXO6akboR395Vm6LQsJE7I6pBPBPSkkmk6ikw75q3+3KPeL93JyZ2XXzCu+4VsxRTGagRPWueA6eC2j0lL6NvXslMp6k8xPKbme442+m56+mZ6fGseko6/KklWl5SBoXsOq8UTA6Os6SBOGRAznYXyOqqo8As1d0qLm73AWlMJU63IT/AWaq7Gf4Gy/Dlhc8yvYWps6F3zbv76Xrx4ZgrIj/IOnId0CuPar5/CMhbw3ueaRi5M8KdIlWL2bvW+TtaSj+M8yVCPrPk/W7TOVYfCWj578bbJjv9WYGo4u64+OWBChq9Ue/VPT81mfoo/eo5pTuVHjHu4fXH4w2lWaniYvtLsv78qiIjrMaYiBvhaasKzGrd2WVYUmCUd+m78bbF/orY2MANKzY2frFfIfztWOuP9uRxLaI8wUNA7h8/0DWpXN7lhwcqEl8eVSm3+bSSz2J/rrE1b9OxFvEqpIwec6zFu6b03uJbTNQqzr7jryea2ooyeb/cIioF9r9pYakj5P+80fpsfT4vH+NyZyYnkkQ2UGBb7TSh8vMQkB8ervnFj3Y/mGijTpFi7Wiae03+5mh9UUbQz7H8oiFLJasK7OZABV0H5K6mY/uK/zHW+t142ysthXLxeE7IKLCk+IRf+mr61evNT5T5xzSj1cfai78dV/KOqVQXv4Wp5pvpJ84Fi8QEn3SeNU/T0Wbx5Aq5O84AqPxYvjyo6bs1NxJSgXFkQM9MT2puQKe6YuMbnvNnd2k80qS5cb68UMpOvZ/E5HXNPxTJ6267OW+cn1H1hZx4c37izflTl+ZpUEhVRnzNdGCcEd+vwDgXfiAR2JWlgAK77M+Fb9wLcrsosNi4xJS0zNS0LP4Ul1bV7GkurahNy8jmmQkJQVe6LXKgkAjr6AhSYHnuzM8Kj98vnfxbyenTWd21iQVl8XnHMvb9ofjkxwVHZQUW50rIjEvLjkvnz7WdI/dLJ9/Le7bQnc0zs+LSYl2B5xUmQH0hf17w4meFL31TcrZ3IzU+L2B7ojgjmVNs1uWmHW8uuP+G8uPS+a4Scb74I0lTQcZffD9nfTuu/KL1ZO3O3orslcHKb0Zb//Nl5cnyEVZgWRU7KQekZ9Wzf/xA8b6S/Mai1pfbhldGDl46KCswV2x8an6mnHh75M5IeW+lOJ9/luQ8zSN3/bvIrS3Y/VR933zf8MoIjWum8ll8OVYpEksdIekQYq8xtDy0szbowYstiXfNe/DSwfLuytzagpaXWinaSDMj1dZUYBRZw/DLeyspjGv30/U8M2NXthgHx71EvWvenuneyoGanJq8Gk8dOSDvuvfAqQ7Vr0xWFZjy4r2vxA9zZaT15bb8xqLifSX7xw94VhX71n+9P7Nsp3im81PF8O3h1lf25jcW5TcWNT7fPLg0OHhjcPj2sJ4CG7o51DvXd+jaoRpPXciKUCP2L/T3X+/vme6t6KvKrS3Y80w9xax517xNR5vFUtmbJqfTv9AvmoLq4Vql4gv98nCQVqPAYlxuToffvzBQd3hPdmVu6RMV7WP7R+6MKD8D6keBWaq7DVyFrcWqdqd2HFgapO4G5T3qwX+3pgLjLhKeNU/nuS66RDQ818gVkfs6RVOB+ftC+i5fyqgIc4dECywetzaudXyJ4LpnV+bWeOqU3uVrXu+6t31sv6V3BrE8W3za6iNBICX8xiNER0nWhc6SPx5v+Ga0lYIv9BRYbGw8qYFvx9ve8lSNtRfz50hDvijFOB3+n15pmuzc1VKUcaQh//0f1Nx/w/+gsikKzGrd7SmwpPiEe08pIfnfjbf9+mj9ibailqKMV1oKf/7Dun+OKw94nz+/OzNZOywiOgcbBfz2L/Qr95E1b+2Tu/X2W9pZTjfo4ZWRxuebc2sLKvqq+LTqONsp/iAX43LHJSYeOKX8LsU36+zK3Iq+qs5zXTR68sFLBxPSoh0FFuNyk1WhURGv9JR2lGS92FTw8x/WfX2yRfOY5/zxfz/ZsjJU2VuR3VuRPd9X/tcTTX97rYnGMZQtCWHcaqcJNy71hfzTK41/PdH03XjbmQNBEpwXi3G5X99bRIboyxPNhOvJ2p30ovFgou3r0Zae8iCjFONyW1VgTPir1/27qMtNU15nhioJ719ONDUVBKwKB6DxyxENrHH/jdbjzUEDboghluzsvhltXRlU2vHJ2p0fHq75dkw5E//r1SZVMOzWVGBxiYmtLyvx+N51776T7Rml2eLTMk8n7wzqF8UNSjd6Mk1yuD0vlpqbUTVUUz1Sy5/eWeV31oFF5ZmNZ+bVB3nJpqPNVLCBpcGG5xpzawvKuyv5fO9fGEgP7p7Cu+MQASqY6sWKF4txuXe1l/Leq0dqm4+30mP53tF2nl/RV7UpFxaxnJGY9ikwi30hryydu7JEdosGheSM+PoKbGZRT4GRchu/ODd+MTAWJBUrEhV2fJsJSWmVtQ01e5qNP1k5Qa/cjhcjnA3GudWPC0+kVP9l18T90knxs5r71IlMJXWXKgqMcniJS2pOq9biAlNfSFrF2V6Q9BsmD4CiN6G60WqO6v3ro/VrI/6u/o9qR8gYl7t6uJaufXTRpL890730SKeKeFJdYcVVVNNihIXmLjxrntZX2nqvKOm6VFdqBxWYMj7OxhOn/HCZWbbz0NVDqpJTUswaj0ZQ9NZUYFQquRaqOSqfqFd377r34OVu+V3ahgLTO7oUO3NruGhvUF/sGJdb+Vn7aDM91ouF96x66n/k9w6qWrA6qR6qJe0irti/MJBdqe6NQrh6r/QqsTO+YDRxFc2684XL/AQ/IYkxZdzJVLNfMNclY5f6UVhzv8k56Qcvd4uFp+lD1/qVXwv1FZilutvDpXnKk/9qPNIkqxOrddcEYnImX17Ea5TeutmVuf0LAzJkvd+No6nAuC8kFc/4J1+9892z6tG81imD+erUXQlyufiEfInQY7gd51t9JNBc/p/jrStDlcbp8GNc7u7y7K9eVzqOqT6qrElFGSn/4utnpFrsP19umu3ZtI6QpELo7VcsmF7d7Skwyj6uWf0HE23//lKD6q07+oecvy/kuvJGbRwV4oqNbzzSJN96vOtKLLMY98G10LvUU8yy6pckXivSEyk+L0lBjtz034233Rmu0jzmY2Pjrx8qJ2XJyz+YUCL4prvLqO+k6slcrMKWOk24YNQXkqqj1wuSFtarPsVtvdoaFHRPq1hVYGIInkiYpr8da1Ul8OJ+iPLCqjkcs0kF07zckcjz1KqfuLamAjP5LqN6N+F2599rjc93ftiQHyHEOarHWndi4r6T7WTBxMXol2OVL+MikS6nTgYhHwnMvDWo3v7EHW3raXJNxn0hz/jCts5ML5DFor6Q2goskAhsbvn8sb8kSAAAIABJREFU7I1AFJhPgZ2ZXlA+lxdOT107PXWNosD0FNjJyeltQfYRUGCanEvic5dzf/C3ktP3Syf/UHxyNLMzKTZJc0TIMBUY94V0vBekPQUW43L3lOV8/sIe+pXmm9HWtzxVuanJVu9AmlS3/sy8+sKDU930TDa8MrL39X2JGamaL6Umbxveda/q9TKvvrB7qptc28hdT+9sX0lXeVJ2WhQUmJLvZkzJ7eXx9fZXNUdCWnLDc439CwNkXoZvD3ec7czdHdRxj1eh24bmjcGRV1/WTEyPNsv9rZi/eMs0czOT46diXO6EtOTdT9cfutZPTU/tUtlfLXaN5Lpz2cRd87cGE5llOR2nO4dWlBgu75rStbb1xN6kbO3f1lyx8SVd5b2zfVQkz6qne6o7r75Qb+90lFKk1c7d+UGH8Wi75l4IF5mpko6y3rk+avrB5cGG55uc+tWLbZfY6S+zbCeFPWrmO9M84wzAUgs2PN+kBCX5fswcujm011drvaPRRt1trEJlzizL2T9xgFK2U4/UA6c69M4sG3U3JmPwLT+V8llmsDBDHlwa5EtE1/kuvcdQPfLGu7D9LfWFVNzixtCQBpuydK2j7ahWUc7Hyz16lwiDXW/Hr6w+EijLP7+HZNC3422/P9bwbH1+QXqypg5QAWnMT//0ud30+MEvnyoFRl3G5noVWUDe4avXm9/yVhekJ4fsvqTancG/VjtC0qbM1922Aotxud1x8WPtxX883kCgvh1v++PxhnMduzY3/osIcF9Ig16QIva8+sKu810U2uxZ8/QvDOx+ut7g7uNyx9eMKGHafLPum++r+8Fug1XE3UVo2h0XP7G/+M+vKgFQ3423/fnVprH2YoNjPjY2/tn6/N8f22jBsdbPn9/TU5bDR4WBAlNyXG6Z04R5cl9Ig16QvDC9aHz6bB3FZH03rnQxWRup0vuJ3cYLSGxs/OG6XL4Q0cXk65MtH/+wtqs0KLOt2A+Rrzl6EyoFRm3x06drvz7ZQrGZX55ovjNcVZCuEY34SCowd2Jiy0tKLrCROyN1T+2Rf9WjRueHDZXJUv0rP1S7YuN3tZfyS5NnzTO4NNh0rEXzmVY8wPLqCykXWPflnvRd6hbnJc28NWi+6fAWtu/Eyclp7gtJYVjjF+eM+0LqKbAL8zd3BBSYmVz4l5T+lhNvzvtCwJQoMDER2HZRYNu37VHybUGAs5xyOK5TE+ZzGEfzpXRbNIrVQsqdRvUaUS/W2uoeH8Pl6Sg1CESXmdC93/zdPTEzRa/hxPnpRVma6lAuwCbOsVp3HkzQPK4o1I7SsYvwNafNX+uiUGbNXbjc8em+bNaa5Rdnir2YNTe1uTPNX+vESpmc3uJ131zy2DsIgAAIgAAIgIBJAqICG7twxWfB5siCKenALs1TwJYSCOYL4VJygc0s0hiPkz7NRX0hyX3pKjC9XpA6CmzmjfMzUGAmmxCLPdoETP50oPolwcy/5mUBFFiYxxhHbIVsF71Y6zAL8DisHgUFRrsI2YhbShLpNf2jocAo0ipki5i/1unhivR8jm0MWRf5V+JIl83S9s1f60LWVF5gi9fdEigsDAIgAAIgAAIgsFkENhSYzXRgiv+avUG5wPxRYBq58GfsJAKDAtusYwL73VIEoMC2VHPYK4z510IoMHuEOYW8JdlhVQNBgcnDYthuL0dWhAJzBKODGzF/rZMNV8g5UGAOthQ2BQIgAAIgAAKPLQFWYI6kA1OiwPQUmNVEYFBgj+1BiYpvNQKIAttqLYLyyASiEAUm73T7zrGq/7ZmR8jtyx8lBwEQAAEQAAEQAAEQ2BQCJyenNyzYlY2OkLO204FZUWChEoFBgW3KAYGdgoBMAApMZoI5W40AFJilFoECs4QLC4MACIAACIAACIAACDwaBFQKbMOCmUoHJg8KuaHA9HLh+4aW5LEgjROBjZ67/GggRi1AAARAAARAAARAAARAAARAAARAAARAAAQ2l8DoucsbUWAW0oHpZcTXVmAmcuHP0nCQb5y/4hufUsmFDwW2uUcG9g4CIAACIAACIAACIAACIAACIAACIAACjwwBUYHJ6cBoUMhTU1dPT11TBoX0jQtJRktzUEhrCmzizfmJN+fHL875xqGcHbtwBQrskTmwUBEQAAEQAAEQAAEQAAEQAAEQAAEQAAEQ2DoEjBXYxJvzigWzocCok6TiyawPB0mdMxEFtnWOEpQEBEAABEAABEAABEAABEAABEAABEAABLY1AVJgG30hjTLiq6PAZhbPXVkS04FdmL+5Q284yLPT15URIS8vnJ66xrnA9KLAoMC29SGFwoMACIAACIAACIAACIAACIAACIAACIDAViNgXoH5+0JOL/g7QkoK7Pzcsq4CU/yXlgLz9YJUOkKOXVD0G3WEpERgiALbascKygMCIAACIAACIAACIAACIAACIAACIAAC25TA6LnLQl9IRUNpDArp6wjJCuyMz4JRRnwxCsyKArukdLDcSAQmKrCZN877c+FDgW3TQwrFBgEQAAEQAAEQAAEQAAEQAAEQAAEQAIGtRiBYgekOCkn9FykdfigFNnvj/OyNydkblDCfcoGpo8CgwFzurXYooDwgAAIgAAIgAAIgAAIgAAIgAAIgAAIg8KgSCFOBUTqw8z7rtREFpqfAfCNKciIwOQpMNRzk6NnLjyp01AsEQAAEQAAEQAAEQAAEQAAEQAAEQAAEQCCaBEbPih0hZ944r9URUmtQSOoIGVqBUeYwSgRG6fBPTV0l/7XREXKWcoFxIjB/LjAoMESKgQAIgEDYBDLLcjpOdw6tDHvXvcO3h4v2lkTzHoN9gQAIgAAIgMAjTCAxM6X3Sq933etZ9fTO9pV0lbti4x/h+qJqIAACILDdCbACszMo5JUlKDD0ZwQBEACBrUugsr96+LYiv+gDBbbd79khy++KjW96oXnkrmfo1lB5T2XI5bEACGw1AkV7SwaXB0fuetpO7I1LTNxqxUN5QEBFgBWY/1a75j1wqsONQzfsH/BUnPEvCIAACDhFICIKjJLkK7nAZhYRBeZUU2E7IAACIGCJQHpRVv/CAP00vfe1ffmNRWlFWXgut8Rw2y2cV184fMsvPQ9OdcenJm+7KqDAjzOB+NTkg1PdfmV/azivvvBxpoG6bwsCrtj41PzM7Mrc3U/VDy4NKvfcu56KvqptUXgUEgRAAAQeQwJhKbCZRYoCm1TlAlMpMHUufKkjJI1DyR0hKT/ZtssFlpicVrCrvKquoWZPc82eptKKmoys3K0WC52Sl9E33+dd9/YvDKQXZekd8UV7SyhypONsJy0jz9FbVzV/aaDiwUTblyea63LTVF/h300hcKKt6MFE299PtozU5IoF+OSZOrQUAXlmT96/HWv453jrg4k2/nzyTJ2IK2rTHWc7VR0Y5Tl6hSnvrvTc9XjXvbufrtdbhuanFmTsO9k+vDLiXfeO3EVXjq0b1mfcjjEut6jAemZ6EtJTQq4S6QWyq3I7TnfSPcWz5hlcGmx8oTkxIzXS+5W3XzlQwxGR4kTz8VZ54TDnNB9vFXchT1cO1IS5C0urR7PulgqmWjhIga0MFzYXqxaI/r+4PEaf+fbd487a/KFbQ9517/7xAyFrId/N5TkhN4IFQAAEQAAErBIgBTZ67rLYEXLswpXxi7PjF+cm3pyfeHP+1EYusNNT14wHhdxxfm6ZhoP0jwjpiwJTKzBzw0FuLwWWk1dUvbvJJ7+axb+lFTXuhM1/A+HDov5Hjd415eep6uFanilPyMJLniOvpTnHcQVWl5v25YnmBxNtm6UkNKu5jWZCgRk31lh78bfjAfO1rRUYvfSG7PyY31Q0eEP54Tros+ZtOtay1SS+cdvRt/yqH2XFYFw27inTe6U3MTOCN4W4xMTm463UETJCYQgkd0IeVzEutys2vsZT51lVPKzq03+93yDAJ2NX9oAvmIJ/hjHGa/JbPjZUhYECMwnQ0mK2j/nSznLqCLn39X2bHrX6iF0ezZ+8lto6zIUjdL6HWSp7qydlpvbOKr80m7l2ycJLnmOvGFgLBEAABEDAgICkwGYoJIsUGFkwRYFdmj89dS2KCuzs5W2kwDJz8sh/lVbWpWXkuOOTklLSC4vLaeausupY95ZIZpFWlNV/vd+77j146WBCmlHvGPlxBArM4CzaXl9BgRm0V1FGyh+ONz6YaPvba01j+4rrctP4U5xhdMoYbDPMr+Q3FvOPyCUdZYp9WPMaqJC4xMSu808oHTfWPB2nOwv/f/bexK+t68z/73+CsGT21SwS0pUuILGD2MwOBgySg1e8GxsQZrFB3gBvsR3HiePYTqfTJdM9bfpt0kmayTTfxEmTxo0dmsb+zrQz05l5/dqZtpPwm8vBD5dzF7QABvzxS6/k6Oqs73PuFeej53lOaZbTk8fcJztvelZjMCmSOZ5MCSzM9RZIceWa1CplrRKY8VfH9c6yQ+40V6ajMbt2rM5zSxLFWi62xKYnqpZVfgepZgv2oikuJtGaQi9zaVb7NUn8XQoJLCoplhrK31Yo2Vfe6HQ0Z9PFZfZRXc6xs3kJWQILdlqXLv/aezwGfvMuHVVlzUt0vysbWoYrNJZAnirK6Qj8+30ZxoImQAAEQGCtEpAksPmHQoYngc24RM6agD2KBSa3AmPHQbITIYdOXZh5nX/kCHn26ImzdBzkapHAjKYYR06+s6DUImRHrlsvXyjJKZI0lptfEpeYIr/+uNLsu7bzRqdQ69DvA32F069YJIFV9FXql+U+hRUYB+Sxv4UEpjMFjY6UT3xlD4fLJxvtOtmW8yOtP5E3P7c5NTddvyd02+qIQUn2DUwFqBquJpuvlOw0FtCkZrSWLuq3tXI+hQS21HOhXJOqLRoiTbPbueudWZVz55BKAfsPlHlveb23vK4t+aplld9BqtnCvEitBLJZDacttiYDsZsLp5Wgyi7D2NeABLb2Ho8B3rxBraXwM9NqpL85w6/zcdVAX7v6zhase8rpYM/MQL7fH9cA0S4IgAAIrAECgUtgI+NPq1qByQ+F/MqJ+RKYVix8pQRGgcBWnQQWG58k6Vx5xVExfKyrSGOUILqcBaXpFuGxrxUpPME1KTxBzfHaBY9YUv45kpqbvvk5qXiwWwVIYI996rkOQALjgMjfdjrTPh2QJLDecov8+mNMK/9Eruir9N72tl1tT7QuoK3TbVuyt1RrCObSrI7rUvR07u/1muNSDLKl9trT6lU41yGBhUMvkLLKNalaKi4zsfWyZHesjIkTm5aw6elN7PtItazyO0g1W5gXqZVgv9eCbRcS2JI6/wY7HYHnX3uPxwBv3sARLUpOuhPXgAQmtuRI8UZe9NhqFv4hTTkdOt/vTld+YtICX/qLMh2oBARAAATWPAG5BCYPB6Z0hJyTwCYuH5+8zNQt6dTHc1dnw+GffzZQCYzFGGMmYEOnJCswpQTWPzq+Kugnp2Y4C0rtOXnrjNFchyPXrbcI2c6C0ixbduQ6E/fpcr41RJqqBquloNrPd2QULXy+kvLPEbqis1Vosqe+treAxVG653O/5MlJi4vRkcAiI01deWmv7SlgosPD4fJPBsq+t8NVJ/Bx+plqQ1GZtBJv7S9Mi+NnITMh5plW8cPeEhbd/LOh8vd6Sk7U2ZJiFs07NSkm6kKznZp4OFz+2VD5Pxwo2lWYERmpPu+Bjz3CYCRd5mqbmJkQ85I3955PitT+2aD7tT0FTfZUrbVUnJHwnW2uzwZnM39nm8uVFq8vgb1zqMiWFCuPB/9xX+mFZrsOrjoh+Xs7XJ/MKEcPhso/7it9yZsrJPOxriMjTRea7Q9mwmxdaxM5MrGm9d/b4WLoetwLL1GtIdN14zrTEbflrQNFbPifD7nvHF543gl1IBKYcZ1puDrrzmFpaT0YKv/gSMlgVVZmQsxb+wsXMVad8k9kdiUQCSyQ25bECM7Ak7lxxWUkaVmBpReaG8YbO2fC7Xdc76zor4xKjFPtm3432I/eqlqbIdJkrRIaxxsXjKTOKuECPCnfaj2+DJGmol0lnTc6vbe8zedbkuwbaCEpE4ZIk63O0Xy+ZS7E1S1JkSzaU8I5mJM5gLIn8ivKqZRjtNXYmy+0MM/Bzc9trvBVRafwP7cQYXm13tteHes/Nq718TH52wo3XWpl88hOQshuzTUY5z24yJyHq1/5Vt4i9UqJfV1UlFAv5na6rFVzvw+RdqmsVn5FvlTElhx24EPhrmLlTEUYjO7eCumL73pnRrGKqK3TQ9Xa1sfHFHUXt15uY9PR8UJHzWhtWn6mamb5xcAlsOiU+ApflWSYeWs2eprnRU/jeKNO3DRuEj0vSsdZ2BtEbhLl/YkwGIMde6I1pXJgrmOsFeVSCXnNq97CCwoiQY2dNdF2tT3Jlirdwuy20rh5Ga7QHo8Go8npzWt7po2ZOrY90+bszItOiW8+16wMEUXE5PcOa53uO1UOAY6dKpHfRKppZQdYN4J6PLIiMakJdf56zy1P502PVkC3EO73CIORhlMzWmuMiireXcKsmD23PK2X25zePOWy1/mK0b8xQ7vfS/aWsj+2de5ZRinCYAzq+93j8fb397e3b4YQRgCRAAEQAIHQCPSPjpMjpEICU4mIL4XDD1QCO/uMlhXYWpLAIteZ1hmj10nRvubtGSIMxpUjgdHfWOW9FVobWvkCoj+Oyw7NnpNFV5SbGVZwsDKLaQ1yferNfYUveXJUzxmMNa3/G28uE0TkRZiyM1g57xCokCWwzTmpv+or4epnb1/fW2BJXISg1JbE2Df3SZKH8vVgqPyZVl7riTAYgxq7XAK71ZnzhqKtTwfKjrhVdnceVxrz6ZN37IMjJU+3OHROhHxrf+HpOkEZD14VV2Sk6USdTTnvkprpK/O45p04GWEwJsVEvbYnn33a5Jj3Y+aBkkzW6NefcnLqmHxlBpi2JMb+uFtqSPm6c7ikzKIefkiOekEJLNq0/iXFAn4wVH6jI2cpJLD2a+2ky8j1EX0gAcblZadktF9tT8nmp0yr/twO15wA9CjSedNks+ov2PpPD639iTEqyt1TzrQGbsPWermN66rq/pkrpWPEKj9F0Xvb6+6t0Br4nBPfo1HLW2k62xSTmkBl6cErz6NM60hgTm8ek//kpbhW5HKGPNuCEliSfQMzxeJKSfEiJxrlA6FtpzInd0W+iyb5IEB32hC2xNRE40QTpz9KT9pHtmb1JxtUbZ/1VybNI0ukZKexGHnckDtveop3l+h/servtKmhlOw0STdRW1qdNz3OTpVDaROsyU1nm1SK3PJuHKnRiSUf1NizW3OV61BqVNFKyGte9RZWlX4IV7BjZ01IanV3MdN85dzqTtXL1zy1Euzj0RgVtXGkhhTM2SZuSU+VRZTAAh97aDcvDZ87ZFb/8UilctqdRKBD41jPEO53uQRWO1YnCdyPlGLirDzFResrJsJg1LkxQ77fq4c2zpy63hqXqfmXBoFi3+YBfr93dHYOzPyDEEYAkQABEACB0AiEK4GdfYa3AvOff1Z+HOTo5BUpFtiMcnZs/BKLBaYjgfnGJqTX6MRqsQLT4b7OFG3PznMWlKaZrTrZlvojY1RU3Skp3HXrlVbaRes3qvzjWHlFXkNJZuIveyWl6bNB9ze7nFtcG5rFlOvt2fd87p/PWMR81FualzbPcmGycdYg6N2e4pO1thpbcrOYcrnFweybPvGVySWSwvSEwaos9hpvEFietw4U0UWW2F2UEW2aC8fmTI2/c3iuV7uLMooyEg+XmV/bk8+kt0VRW250SBrfg6Hy1/bk7y/JzEuLL7Mknqy1fciADJUfKOFtBIIau1yXea+n5J7Pfb09u1lM2V+SSQO5c7jEmToPb1pcNBNiPh9y/2BH3v6SzBpb8rkm4aPe0n88WPzZoPvTgbJO5zy94/vb8x4Ol985XPz+kZI39hUeKpOKnKmfHciDofIrm/gQcrsKM35zVDIxo15tcW34ZpeTiWIfHFERmzpyN7Dp+3F3fuyjyRKS435xsOjhcPn7R0qKMhb+q1G+9pTpaNP6l7dKBmUPh8vf7Sn211qrrEmHy8yv7Jyd9zf2zbMWzEqMoZj3B0szp2ZGdKLORhdZgguHT5odjX1/SeYPduR9MlD2cZ/KiaW11YXf/duxH718Suf1zVsjdoG3gFMKXsorSgjsCm1+9HeSUUmxTZOSeYJSW1GtOVncwDbqnhc91UMbsyptGcUWd095x/XOTZckxzdO09F/emjtT/K6Ctj2hm1ZuUjqXFetVUJup4u9KnxVbDtU4auiiyyh9bM8J4FxBnFyCFnVgmQsdtvbfrU9f2thSnZaojXF0ZjdcKaB9bZqcC6kWlxaYs5mJ2s6r6uAQWt7pi2vq0DeMbElh5Nv2BR3PN+x6VJr02Rzdpsz1Zme11Ww6ZLkPKjchRqMpgRLMsVZdzRns07KBSn5KNhOkk2695aXmnB68khP2ThSQ7IRGW2xbtf5Z85PeNFTetAtH0hupyvJNmeUKlkfD89YH7/QEYhPUJItlWor2FnUcV3i3Hy+hS6yhFAvUsfm7Lxe6LBUzIUbY4Ol4yAWjDim9dMOQaN7hJ0aIdSLaa7Mou5idmxl501PTruTMisTOjttysxFXs+qtCVaU9JcmcV7ShkKpRE3fbnLJ3Funege6qp/V1KvIgzGjCJzx/OSr3TH9U53T3lWpS0lO83pyWu5KB17573lLdw5Z4IX8pqP2RBPC3iDK6P5wgJn6oUwdvao6Xiho+1qO1vz6YVmwssNhAjQ1HPPHMrAJaSfB2ZsY7kH1+brHcxeiXsak2iovFu1HuBBjT20m1c+qMAfj1QqEAkstPudmLRebm272s59AbFDJ7Kq52xLIwxGra8YHQmMJj2E+12nOeJDCeW3ufIKZV5njCopKevp6YEQRkyQAAEQAIHQCJAE5hubCMUK7JEExnwhJUdITgKTx8JXlcAexcI/NxcLf61IYPGJKSwcfkxcuLv60GaXlXI0ZUs/eN7y1o7VST9izwQhbrvaXnKgTOlQw4rQj+e0MdD/c3my0f5wuPy3g+6RjfPEvi2uDUwJ4iSw1NhoZjn1s72FnIddV95sMKarbaLqqPPS4j/qVZEYlJkPl5kfDEm9OlQ2T4Qin7uPeksL0+dMNpQ1LHiFlKb/s7uABB1WqtqWfLdf6uc3u+ZtjUIYO3nn3fO5t7jmXLQiI003O2cFuOPzye8vyfztjP8j53JYZkl8t6f4t9oS2OdD7pe3uuRjsSTGvnVA0qeYjyQxiTatf2WnZGl1t7+03j7PpKvHbWYmXTc6cig/Ja5scrB5Yavlf22+rrWJzAWyv0LFnI0KBphoFlOYyvb97Xny1RUZaXqmVVQuCab9Ke3FuCvf3z5ngkFjV84Ia0LpCBmyBObqyudEJZ0/kTlEKTlpbNOl5SbG8hujoqxVAvO9Uv6EztUZYTAW7iqWTpC86XF655hEGIxZlTa2Vw9fAotJTWi5IMk9m57eFG9Ooj4YIk3Fu0vYQ0xL1yDjAuWWkurhEpKnT3cxOz1T3xGSwd/8/OYNrgx5JbQpbb2s/uM/7dzkfnzyGuRp1orSxCY2PZHpDlqtsEp0NtXUCrkQunvK5a5Dkg3LsRod50FV5x2qlkuQeuK55ak7VS+25AR4DCJ943B6AVe/JNAUW9iqU9rukU2iXJiT10Ct0Ded/FN52rUlX4rvo1jz8eYkZkmnaoZGNQQigVFnKnxVnE2ZUOtgmiZ3I5MgW9FfKZ/EqKTYhvFGSai91p6SM++nDuoSNbfg2GcduxTOpDGpCc3nJaFKa0kHteapY3JLH53ZD2HsTJvw3vZuPDbPPo4ipbZc2KQ0BAvq8WiKi5klP9+oVm49yg1K524lgFyREMZOeNmzJaiTGQJ/PFIrgThCUma5HSs3UnkeliYmnhc9XPxKuk244IM6mpTWjRnO/c6cr1uvtMZb+JgeyuGE8P2+zhhVVFx68OBBCGFKnrgCAiAAAgES0JLABk+eY+HAmMHWyJmLLBaYakR8pnqdYLHAFpDAzlxUxsKfiQUmOw5yTUhgRlO0MGMCZrXncCdFBjg3i5JtfXxM44Sal8SMKUHrlVYts4igWv/uIwMiMWVeBKjISBML8MRJYDqVk6gkVxzk+QOXwOSluLRWPCwu24JvxZS4O4eLHw6XKwW7yEiTIyUuLy2esx7SqVNr7CSBfW+Hi3MSpBMMb3vmiU2XZ7wdP/GVNc73N4wwGFl0Ni0rsHs+d7M4T8+KMBiZxMnVlrshnumbXNPSn7PR0a/tLXg4XP7mvsLUWD46W1pcNHPnZMZrTY8OYXx5q0tuxKcDSv+jsRqrqqdnhMFYlJHITLTkfQ5BAqN5V85IYXqCqkQbHRVjs2baBbPOy5aVuc44Z8aoP0zlp4ZIU1xGErOkkJtp6BgvGKOiSveXyV0atfyt5M2xSPmbnt4UmzZPQaYTAMOXwCgKtauLPzGQgqzXHK+V94rSIUhgVHbBBHNyUd3zs+hpCZZkuRhBFdLOTbUsZWMJtk3tvNFpkR2kKP+o4/kOnUe3zqaaGtKRhyyVNia4KOHP64Oa4RXVTwneh+6Wt+2ZtpJ9pVo/wLCCJNAsuCUm0YHTL2idyI86pV5xrSwoA7E1zzXBKmGbWP0Z0dppy/tDtjZK6Zas/Lig8kycUj08ztGYLdki3fKKLfO+GqhFIrzg2KmIMsEWKne/U7ag1jyVClACC2HsTApRVX/Yfc2RDOHxGG9JZmfpKi1Jk2ypzGaQW9I6dysB5IqEMHbCG4IERmWXLkGrkRupskVi0ny+JTpp3h+c9FHDeKNcag9BAgvnfid35qazTU5PHrMUTrSmxFuSdRyTlSPVvwIhTJ8PPgUBEAABfQJqEthZZpiljIh/bPzSskhgo6veEdIQaUo325wFpTmuoujYebtE/flY9E/pp/6OFzoKdhYy0MIJAAAgAElEQVRFJUp/McRbkt1HKlgsjNbLbQkB/FSl3zEmIqhGo9cJh69ap5YMRJmXWgKLNa3P3RDPOcGpusJFGIxk0sX51lFvg0pojZ0kMKXQZkuKfeeQZKLFKYY62LXkPzaJqmKlapH27NT7MyHwucBtbMjf7HIyt0pOFWWfkjvkbU8OMyVT9ZokenJfRfnU5G6Ilxussfw6Y482rd9dlDFYldWVp24ZQaj1Y4HRIlTOiNYk0liWLkEbgNmoKLe9my615j2VzznZUQfkhglUhJn/mN3zgvFREZbQ2VGobolpe6O62VatjR2qpaoBkeTB7XOok0sqgZFFjLlMDxF1hhI0O4FLYKrKQiBiis6mmvqjip19uj4+RmzJye10aalswe6ik+ypNcdq5UorW2Za6kxQViERBiOZbDgas2mATAPy3PQE0orqyqSq1ifEMv9Q1f05o+256ZG3TmVZIpBZI/Vk40iNqorK1Sl5eLFjWxVagDx+E2c4RpXo35WUTT+her9TkaDWPJUKUAILYexszaveVrM6pkzVDe3xqEOVaHCrSOdu1SoSwtgJb7A3LxVc0gRx4+AoG9ViwnKqPtZUL7L8qjdm+Pd7dEp81WA1F29OVXtVDjCoK5GRpqKiErlFWGlZeVA1IDMIgAAIPJkEZiWwUSkA1yNHSEhgBmOYqyEt0+osKM3NL0lOSQ+zqnCKk1FGxwsd8oO3IgxGQ6Qpf1shC15TvLsknFYiDMbQJDDpBMk9BarB1JWaDvWQ1AdO9KEM8gQ7q/Gj3lLVuPtKSyh54C3OD06rSxeaJSfQh8PSSYjf3573TKt4oNRcmJ6glGbkHQtq7KTLBC646MhAqnoWTWLgEhj1SlUt0umAdFLEI59EdpbiZ0Plg1V6goKWoZbqDOo3LZ8FZVp/UJSfFmHgM0Jlly5BewO5ntV6pVWoU/cpJjfJ9mfbHU3ZzNKEBfyWG47NWvHc8pYddLOduc6OQnVLTNsbVaFBtTbVnQmhUy1Cn7KyCwaDp/xBJcjtzvOip+F0Iws3lubK5MxzlHXS7Kx8CUzZee5KaLtog9GU6kwvOVA2e1LeTGypLIWZG2uL1syCW2L2o07rFSkIndzgi9n1KG0V5WOhVlRXJuWkuas7VU/xqigRSOQ1/fXMGqLQad4ZQ7ma47VF3cVCvahlV6gf5GjBoS2YgYYfYTCycyo3P7dZ/myhtKqoJFeyAlnz8uYIuM7s6zwEtIbGiqj2VjlBoT0etZqW0+AGFYoENlqr5X+q0wFGOLSbVz47S5GmbnNwlG3prw3VVaF6kdWsnHf5TIV2vxuMppIDZcqDXJZCAmOjiIw0ufIK9u3bNzAwUFNbp4SGKyAAAiAAAhyBJZHAxs5dlV5npRMh5bHAWCx8pSPk0ROzgcAG/JMsFv5qDodvSk7NyM0vkaLgZ84LjMWhX4a39KuyfGNA7VK0naazTesTwjobMQQJTPUESbnqpKVwkfqglYEGaEmMfX3GHU9erTytKqCQCCLPydKqLWodPvj5kPutA0W1gkowiGDHTl0KXHDRkYFWggT2v4obhRh7OFz+vR3zoo/RDFICEhihCDwRk5pQPnNgVsf1TlWrLvbXP2cmQ/G8WLgc7i1rXWdHseYlMBaMjPt5n2kB7dfand48LooTzRft3AKRA1QxUlULJnQ21VRWZxIpj1YizF20IdKU0+5kJwzWn26QuyxRi4FvidkvOizuftvVdhb2K96SzEQxZYAwakJuaxagBEaij2pC6cBIbanutOlTSmid0dl501N3sj7Byn+b6EwiAdQa2oIZqFdaR+MRBFVRSS4lBLLmqTl5QR1BJISxsyKqvVVOUGiPRx2q9ATgBqVzt2oVCWHshDfMm5fqWdwEcePgKFvRYqLMSVd0cCnnXb78aIWrJrTud3Yeguemp+yQWxlajnq1iAmzxbpt+3afzwcJbBGpoioQAIG1TYCTwB4Zgp2jWGBDpy4Mn5bid1E4MOl0x0npNTp5ZWwmHD4dCjkbDp+XwAI+DpIksP7R8VV6ImRySvqs/mW2au2Flm1J0Z9WXNBQ6gCFg0m08uGfKE8giWAlsHLLbEimzwbdNzpyamzJ5N1WbUt+eyb4uqreFGEwBi6BsbMaHw6X/+Jg0aEy6axGep2os2mFiwpkvFwe4zpTpzPtRkfOT3cXfNxXyiLBM9WMO9oywmAMYexrUgKjEGBsgoTkeUE9OMJBvdWR/xash1CrmrZRcVqEgYuSyxALjLpHCTrXQhmYhoKay49jZwWdnXnsAI2Nx2ran2333vY2TDTK/5TX2VGoaje0vVHdjavWprozoXGpFqFPWdklsgJjrSSLGwp3FdeM1rY908aknNk90vzT8ahL8m1VIHKAKkZ5bfppevJrbdL0DYj0K6eVE6ZRAwsarRVCi9bMglti1tvZAOG3vOyQBBYBYMEeUiuqK5M40K5bdSdMF3Vo669naijCYDRGRdkbxApfVdPZps3XNsttSZRRC3RuhAWHtmAG1is6p9J7y9twpsG60U7mb4nWFElkV5wAS8MhboGseSolv1l0Zj+EsbMiAUpg7B4M9vGoQ5VocIPSuVu1ioQwdsILCYxQaJ0ISdjp1lZNaN3vzE1V3/5U3odw0maLdfv2HUz88vl8nZ2epOS5E5PCqRllQQAEQGBtE2Bak++RI6RCAjvPJLBZFWz86dlYYDMq2AIS2OjklVkrsCdGAotLSMnJK3YWlJqtjscYAp+WrM6fVixPmBstaihYCUzrBMkIg3HBUEqkPmhpZKxXFLD8rQNFlkTexk3LEopGFGYiLS56stHOtDDuRMgQxk66TOCCi44MpDV2NonL4wiZFBP12h7pNMmP+0o/8ZU9HC6/2ZnDRfoPeQp0xr5gnYR60SWwkE+EXLDPOhnoT3lu08WKaN3+kkPWYDX90S93imQFdTZgqnXqbAu1tBh9yUCnA7SrWVIJjGNujIqyVNpYGGytsxppLgKRA1Qxco3qvF3wya+FXadO+UesewsKTPIiyrStxu550aMVQovWjOrSVdZGeOtPNhijophRmP4pjSFYgQXYGWX39NezMr/8SlxGEjPn9N72coG9dG4EAqil7i2YgfWBgvTXjNYqg3nrL1SalEDWvHzIVFAHeAhjZ0WCksCUmfUfjzpUtQalc7dqFQlh7IR3UW5eqm2xEsRNZ8ZZW1pMdHqig0v1xgyhCXnrs82pReiTZwszbRMc3d27IX6FiRHFQQAEnlgCYUpgkgo24/XoP//s3ImQ7FIIEpjkBfnoOMhVZwUWFz+rf1mE7JWgf0UYjHSqGvd3My139muV1p6Nsi2YCFYCYydIqqotiyWBUbB2pWwUYTBqyUALjjTwDHQaJndKQAhjJ11GORYtXDoykNbYg5XAiHAI4fAnG+0Phsp/O+gerMxixnq/OereVZgROF6dnDpjX6xw+CSwBn4i5GORwMgVWscKTLnHizAYk2ypTNDpeKFD6USps6NQ3RLT9kbZDYptz7ljr9hw+DoLL6fd6b3l1RKGaFsViBygilGnae4jnU015dSZxMUKh89GobSjYX2YPXdS48hCWjMLbolpRMW7S6Qo+893CA0O5gW5YJhLakVLJ2KV64fHpg7oJFR32jr5uY9o8XA0wgmLHuDY2Z2oJSjrL1TqdiBrXj5kKsiNV54nhLGzNa/6xFNOkM7QdB6POlS1BkV3q/IAVjrVlDv9NoSxEzo2Lq3HFGVb5gRx05lx1iUtjDodZvOuapZVuKt45miODnPpXDTSMO93nZWj08nAP7IJjt27dw/M/IPlV+DckBMEQAAE5ATkEpgsIj45Qi5gBRauBMbOnqRYYHIJrO/4GXlHV3g6OjZBdBY6C0otghi5LmqF9Jb+flL9MZyipdSdqF8XFVafmaxz53Axd/wfyUCc2sXyf9xXWpSRyLHK3RD//pESrdjzgTtCkkDzXJtKLHAWw141FhjXH/235Zakbzzl/PY2l6p881yb+HC4/MPektwN8VRPCGMPQQK73OJ4OFz+ia+s0cG7uDKFSDl2JoHd87mbRb4Is1zjasvdEP9hrzRTtz05NDqWSIyOfm0mCttrewsSo6O5T8kF8sfd+bGm9c7U+DuHpXp+cbBoUdwhx2qsD4fLf3PUvTWfP4yiKGPWA1fZZ9ZJQq1vBRZtWv9qt2TFds/n3uKa8zugMP86C5ijsaRvaV+husNnh6Btfm5zau48UMaoqI3HasgKTGn9wTZgyh0Fnb/BbTJp06I8w5GeQtwej+R7nW1h9dBGVXpsN6u1aVctwkKqM9VPS7KJMBhNcTGl+8s2Hqsp3lOqfGbqazoEIRA5IMxNFG2qtVx1IgxG5gXffq09JYc/HXV2ILe9SviMXoC76NwOl/e2lws2R/xnFavr8zaf9Ckt3QW3xFSE4pfXnaj33PQoFzblpAS1onqDUDbJaI6dvXiuWXnugSkuJtGaEm9JVhpJUQ1KhYU+ooS5LGvjsZrq4Y3KgzgNkaY6f733tpdTitn5pKojpQMxtc6pDHDsJIEpwylQ/H7ufqcRBbXmqVSAjpAhjD0oCSy0x6POrw5JttS2q5JfObekaSKUDzQ6fKNkb6mcTwhjp+IB3ryUnyVoXDqPR65IUG8JAgdHWQktqgVzUtnZIT/fwd1ZtIDbr7bHzz8YPZz7nT33lkJktDuy9+zdC/GLZhYJEAABEAiZQN/xM7PhwGYMsOSOkBQObPj0RS1HSG0J7KwUC1/LEXLo1IWZ1/lHEtjZoyfOzgYCe2QFtooksKiYeKZ/CaLTaOI3/CHPzaIUZPFWvLe8JQfK5LHJaJfruelR/mkbbNNazn1bXBvu+dwPh8s5CYzlfzBU7q+dd2KAcZ3pWpvITm/U8nPMiIt5ayZY2Kvd+dGm9VpdJTsdpbBSbUv+YEZlU8pAWrVpXSdJRRnQneyz3txXmBo7typCGDvpMoFbge0vyfztoET+WpsodzAssyRqjZ1JYA+Hy7+9bV5weiE57hcHix4Ol79zqMiWNOdSGm1a/8pOSQa6219ab5+nmg1WZTEnUGWHyQVSHiXtQEkmy78o7pDNYgpbdd/fnpcUM6ftkj7120H3obJM1Tkl1PoSWITBSH2+53Nfb89uFlP2l2S+sjP/ns/9cV/pCpHASApRvcfpU+mox0gTA8LOiu286em86akcqJICXSmeHuyXc89Nj9ObJ8eYVWnb/Lx0ZpxyS8weRJ03Pc7OuSKGSOnkLOlc2kchnKg2Oqxj09Ob4s1JdF1eJKfdSdfliQUVHHlmSpPoxqkMlIGFXWdKRPvV9pRsXjma3WhpaDqkYiilQ3kTLM2qUmJU5lS9QjOrI4GxaFne2153Tzk76JNVRV8NHdc7M4otqvXPalsvemw1dtUM7CJpUk1nm+LS5v3akZKdJp0LedvbcmGTPMwc1RadFNd8vsV721t/skGpNlI2eWIuatVtr/e2N5CfduhXoprRWroF5HVS2rUl33vLyy1gFrqL6cWqOhQVD0QCo3Urvx9ZDcniBoaLU4pnI6Dd9lb0V8onMSY1oelsE7sT2fkA1BNKBDh2coSsO1XPaXzWjfaO652q9ztrJag1Tx0LUAILYexBSWB0E8mnY8HHI5m1co8IQ6SpdH+Z56ZHKYHRuu243ik/IJXuxM4bnVnVgpxPCGOn4gHevJSfJQJ5PMqLxKQm1PnrPbek75GK/kpu5chzsnTg93sIEhjhYme8UOt02IvyWRHO/U43ss7jl/oQVMLj8Q4MDMDyKyhoyAwCIAACqgQ0JLCzTJsaOiVZgc1FxFfEAqNwYLOOkP7zz/rPP0vHQZIEdmz80rHxSyyo/vDpi3oS2OgEOw5ytUhgpvUxQk6es6DUkZsfHR2/zhitfEUa5/bhqtOwdBcTLMmtl6WdhveWt2myObvNmepMz+sq2HRpE7Py4P4mCK0nJZmJv5wxCPpsqPybXc4trg3NYsr19ux7Pvd7PZKBDyeBzYWEf5S/xpZ8stb2i4NFCyoIkZGmb3Y5Hw6XfzZU/pInZ7Aqi167izLkohiFw79zuMRfay2zJO4uyvj6U86po7O9Cl8CIxnowVD5Kzvz95dIQfeLMhJ7yy0/31/IIuJzMlAIYyddhqtKJ3QaCXDUsRpb8rkm4aPeUjYjyrEzCew3R913+0vf2Fd4qCyzxpZ8pt7GTL0eDJVf2eTglgdJnCQDbXFt+GaX87MZ9e39IyVKKz/mAvlgqHyycW7zHG1a//JWFzPdUrWn49rVf0u1PRwuf7en2F9rrbImHS4zv7Ynn6mrb+wrTIubEyXltRHqBSWw2Jk+swrp8NAHQ+W3OnOYRKul4cqbW+q0/t/i6+NjGs40SHY6tzw1x2qzKm1ZlbaaY7VSBG4me80c7i45983fm9GG3POip3poY1alLaPY4u4p77jeySpUajcbXBmbr0nqmOdFT0VfZUaxxbrRXjtWx6J9N59vUeogs1H5ZwS1ou7iNFemozGbijRNqtjjMJ5kWdb+bHvBzqLcThe9OCsAOX+ydlHaYsizsa2R97a39XJbXldBSnZaojUlq9JWPbSRHROpY+TF7J68tyQzEOpSbqdLbMlZHx8jbyVYCSxmQ7w8SLmjObvzhqRN5G8rlF+XWzBFJcU2TTZzXw1OT17LRUl48t72bhyp0dKeyDhl06VNrq58+VjkgsucXnnbu/n5ze6e8oxiCy0V720VRYkgkIEG20LLmxDqRa2Oka6nFFWpZnlC3or7SAWbTUaMs+oiXJ5bntqxOkdjdkp2mtOTJzG8JeGqGqzmRLSopFiCn7+tUBrvjU5HczZd5I7CJNm38+bsbZVoTUnJTsvrKmBf4srfq0glUf9+v+Ut2TfPeiiEsZNAw2zQstucKdlpYktOzWit56Zn06VWHQkswmAMcM0zSzois8GV0XxBWod1p+rpYqI1JS4jiSCHMPagJLCQH4/sQECGRf7gan+2nf3dpTRfEmod7IbtuN5ZvKc0zZUptuTQ0lLa4YYwdpr6AG9eys8SAT4eqRTzCmdPkg6NXwUos/xQ1wXv9xAkMGNUVN0pyYiSHengaMxOc2WWHXIzAbfjhQ5r1TyFkYmw7PEY+P1Ow0myb2i/Jpn7cbZ7lCHkRGenBwHvQ6aHgiAAAiAgJzAngT2KiH/0hGSSpS6BnbnItCx2KCQz82KHQjLt6yucBMZOjjw+cXkNS2Cx8UnOglL9V7araH30nCucfAKWIZ2Snbbp6VnBi/1FQv+tO1Wv3HmG1qXByiwmfJAc8HC4/I19hbc6c5QSWITBqJr/8yH39c3Zb82IRzoKQqMj5W6/ZGjDvbioW5bE2Ndn3PG4bO/1lJxvsi/WiZBkV8W1wt6+vrdAGYw/2LGTLhO4BBZhMHpcaSzSvLxj7x/RHDvFAnu6xSE/1FJnIFrzyHwwPS7eTIZcIJUiVLkliWltSqu9EBakJTH2xzOOivKxs/SdwyVllnkGKfL6CfWCEphkALLONFyddedwyedD7gdDks47utFqSYxdcAHLW1zS9IK2J2SMQ88Etk+oHKhiv9vTzr/1SmuSfc7lU9rmvShZNMhfTZPNOofMZrfmzjs88VHZ1sttG1wqYeAkAWVfqfxEPGqr9XKb0ghLTrJgZ5FqQR1/N6Y6eW97VS3mqPK5zeej/lOvWCAqS4WNMnOJBEsy/fYgL6VUDIOVwNjeXl6napobfpJ9g9ZXA3cGKDcQQ6SpcqCKST9cQ5zhgzEqSitn501P8e4SUjS4JiIMxvRC8+bnJNmUe+mIjHQEauuVVs6zSVk/u6J+C9xWiemWkp02+3uSokuq36S0orj+01uOVYTBSGYplGcucUsSJZXWNDGpCQ0TjXPZqG8a+eUcAhy71sAbJhp17nfWUIBrnpyXVQZCI7rt5aY+2LEHJYFFGIzqfG559R+P0iNipIa/O2553b0Vzeck0VkpgRkiTcW7S5iGzhFonOAtKBnYYMdO8x74zUtF6BDYBR+PVCRYCSzw+z0ECUyKbqnxrPO86HF68lSfQlrLnimzOn8501NI/9cUYhV4YoVEGQ68w8gJAiAAAiuWQDgS2PHJy3IrMP/5Z0ORwCgQ2Kwj5GqzAlv5EliEwbg+PiZ/W+GmS63sbyzPi57GiSZ7gyh3nQh/jTbZU1/bW8DUk3s+90uenLS4GJ3Y5FL+PQVMOPtsqPwfDhTtKszITIgJREEozkj4UXc+p9RwEpj0d09M1IVm+0e9pcxa525/6Uve3MyEGK2Q8KFByEyIeaZVpFaYhdp7PSUn6mxyRzx55UGNnXSZoCQw6Rf4jITvbHPNEh50f2eby5UWrzV2ksAK0xN2FWa8faDo8yHJlfLjvtILzXatgVArnwxIBzsyJehGR05mwjyrFmawxgKEfTpQ1pXHq2MRBqO/1sqmaVHcIY3rTEfclrcOFLHhfz7kvnNYb0bY7BDqQCQw+YRSmuzvdDRcyrzUidmf7m9587oKtNqKTomv8FUxraHzpqf5fIutziHfEpABF2cxml5obhhvZI+UjuudFf2VUYlx+tpNkj21enjjrK5xS/KXLDlQFp2i9/NAeqG5cbyRaWeeW57Wy21F3cWczZRyaIZIk71BlASLGQsd2lVyGpC8INseB2SwYDRlt+Y2n2+Z27Le8rZfa68cqEq0zvMIltfP0tEp8VWD1Zx6+LgkMOVXA1sA2a25C341GIymvC0FzNiB8KrGXzNEmjJKLHUn6jZf72A5N1/vqBmtTctXd0aWQ0uyp9adrJ/jPKOGcDqIPD8ZAFYN8zZZ8mxcOsmeKhk/zpd0VUP5rI+PKeoubr3cxgRW9k2qhSsECYwdUlk5MHs/MlyeF6W7UqsVyYLGaHJ687jvd+4u5oZMbwMcu/wp4Z25c4v2lKyPj9G/31krgaz50CSwYMcerAQWYTDKBx7445HNiOS7OuPl3fZMm7MzLzolXksCY6DSC811J+rkz7r8bYU6z7qQ5z3wm5fWSeCPR1YkWEdIViqQ+z00CYw96+Q3b8cLCz+FgrrfiRU5gHNuy5QBCRAAARAAgcdOQCmBycOB8Y6Q863AgpPARsafnu8IeX7olBQLTCmBsRD9fcdOP3Y66AAIgAAIBEWAYtWtBAmM/hbveKHDfbgio9jCuXcFNbRAMgeyJQ6knmXOQ9uq8I/HXeaeozk5Aeam6rnp0YoBL8+MNAgsJwF6yCitwJazGyG0RT3H41GLniHSFJeRJHdbDtAXW6tCXAcBEAABEFhSAn3HTssPhRzwTyoksNlDIZl+NULhwCYvhyKBsdD6LBY+JLAlnVpUDgIgsPwEdhVm/OaoZD2nNNlb/s5EGIycx6KqbcsidmyVSmB0HlngwdcXERqqWhQCFLVKK8T+orSCSkAgNAIkJK06CQyPxwVnnCaXTGI5o+kFa0AGEAABEACB5SQQuATGHwqpJYFJsfDPXR2bORFSHguMWYFBAlvO2UVbIAACS0fAuM7kTI3PS5t91diSL7Y42GGU8vMul64DAdaclp9ZM1rL/GsggalCo9PfdDwlVQvi4sohQGcXunsrVk6v0BMQYARIJVl1EhgejwuuYZrcwH3JF6wTGUAABEAABJaOwGJJYGPnrs7GAuMlsInLLBw+JLClm0XUDAIgsPwE8tLiP+pVOZbhs6Hywaqs5e/PSmhxlVqB5Xa4pNMq4UBnMK6EVRRaH9jhg0st8obWN5QCAVJJVp0EhscjVi8IgAAIgMAaIxC6BDYxzxGSl8DYaZGSFVjAEphvbEJ6jU4gFtgaW2QYDgisSQJKCezTgbIf7cprsqeuyfEGMqhVKoEFMjTkWckESF9onGjSiSC+koeAvq1tArREV50EtrbnBaMDARAAARB4AglwEphvbEIrFhjvCPlIApMOhZzxfZxnBRamBNZ3/AzC4T+ByxFDBgEQAAEQAAEQAAEQAAEQAAEQAAEQAIGlINB37PTcoZAzZljLJ4ENnjwnPxFSbgUGCWwpJht1ggAIgAAIgAAIgAAIgAAIgAAIgAAIgMCTSUBfAhs8eW7o1OyJkItvBQYJ7Mlccxg1CIAACIAACIAACIAACIAACIAACIAACCwzgaWRwGaOgxydvKIfCwwS2DJPNpoDARAAARAAARAAARAAARAAARAAARAAgSeTwOJIYGefmR8Of74Edmz80rHxS3Qi5NCpCzOv85DAnsw1h1GDAAiAAAiAAAiAAAiAAAiAAAiAAAiAwDITCFACGzp1Qe4IeWz8knTS4+RlFvV+TFUCk0zAZk6EXBUSWHa6GS8QAAEQAAEQAAEQAAEQAAEQAAEQAAEQAIFlI7CcKliYEhhTwQKTwM5cHDlzcfj0RYUV2NmjJ84O+CelcPij0qt/dHz5w+Ev2+yiIRAAARAAARAAARAAARAAARAAARAAARAAgex082OTwEYnfGMTj06EPMv8FFk4/DkrsDMXmVEXswKDBAbbMRAAARAAARAAARAAARAAARAAARAAARAAgVAIQAKDFVgo6wb6MQiAAAiAAAiAAAiAAAiAAAiAAAiAAAisIgKrWAIbO3dVes2Ew+djgcEREuHGQAAEQAAEQAAEQAAEQAAEQAAEQAAEQAAEHhFYpRLY2LmrX4EEtoqkVnQVBEAABEAABEAABEAABEAABEAABEAABB4jgTUogY2MPz0CK7BHGudjXFtoGgRAAARAAARAAARAAARAAARAAARAAARWCIEVLoGNjD99bPySMhz+nBXY6OSV0ckrkiPkhPQ6Nn5JIYGdHzp1fvDkuaMnzh09Me9EyP7RcelEyGOn+46dXk4QIc/981eu/vUvf5nW/vfXv/zl+StXQ65/TRZ0pzvetPVNCf5rlqdWywBHLE1Tgv9NW5873bFa+ox+ggAIgAAIgAAIgAAIgAAIgAAIgMBKJrCcyg/Tmpju5Jt/IuTRE+cGT56bORHyvPxEyDkJbOIyOxFydPIK84CcdYTUksCGT05h+QcAACAASURBVF8cPn1x6NQFVikksJW8Cpe0b5DAlhQvKgcBEAABEAABEAABEAABEAABEACBVUFgxUpgw6cvSu6MZAW2WBLYgH9ywD/pG5vwjU6sOiuw1pr6od7+Y/0D3Ovmc9f/9Mc/TU9P/+d//OfY4PCqWHnL1klIYMuGGg2BAAiAAAiAAAiAAAiAAAiAAAiAwIol8NglsAH/5Ix7Im8FBgnMHOCiObJ3/+/++Z+np6f/+Mc/Xrt0JcBST042SGBPzlxjpCAAAiAAAiAAAiAAAiAAAiAAAiCgRQAS2GqKBaacxYM7u5n+9ec///nGs9eUGZ7AK1XFpeV5hTTwNSOBOS3WhqqN+TY7DQ0JEAABEAABEAABEAABEAABEAABEACBAAlAAlvFElj3lq6p+59OT09D/2LLvaq49MC+fQMDAw1V1XQDyCWwvPQsn7nuLWv/lOC/Kxz/tnVfZ0ZxjvbpmXUZrheytr5vG5oS/PeE0Z9Yew5kVuelZ1HlXKIw3TZiaXzd2ntPGGVNvGo9pF+kLsP11aydd4XjU4L/XdvgGUtbfrpVNRy+K0vYt2dPf1+fp20zhDCOPN6CAAiAAAiAAAiAAAiAAAiAAAiAgD4BSGCrVQJrram/d/fX09PTf/3LX779jW/pT/Oa/5TEr4GBgQGfr66iioZMEtj1rK5LFs+U4Je/7grH+831ShUsJ908aG5gSpY8/5Tg/6F1f0VGNtVPieaM/J/PHD3J5Z8S/F/L2lWYLlBOSuwyV3xkG+Hyf8O6+4ylTXkipNNi27t7jzTAgQEIYcQQCRAAARAAARAAARAAARAAARAAARAIhAAkMEkC6x05tZwgApkY/TzNVTW/vPP+l19+OT09/cs77x/q3qOffw1/yolfO7ZuK8l1ycdLEtjPbX1v23znLZ2tmfmtmflXLF6mcL1jG6jPmFckO928I9PNLLNet/YeMtfUZOR6M0uuZT3Finwjq7sgwyZvpSzD8RNrz5Tg/8g2ct7S2ZlZVJGRvTWz7KWsHfeFsSnBfy5rMye0VaZnv247QkVaM/MbMlyjluZ3bYPfytqtlMCy0815VqGzta2/rw9CmBw+0iAAAiAAAiAAAiAAAiAAAiAAAiCwIIHlVH56R071HTvNjmH0jU74xibY8YyPMxx+3/Ezq1EC29217fe/+930o39ffvnlv/7Lv1w6e27B+V5LGTjxa/tTXUVijnKAJIHdFY53myvkGQ6Yq5k+dcLSIr9emC58L2vflOD/O+teufVWTrr5oHnjfWHs18JoV2apvMjWzDLV6870rGeznpoS/G/YesszRHmRI+baKcH/a2F0t7lSfr01M/91a6+qBMay5VmFzc2bent7IYTJuSENAiAAAiAAAiAAAiAAAiAAAiAAAjoEll8C6zt+pn90HBJYoAc+qk7eTs+Wz6am/vjHP/73f/0XswV7oiKCycWv/v5+LfGLoSMJ7GXrHs50qyhd+KF1/5TgfzFrW266hVA3ZeTdEYbuC2N7M+ccKtmnVOS8pZPy6ye2m91Tgv9921BLRr485xXLlinB/6rtUEn6vAj3Oelmppq9aetzpzvkReRpCGFyGkiDAAiAAAiAAAiAAAiAAAiAAAiAgD6BJ1EC841JFmi+0Yn+0fHQrMAyTFEfZWf/weVSvn5iE+LWrdfHqj8lwX7aWlP/2k9+8j//8z/T09N/+Nd/69t3MNgaVlF+p8XavWPnrPVTf3+Xx1sgzDOtUo6FJLBrlqe4T3PTLS9mbZsS/Jw6xky6lKIVK37NIll1fTVrpytDMy6+vCEtCYzVwzXNCqqGw5fXSWmn2dre3CK3CNtY6qZPkQABEAABEAABEAABEAABEAABEAABEGAE9LWaxf2UOULKrcCYL+RyO0KuMQmMTeRPXvnRlzP/vvutl9fw4manIvb19nk3dywofjEOOhJYdrpZVYdiotUHtuGuzFJ3uoN7qapmUqCumeMm37D1MudKLsi9UlBTbZr1OXAJjOV3mq2b6huOHD7MnYa5hlcChgYCIAACIAACIAACIAACIAACIAACQRFYXJFLvzZIYEYGKKgZCjDz2ODwn/74p+np6Xfe/scAi6zGbEwCk6zAfL7uHTu5yPeqIwpZAuM0LO4tZ71VmC58LWsXl0f+dukksJwMS6274sC+fQM+HyQw1TWAiyAAAiAAAiAAAiAAAiAAAiAAAiCgL1ot7qePTQIbPHlu8OS5oyfOHT1xdsA/Gb4VWJhclmLZ7du2419+//vp6emp+/eXov6VU2dNWfnB/QeYL2QgQtjySGAnLC1M8PqB9QBnO3Ygs1o1Flj4VmBM/CIa/TOeofm2eZHFVs7EoScgAAIgAAIgAAIgAAIgAAIgAAIg8BgJhCnmBFV8QQls8OS5oVPnh05dGD59cfj0xZEzF0fGnz42fun4xGXpNXl5dPLK6OSVsXNXx85d/Qr7H7t0fHImx8TlY+OXRsafHjkjlR8+fXHo1IWhU+efBAmMzohc8xJYdrqZk34GfL7dO3e58wpUb6SQJTCl3ZZq/dnp5pJ0+6u2Q8oTJFn+pYgFlpNhaayu6Tl4UB4WDeKX1gThOgiAAAiAAAiAAAiAAAiAAAiAAAgEpWGFmRkSWLiOkFP3709PT//+d7/b3bWNW7sDhw7/53/8x/T09L1ff8J9tFbfBiiEhSCB6YfDV/JkJ0hOCf4RS5Py08WVwJj4dfhQD8QvJWpcAQEQAAEQAAEQAAEQAAEQAAEQAAEtAmGqWkEVhwQWrgT2wXt3pqen/+tPf5rwn+Rm9Mq5C3/+85+np6fffvPn3Edr+61SCNuzq7skx0WjDkECY5LWfWFsRyZ/umLOjM2XO91RmC5QEySBHbc000VK9JvrVR0hr1i2TAn+V22HStLnuS7mpJufzZIOnXzT1udOd1A92enmpo21h3sgfpnlTJAGARAAARAAARAAARAAARAAARAAgUAIBKVhhZl5uSWwGS/INeUI+a2v/e2XX3whmXrd/XVrTT1NcGtN/b27v56env7rX/9687nrdP3JSXBCWENVNY09BAmsMF34Xta+KcH/DetuudSVnW5uzcx/1zY4JfhPW1qpCXKE/IH1QEnGnDSWnW7emJ7zmu2wqgR2xFw7Jfh/LYzuNldSVfImOAmMjgJAzC85LqRBAARAAARAAARAAARAAARAAARAIBACYapaQRUPXAJj4cDCjQWmkMDOzoXDH53wjU70j473HT/Td+x078ipoEYSZuZAJkY1z9b2jocPHkxPT3/55Zf//E//9J1vfmvyxMmfvPKjf//DH6Zn/nHSmGola/giCWFhSmDZ6eYdme67wnFmitVnrqvJyG3NzB+1NL83o3+9Yxuoz5gzNMtON1M4/J9Yew6Yq6sysjszi85lbf7ANvxjqxQmTBlZrDI9+3XbkSnBf1c4fsHS0ZqZ35DhGrU0v2sbfHWmiFIC27Oru8vjRcyvNbyGMTQQAAEQAAEQAAEQAAEQAAEQAIElIhCmmBNUcV4CG53wjU0M+CePnpC0KRaznoXDhwSm6eo1Njj8h3/9NyZ4cf/9p4f/7+DO7iVaKKuo2pwMS25mFnU4BCswKeJ+unnQ3HBPGGXnPMr/+75taHtmGdXPEoXpwteydsmzsfSPrYf6zHWqElh2unmXueIj2whX6htZ3acsraqOkDkZFq5dvAUBEAABEAABEAABEAABEAABEAABEAiEQFAaVpiZl0ACO/uM/ETIY+OX5CdCrj0rMDajW9s7fvLKj/7j3//9ixmnyC+++OJffv/7b3/jWzXFvC4TyApY83lCk8AYlroM1wtZW9+3DU0J/vvC2Bu23lOWVi4+FwHMS8/ymevesPXeF8amBP/bNt+4pb0w3aYVDp+a+GrWTmZx9q5t8IylLT/dOmJpUpXAqC0kQAAEQAAEQAAEQAAEQAAEQAAEQAAEgiIQpqoVVPGQJbBj45eOT1w+PnmZ6V1jZ58ZO3f1K2Pnro49kRJYUBOMzCAAAiAAAiAAAiAAAiAAAiAAAiAAAiAAAkFpWGFmhgQW7omQWK8gAAIgAAIgAAIgAAIgAAIgAAIgAAIgAAIhEAhT1Qqq+FJJYMcnJQux4xOXZx0hz1wcOXNx+PTFteoIGcI0owgIgAAIgAAIgAAIgAAIgAAIgAAIgAAIPMkEgtKwwswcigR25iLTtZgjJPOF5B0hIYE9ySsYYwcBEAABEAABEAABEAABEAABEAABEACBBQmEqWoFVfxxSmBHT5xjB08O+Cd9YxO+UenVPzred+x037HTvSOnghpJmJkXnBVkAAEQAAEQAAEQAAEQAAEQAAEQAAEQAAEQWEQCYYo5QRWflcCOne4fHWcalG9sYsA/ybSpoyfODZ48N3TqPPNfHD4tuTOOLJYVmFIC6x8dhwS2iCsJVYEACIAACIAACIAACIAACIAACIAACIDAiiUQlIYVZma5BDargkECW7ErAx0DARAAARAAARAAARAAARAAARAAARAAgTVDIExVK6jij0UCOz906vzgyXPMCmzAP0mOkLACWzOLGAMBARAAARAAARAAARAAARAAARAAARAAAX0CQWlYYWbWksAe+UKSI6TkC7lYjpCQwMz6KwCfggAIgAAIgAAIgAAIgAAIgAAIgAAIgMCaJxCmqhVU8eWQwEbGn2YhxIZPX5wJKgYJDBIYCIAACIAACIAACIAACIAACIAACIAACDzpBILSsMLMHJoENjL+9LHxS8cnLh+flF6jk1fGzj4zdu7qV8bOXR07+8zo5BX2wfGJy8fGL60KCSxJtOAFAiAAAiAAAiAAAiAAAiAAAiAAAiAAAiCwbATCVLWCKr58Etjw6Ysr2Qps2WYXDYEACIAACIAACIAACIAACIAACIAACIAACCSJlqA0rDAzByuBzYYDC8EKLCgJrHfkVO/IqTDHFlRxrDwQAAEQAAEQAAEQAAEQAAEQAAEQAAEQAIHlJBCUdBNmZqY19R07zQ5j9I1O+MYm2CGNR0+cPXqCD4cfjAQ2cVnuCBmgBNZ3/EzfsdOQwJZzwaEtEAABEAABEAABEAABEAABEAABEAABEFh+AmGqWkEVJwms7/iZ/tHxoCWwmXBgGrHAIIEhvhgIgAAIgAAIgAAIgAAIgAAIgAAIgAAIgIAGgaA0rDAzQwIzMoLLr3SixXAIlDsK3hD6PxaODzlaU8SscKpCWRAAARAAARAAARAAARAAARAAARAAgcdCIExVK6jikMAgga2+ozDTROsN+64pwT8l+N8WBgpE12O5UdEoCIAACIAACIAACIAACIAACIAACIBAOASC0rDCzAwJbPElsKyi3P/7/nvT09NffPHFy9//bjhLAWVVCcglsHftQ6WOfNVsy3PxiKN5SvD/zN7ncIjL0+IStfK0vWt1DcThEH9m75sS/EcczUvEBNWCAAiAAAiAAAiAAAiAAAiAAAgsKYEwVa2gikMCW3wJ7NLzV//yl79MT09/8um9itaGJV0rT2zlNY5i5gg5Ym9PFa2PkQMksMcFHxLY4yKPdkEABEAABEAABEAABEAABEBgsQgEpWGFmRkS2CJLYM1dnZ8/fDA9Pf3f//3f45cuLNaaQD0rlgAksMc1NZDAHhd5tAsCIAACIAACIAACIAACIAACi0UgTFUrqOKQwBZZAvvBqz/6cubfG//w88VaEKhnJROABPa4ZgcS2OMij3ZBAARAAARAAARAAARAAARAYLEIBKVhhZl5DUpgm549eOwPXzv2h68N/+6lan9XgIAWZfL6x4b/4z//c3p6+l//7d+6ew8uSp1ro5L8qrIcd+HaGAs3CkhgHJBle6slgZXVVVsLc5etG2gIBEAABEAABEAABEAABEAABEAgZAIBijaLkg0S2KJZgcmj4N/6+t+EPP1rrGB+VdneA/sHBgbc9Ru5oaWIWR5H1avC4fvC2H1h7FXhcIejwiwKX7PvmRL8T9u7uPwsXjs7CJL+q8zGlTKLwmFH0/8Reu8Jo1OC/2Ph+A/th7Y6NqarRRCjkPCimF3rKP6Wff89YfS+MPa60LvPXq9aREcCyxVzfmI/MiX4v20/YBXtrGNawg37lHXga/Y9maJAAyl3FNwRhljcd7MoHHe0vyMMTgn+D4WRG/adhWIe5QwnEcLYWXPponWPo+4VoYcRfk8YumB/qtDh1OpMsmipFAtv2He+NzOoKcH/C/tR/SLponWfvf4NoX9K8N8TRr9l318tFmmR7Nq5vb+/37utC0KY1hTgOgiAAAiAAAiAAAiAAAiAAAisEAKLom0FWAkksEWTwJ658Tyi4MtvIRK/BgYGfD5faV2V/NNU0Tph99wXxkjMmhL894WxQcemRZTAyhz5f2+XdBPl66Z9l/mRLEUdIxloj6PuY+E4V+pZ+3ZlES0JLEXMmrB7mOjW6CilJrSEG5ZBXwIbdrS9ZO/menVHGGp1uKn+kBMhjD1JtOSKOa8IPVyX2Kj3OuqTRQvXn1TROuZo5+adFf9QGNnsqOTyJ4kWs2i/ad/FNfGxcPyAo0H1RMindmwbmPkHIUwJE1dAAARAAARAAARAAARAAARAYEURCFC9WpRskMAWRwKjKPh/+q8/jU6eXlHrafk7w4lfT+3YZi/hLZU2Oyrvzphl/czet8dRly86G8SSp+1dv7AffUPoU7UCM4t2h0NkL5cj91v2/arZaLyCKDJ15kNh5KS9s04sFsWcFkfZC/YdTII56ejgNBomA90Rhl4Xel+yd7c63AWia7+j4f/OWF3dF8Z2O+qofpbQksAaHaVMRONaCUcC+6H90DvCYL+jpdiR1yCW0EBeEXoEUeQ6FuzbEMaeKQpMkrsnjJ61e+vE4nzRucdRx5Sp/x1+m6Oc68ZuRx2D/z37wW2OmnzRWezIO+hoZITfFo4WOVxcEUZ4SvB/z35wq6Pa5chtdbhfsnf/1N6rKoGl5lirmxsOHzkCIYwjibcgAAIgAAIgAAIgAAIgAAIgsNIILIq2FWAlkMAWRwJDFHx2F3Hil3f7VlVntDTRemPGruen9t5ccS5sU7JoOexoYhKJvodjpra/JN3PLY6y+8LYXWG0yVFGF5NES6povWB/akrwvy70imK2/CMmA00J/km7N1XmKely5L5p900J/peFfZwhmKoERurbj4XDopgjbyIcCewdYbBCLKDakkXLkKOVWc95HfOM7ChP4IkQxu51VDHCnvmtCw7Hd4QDU4L/lr1b7j2aIdq+at+tvJ404xpJzp7yPttExyt2ycrs6/a9cvKpovWMo/NDYYT5h8qLsHRqjrWqqe7Q4R4IYUo4uAICIAACIAACIAACIAACIAACK4RAgOrVomSDBLYIEhhFwf/d73+/9cBuWkY//8Xb09PT/98f/3h45ChdXKsJufi1oAOaIDp+au+dEvwj9jYOiChmvy5IH4UvgXE1y9+2OtxTgv+OMFTumFOUkkQLWUJx15NEy0l755Tg/7ngczrmNLsk0aKUwEiZ+lg43uGokLebJFrCkcAu2J/izNYKRNfbwoAqSa7dBd/qjH3E3qY69nP2LaqyYJJo6XJUTwn+t4WBApG36lLtiZamWerIf9cuxUHrdtRyBeUh0riP6C2EMEKBBAiAAAiAAAiAAAiAAAiAAAisQAKLom0FWMlakMDoCEh2EKTWf/UPiAx5HWQV5X7wqw+np6e/+OILLgr+EyKBbci1beveyWxt+vr7Nz/lNefPM61SstWRgbSkEK6SALNxpeitvgT2M3ufw8H7FTJNR6maKSWwSrGQGTRdsD8lNyVjreuMnTQ4nXD4NASWsDjszN5KqRimiFmCOOs3Sg6kLGETHZyURk0HPnYy6VI2nSRamD51VxhtEEu4Pqu+1ZpQ0rmU8c70ScpbSc7OqpxvEbaxpVGeAWkQAAEQAAEQAAEQAAEQAAEQAIHHQiBA9WpRskECC9cKjKLg/+qTu2XN8wxVnhAJLN1l7963p7evr9XbsaD4xe4oHfFCSwrhbsUAs7GTBF8XelXjryv1LGYJpSoDaalmTAJ7Q+gvdeT/77hcjtxv2PdOCf437T7XfHuxBcdOOlTgEpgOB4LMBZKfEvxc/axjwY6dmn7Wvp2T2BwOsclRdkcYnhL8SumqUMy7Yd/JfBiVfeMEtUWRwNgAk7OzyuqrDxw6ODAw0NzBmx9yCwxvQQAEQAAEQAAEQAAEQAAEQAAEloHAomhbAVYCCSxcCezuvU+mp6dVo+A/URIYO/Zxe/dOZeR75T1D6swRRzP3KQkrnBQSQjbVkwTlmssiSmDyall6r6Oe6zN7qzP2VSqBKccuv8JJYJsdlVriFyvFzfsiSmDO8uJde3b7fD5IYKorExdBAARAAARAAARAAARAAARAYPkJBKheLUq2tSCBcSDIL1Lf85ErFfI03/v0/vT09D///nedu7dzlTwhEliSaCnaWLHv4AHmC+nz+RYUwnRkoEWUwAYdm5iq8m37gSZHmdxSaatjo04ssBCswOSiD0tftW9TekGGGQssZMWQW5mqb0O2AlOOXX5FLoE5xRx23OeHwshRe2u+6KRJ0Tric1EkMEn82jsrfvl8vqd2bLMVOVUh4CIIgAAIgAAIgAAIgAAIgAAIgMByEuDEmSV9CwksXCswJoFNa/97QsLhJ2dnFddWyoWwHbt3ZZcVqt45yyCBaZ0kyPqj5dUYrAykDIefLFpOOjqmBP9dYZQ7J5E1rTP2xbUCUyWvczHYsQcoVspb7HbUapHRqi1MCSy/qmzP/n3M8gvil3wukAYBEAABEAABEAABEAABEACBlUBgSTUvrnJIYJDALIu46AMUwnRkIC0phOvkgtnoJEGl5VSSaFk6CSxJtIhizo+Fw1OC/8fCYVHM4XpOY1eehpkmWm/Yd00J/q/ad2eINipIMpByLAtyoEoWTAQrgemHw1dtjp0gqWpkpzUQGrvcmoxVTiSVWJJEi/yIUohfqtOBiyAAAiAAAiAAAiAAAiAAAiDw2AlwKtWSvoUEFq4E9syN5//uB99Vfd3/zdT09PQTYgUmv23UhLBuoTiP8gii46f23inBr5SBRDH7dUH6iIsJRWVZQksxoWwkgfUpwo0liZa9jvrFdYTkZJ0OR8XHwvEpwT9h96SIWdSrJNFCPb9h35UmWuUfCaKDaWfn7Fvk10kGUmo9VJs+LnltWulgJbAk0cIkLdXg+mmi1eEQBdEh9wZl+d8Q+pTKII2dGwjNY7dj3lkTdOjklODnsBRWu+XWiHB71JpxXAcBEAABEAABEAABEAABEACBx05gSTUvrnJIYOFKYDrL5cmJBaYKgRPC3PUbKRuZO/3U3psr5tL1ZNFy2N54VxgNXwIjR8hv2w9YRTs1kSRaXI7cn9iPLKkElipaL9ifmhL8HwvHGx2l8taTRAsLUvaxcLzDUUEfSWN3NN0Xxu4LY15HFV3X0XrkghqnHMmLB5gOQQLzOqruC2PcQJJES6ponbR7pwT/zwWfU3YsJnOEvC+MbXVUy3uVImYdcTSzUzu5gdA8ft2+1yybR2pCKYF17dzODmeA+CWHjDQIgAAIgAAIgAAIgAAIgAAIrEACnEq1pG/XoAQWGq+lWAdPuATGkJIQJpfAkkTLZkclk7p+Zu/b46jLF50NYsnT9q6/t/d/135QKYExqyJl9PRn7dvposMh2kRHsjjr2knh8F8RerY6qnPFnDqx+KSj444w/AP7oSWVwJjQ9qbdNyX4VTU49tGHwsiIva3YkVftKHra3nVvRvvjtJ6VLIFlisJL9u4pwX9PGH3a3tUgluSKOZ2Oypfs3UzPOunooOlIEi0UDv9j4fgpe2eFWJAvOrc5ar5tP/COMMgi5XMSGEVbmxL8bB5djtxWh/sle/frQu8dYUgpgT21YxvEr6V4oKFOEAABEAABEAABEAABEAABEFh0AqFpOKGVggQGK7DFjAWmdTMkZ2el5sxz+ksVrRN2DxNK6ADB+8LYoGPT1+x7lBIYi95FObUScqc8s2i/ORNai8v8A/uhPY66pZbAkkTLVkc1G+ARR7NcCWLByJh8w/XtFaHHJTObYjxXrCNkkmjJFXNeEXq4UbC3z9q3y+222Fg2Oyo/FEa4/PeEUZ9dfd6TRIvqPH4sHN/jqPuZvU8pgaVkz/M81VqTuA4CIAACIAACIAACIAACIAACIPDYCYQmZoVWChIYJLDlkMBUb6oUMcvjqHpVOMy8/14VDnc4KsyisFgSWJJoSRet++z1rwu9TIp6S/Add7SbRWFJw+HTYNNF6w1hJ9PaKkX+cMxsMfuMo/MtQbIUuy+MvS70HnY0mUWBilNiJUtgDPIeR90rQg+zYvtQGLll7251uLkgaDScQjHvhn0nE8I+Fo5/w76v1lGsNe+sFJvHN4R+ZnH2Lfv+arFIPxw+NYcECIAACIAACIAACIAACIAACIDAiiUQmpgVWilIYEsoga3YFbaSO7aI8d1X8jDRNxAAARAAARAAARAAARAAARAAARAAgdDErNBKQQKDBPbYrMBUb3VIYKpYcBEEQAAEQAAEQAAEQAAEQAAEQAAE1h6B0MSs0EpBAoMEBglsZRFYe080jAgEQAAEQAAEQAAEQAAEQAAEQAAEVAmEJmaFVgoSGCSwlSUAwQpM9aGAiyAAAiAAAiAAAiAAAiAAAiAAAiCw9giEJmaFVgoSGCQwSGAri8Dae6JhRCAAAiAAAiAAAiAAAiAAAiAAAiCgSiA0MSu0UpDAIIFBAAIBEAABEAABEAABEAABEAABEAABEACBx0AgNDErtFKQwCCBPYYlrir94iIIgAAIgAAIgAAIgAAIgAAIgAAIgMATRSA0MSu0UpDAIIFBAgMBEAABEAABEAABEAABEAABEAABEACBx0AgNDErtFKQwCCBPYYl/kRJ2hgsCIAACIAACIAACIAACIAACIAACICAKoHQxKzQSkECgwQGCQwEQAAEQAAEQAAEQAAEQAAELhEUegAAIABJREFUQAAEQAAEHgOB0MSs0EpBApuVwELDh1IgAAIgAAIgAAIgAAIgAAIgAAIgAAIgAAIrnwAkMEhgIAACIAACIAACIAACIAACIAACIAACIAACa5wAJLA1PsErX4VFD0EABEAABEAABEAABEAABEAABEAABEBgqQlAAoMEBgIgAAIgAAIgAAIgAAIgAAIgAAIgAAIgsMYJQAJb4xO81Boq6gcBEAABEAABEAABEAABEAABEAABEACBlU8AEhgkMBAAARAAARAAARAAARAAARAAARAAARAAgTVOABLYGp/gla/CoocgAAIgAAIgAAIgAAIgAAIgAAIgAAIgsNQEIIGFK4FFrjNl2bKdBaVaL3tO3jpj9FJPJOoHgTAJfH973sPh8o96S/PS4sOsCsW1CJQedHtve723vdltTpZHeUWr7PJc35Cf0TDe2HnTw/rJ/tt8rjkqKTb8DqTlZ9aM1m6+3iFVe8vbfq29cqAq0ZqiVXPNaK33trfjhQ5LhY3lUV7RKovrIAACIAACIAACIAACIAACIMARgAQGCSxcAtySemLf7k2omBL871oHc9dnrkYIkMAiDMarbeLD4fJPB8o6nWlLMYlKwUt5ZVHazW5zclpbINVmVdo6rnfKxa/FksAMkabi3SWcssYq73ihI7s1V7V7SsFLeUW1IC6CAAiAAAiAAAiAAAiAAAiAgJIAJLBwBSCyAktJy1xnjFZ7RUUYTEr0uLLGCEACWwMTutQSmFKZWjkS2LqoqLoT9czqqmBnUZJ9Q6I1hb3iMpIMkWE9xHLanUz/6rje6e4pzyi2ZFXaqoc2el6UzM06nu/IKDIr1w+DAyswJRlcAQEQAAEQAAEQAAEQAAEQCIEAJLBFk8CSUzNCmAAUWTMEIIGtgal8XBKY50WPrca+iACVWtuClcdlJrZebvXe9lYPbVwwc1AZ1sfHNE40eW97Nz+/ObM0S17W2ZnHpDHVRrUksM3PbU7NTZfXgzQIgAAIgAAIgAAIgAAIgAAILEgAEhgksHAJLLjIlidDdEx8Xn6ByfTYwq5BAlueiV7SVpZfAnN15XPhrhZlgCFIYInWlLar7d7b3tKD7kXpA1VCNVf0VdJFljDFxTSMN3pve1XDjSklsIq+Su9tb9vVdmUEsYxMi01wcPXjLQiAAAiAAAiAAAiAAAiAAAgQAUhg4QpA5AgJKzBaVcuciI6Jb2ho7Ovr27lzZ1R0HGt9Y4w4Jfhvp2+3mTZ8NX3HJ8LoV9N3bDAmrTOs70+s/ZXt2HtZQ4cSq9YZ1it7uz4yqiu+5PuZ++4JozPhvY6Op7TZjKlczph10bfTt08J/gVfG2NErqzBYMyLMj+btuVd61FW/O0sn2orXMGg3hrXmY64LW8dKPps0P1wuPzzIfedwyUn6mxJMVHKeigWWGF6wq7CjLcPFH0+5H4wJAXIv9BsVy3CKslLi//altyP+0ofDJU/HC7/bND91oGiI26LcZ2K61xvuYWCbdUKya/tLfhsptSnA2Xf2eYqzkhQdizCYMxMiHnJO9cEa+W1PQVNdn5SqLhxnWmwKusXB4tY/Z8Nul/bU9CVlxY536EvLS76rf2FD4elnuu/esstVHnICaUyxa7Iff2ockuFreMFKXI8xc6nj6KSYpvPNXtve2tGa+kii5OljOTFXdFSuEio0spADQWbSC80dzwvDUS1ZtbtACUwJoqpSmB5eQU+n6+7ezeEsGAnCPlBAARAAARAAARAAARA4AkhAAkMEli4BB7jrULi18DMv23bt5vWx7D+MAnsaxk7n0vrIonq2oYtnXGF92ySsDUl+O/ZRncllHH9zzAmfT9zHxWhxK9sx7bGlxgMc7hClsDWGdYfTa6jblATU4L/l9bh+lj10OBcPxd8a0mM/XF3vqqsc+dwSZklkauBJLBzTQKTjeRlf9ydb0lUORPwiNvy6UCZPCdLPxgqf3mrK9bEK4wkgY1stP6qr4Qr+MERlY6VWRI/OMLnZAU/GyofrJrnWMcGZUmMfX1vAVf5w+HyB0Plf+PNlffqsUhgnTc6LZWzRxw+CRIYuVjqWIHVn2xYF8Urs0zwar/WnmTfwGZWRwJzuvJ9Pt/AwACEMO7WxlsQAAEQAAEQAAEQAAEQAAFGABLYnKIR2pogKzAuHH6kmglMaE2glJIAJ34dPHiwqLh0nXFuC80ksJ9ZjpxP3ZwXZe5JrP6V7dgH1qHvmfc1xjpLoq2vWg5NCf7vmfclroun+mPWRb+YtlVSx4TRkyktJdHWLFNKV3zJa5aeKcH/K9uxmphsyrzOYCqJtjbG5LLX2dT2KcH/kW1kb0IFXWSJVOM8vWlLfDHTv/4uY097XEGWKcVuSt+Z4H4na2BK8P9DVr9gCvc4wmjT+pe3upgG9G5Psb/WWmVNOlxmfmVnPrPVemNfYVrcPKdRJoF9OlD2UW/pG/sKe8stjY6Uiy2Oez7JguzBUPlkIx+sqsmR8olP0r/u+dzX27O3uDaUWRKHqiXbK60iJIG921NMHestt7yxr5B17JWd+dEy4SzatP6VnZKQ9/mQ+zvbXFtcG/LS4mtsydSxT3xlTY4UmpQIg5HG/mCo/LU9+YfLzFXWJH+t9d2eYtarK5vm3OWiTet3F2UMVmWx1w9n2vps0H21TaSLLFGYPmehlpyc+OIzfT96+ZT+6ylPjbxjEQajUvBSXqEiwVqBWauE3E4Xe1X4qpjxV4Wvii6yRHrhXOD5qKRYinlvLs1qvyY5Qpb3VtDFRQmHb4g0lfdW6MQC89z05Ha4aOCUUApeyiuUOcJgNFus3d27IYTJmSANAiAAAiAAAiAAAiAAAiBABCCBLZoE5iwo5V6C6IqJnad9EHckQibAiV8HDhzMLyjivNsiDEYmgf1j1oDdJIXNXmcwPb2hc0rw9yXOqhL1sblMb7KZZg1MIgzG5ljXPdvoXdvxxlinvIdJ6+Jeztg9Jfivp3Wtj5wT2uR5AowFFh0Z/WL6NtWq8qLM71oHpwT/3oQKec0hpJvFFCZdfX97ntyHMTLS9Eyr+GCo/LeD7kNlmfKamQT2cLj829vmWW9V25Lv9pc+HC7/x4PFnCHY5RYH07+axXkilCUx9q0Dkgr21n5eaGMS2IOh8r/fWyivLda0ntmsfeIra5RJWnlp8R/1Sq2/5M3lZnlXYcZvjkryHKfNbc1PZ9evtYnyIkkxUa/OmMW9f6Qkd8Oc7imHEGAssJAlMFuN3fOiR+72uIgSmHwgrFpVJ0p5NqYocZ6SyreqXoryehZMx6QmNExIMb9UToS85d04UmNUmIBFGIwsUJrc7VFfAmPdMFus27fvgBC24KQgAwiAAAiAAAiAAAiAAAg8aQQggS2hBOYsKM3JK46Ln6cOPGkrbBHHy4lf+/fvVxW/WItMAnvN0pOybtZ4ZzKlTa4u5a7PfNc6+K51MHf9nBJ0KmXTlOD/evqu2Eje6a811qWUzOSjC1ACkxfh0uRZOZnSxn0U7NuxGiuF3OLKFmUkftwniUq3PTnyj8gKrNPJ26Dd9uQ8HC6/219amZUkL6KTZlrSR72leWnzxCYmgT0cLh+s5B0Y+yssTJvbXzI3I42PDM2UobiM60zO1Pi8tHjOnI0Jcx/3lZYrnD13FqR/Nuj+7aBb3oR8FAFKYIZIk9mcbhfM+q+4+HljlzcUSDpYKzB5nStNAoswGNfHxxRsL+q43imX2DZdbhXqRcP8AG3ygYSchhAWMjoUBAEQAAEQAAEQAAEQAIG1SgASWLgSmOrKMESa4hNTs11FzoJSR06BcT2vp6iWwkUdAqKY09fXx2J+7dm7NzvHKTfwURYMQQIj+yxVBYpJZndtx8uiZ6M4cY2uKAlMS4FifoLM9a8rb57URbHAONEqwmDUEdQ4CPRWqwPkCKkU2jqdaSysmFztyt0Q/2GvFAjs5a0u1fj61CIlvrs9T9UALcJgJJsyznCMygYogVH+JU0sgwQm739Q4fCNUVHxlmTOX5K9jVGzsDMYTXlbCjj9i2lh7VfbhTr+vAh5x8JJZ2Ra5BZhXu+Wx3hobDgDQVkQAAEQAAEQAAEQAAEQAIHwCUACWxIJjE1MXEJKbn6Js6A0IWnO1S78OXsya8jLKxgYGNjV3e0Qc/TFL8YnBAmMjLAubehMWZfAvSqi7e9lDU0JfuXxjqzFoCQwmynt2bQtv7QOy2PhU1pVgwtq3rUUKJ1KdCQwHd2KndXIPCWV4ee1rMA+HSgLUAKLjDR9s8vJYnh9cKTku9vzzjUJu4synKnxWooYG8jbB4qqbcl5aZKZGL3as1OZBdzVNnXNBRKY1rmN3MoheU5u0sXS8kMqWSlDpKnkQJn3ltd7y1t/umGDK8MQaTIYTeayrJaLLd7b3s6bHmdnHtfEIr5NzzB7vVt8Pp/80NhFrB9VgQAIgAAIgAAIgAAIgAAIrAoCkMCWUAKLXLfe5sh1FpRmmNXthlbFElkhnWQS2MDAQE9PT0lJmTzyvWoPw5HASIpSTYQvgdXH5mqJX6zF1SKBlVkS7xxWP6uRyWFBSWCq8xhhMBZlJL5zSIosxr0+Gyr/UXe+a76jZYTByCQwLjP3FhKYknZQVmBBSWAZxRZm/7XxGB/zKyY1oelsk/e2t/VyW4IlWdmr8K/ExSc2t2zq7e0dGBiABBY+T9QAAiAAAiAAAiAAAiAAAquXACSwJZXATFm2bGdBqdm6JMFuVu+yC6Hn0THxLS2byBdyQSFsxUpgGcbkn1kOTwn+X1qHexI3ZplSyNzMbEz52/RdU4J/VUhgdFYjO3hxa346GVvlpcXf7JTChy2KBBZhMMaa1u8pznjJm/vmvsK7/aWfD0lR8NnrzuESZ+q8kFvLIIGtmVhg8jsxKAlMXnDBdMneUikQ/vMd8sMoqZTYkuO56fHc9Dga545bpU/DScTFJ8ofGnv27hWzc8OpEGVBAARAAARAAARAAARAAARWNQFIYMshgWXZsiPXmVb1Qlkhnef2tD09Pe7yCqMpWtm9cCSw0BSoAB0hvXFFU4L//2fv3d/auq688T9FEkfogpAQCIFuIKELAiQkwNyvEpKOB9txfL/bECCOQ5q3iZO4tWMnMY6BznTmSTPznWY6M/0hk6d98/bypO2kSTP1lLqx/45vD4sutvY5OgghLsbLjx4/+2z2Ze3Pvpy9PmftteWXTmq0Ap7ELE0AFoRdOAiJjup//ELeDZIgRiEBVM5UsvJvGm62Vy1lW57MSUQY59gLKDD5ZZSblqnRCkUehCz5RshiZMA0aGkVSOXdT6rRCgabefTtUXFFlJ86hOxFusPHujRaYecosL4b/eKKOPrOmNFWxdYI4dpg/eQHk+KKGDsdl/+1tBirzZ5OT167dg29BxL5VRqSlIsQIAQIAUKAECAECAFCgBA4SAgQBbZdCqym1hmKxptaIhUCT8ToKtatwJzuJq12uxUdpGG3zbYUQ4SVQIGpu8PfVOYiKTC4dJK9qhJL3h0KzKiv3Ko7fEXe6lJnIzBQrPd6bMtOU2AareCoMn5+tu3pfPKTY3lupFTc4aN4hQL7kwILT7VyAlc1WCfuTEgU2Cv93J/gcR9SYOPfHzc71q9nZWWub2vM3M+IK2Lbix1sfGlhq80+OZmZnp4m8qs0ACkXIUAIEAKEACFACBAChAAhcIARIApsu8xUta0uFI23hNuNxrzTWBqtUKE3NgUioWi8zuk+wGNor5rGEWGXL1+OxxO6ikqQpwQKTKMVgJ9aqT9mquAJTb3OYK+otlVYKrTrVXAN3xIF9pnrUp1g40qwVVh+0nCuLAch4Q7HP7+UONJaz9XS7rSCS/iVXAv7JzCekh9d1GgFdQpstpsf3ujDXl6aYlGsGFx4sqX2X46GP54KDTfbuT/pdPqfHG99Op/8+Zm2WvNGf90Za4YzmG31POFi1lcG6yTv+FbjRnq22CIpMDbLzoXRLOvQXC9XC3rXKmQ5ta8oMDgImf0w6z7k4xqi0Qrhw63isrj9g5DV1ppsNkfklxxhiiEECAFCgBAgBAgBQoAQIAQIAUCAKLDtUmB6Q5U/1BaKxusbvVode9pRX1MnGYgFW2NmC0920PgrFwIsEcb6ui6NAhs1hx95b3ztvT5kyvMZVKGtfM0+tupb+JnraoPAczHQlkFzcNW38JX35TYDTwmxjYWDkI+8N1LmPNslnVZ/urrrr/FlocBG/fZH05LDrE+ORWwmAwqg0+nvTvifzCX/Mpu40NmA8ehFXk5aFaLA8CDkf55oNevzaMEjrfVQu7y0rVJgYtix+pLUkPdTfu4m0FiD9csrkjP+f823AjvSWv/nlxJP5pJ3J/KyYNsfzyaOR3lmEKCY7XY/nU+qJGAR2+lwhcEw8Nqg5EVrMevu3rhSQzAYeq/3SRcpFiCV/tqbrm5v9sOsuCLKLcgKiY2MW/x8olCa0uKRsBt5a6TKYWULqQs7U3dTZXGHjzdmkM8vFmEKEwKEACFACBAChAAhQAgQAoQAIkAU2HYpMK1WcDg9oWg8FI17moMWq12oNJstNpfXH2yNhaJxl9dPjsBwwO1QAIiwo0ePGYzrzoZKo8BMFcaHjiOrvoVHvhs3a1OdRq9TsA2bgg8dR4CcerlmqNCZ1iZ9/S/dM6u+hX92npowh4dNQfzVChtqP7rD/9p7/XrNcNjQ4Nbb01XRHzlP/tI9A57yt+8LzKiv/PhIGBzGf3GxY6Hf0+OxXeps/PRUK5xe/NmZNkdVniXUVq3A0B3+0/nk/z3bdiXp6nRZL3U2fnIs8ng28ZuLEjm1fQrMZTX/8nyHREvNJT+aCh0O10Uclk6X9a8tgsso/zKb4MzQsO1P5pI/O7Mh2L+9EAE/+p+eamVpQXZMInX4xcWOV/s8sz1u/MltytiMOxT29TcDk5VZzHacijvCDf6xlpGbo+KyCI7ABMMGv8nKYHHVTLwrnZRMv5eOHm8PZsP4U/RJv6O+wLQ6fexcJ8icupfuOBV3drjc3d7klS5oXXYpF8rmMcJsW4oMRyJRIr+KxIqSEQKEACFACBAChAAhQAgQAs8nAkSBbZcC02gFXUVlg7sJWDDuf29zUNFZ+/M52na61RXCBh1QGgWm0QpOwfZJw5lV34L8d7sua9aZC7VCqxVmawaBKePy9pr8bK5Bc/BLzzyX5pHvxvnqnpX6Y2WxApPsgKzm/zwhnROU/357Kdbp2mDlQLatUmAardDpsgIPxVXxX6ejy+W7EfJwuA5syrhans4nn8wlPz6i4IzfZTX/1+moPP3T+eSvL7S3O/m2Y+/odPofHg4CS8hlV3R5hhl3KKDV6TtOxrJLOXFF4rzY3/CbvEUVJ0P0eHtuWSFjISOvnbMC02gFwWDonukBFoxthbgi5h7m2k905JvQlrIsc0aCHBr0SAgQAoQAIUAIEAKEACFACBAChABRYKXoWkrjRm+uqnE3BVoiHWssWMznD1mstdvX65TqKpfMB7mckikwjVao1BmmLLFPGs488knHEr/0zC86pnqNfp2WPeiqgJ5Oqx8zhz9zXeboLY4C02gFr97xnuMwEGFfe6//g/N4h8Fj0pnKSIFJvEOF/nLC9fm59sez0lnCb+cSv70Ue23Aq2gDVQIFptEKDdWmH4jBb67FgZD66kr81miTzWQorzv8iMPyw8PrtQAz9Xg28fm59ssJl1DgrlWhQj/b4/7V+fbHa7dGPp5L/up8+6t9HsW2s7NMqNDf6PWAuzSWBdsTCgwEq29rHHhtIPNA8hmfW85N3Em1Hm2rtJhYseVhrU7fNOSfuJPiiKc9ocA0WkGr0ztjLmyIuCJOfjDZPdNj9SifLJa3iGIIAUKAECAECAFCgBAgBAgBQoAQ2A4CRIEpEBnbAZTyEgKEACFACBAChAAhQAgQAoQAIUAIEAKEACFACOw3BIgCIwqMECAECAFCgBAgBAgBQoAQIAQIAUKAECAECAFC4IAjQBTYAe/g/ca5kjyEACFACBAChAAhQAgQAoQAIUAIEAKEACFACOw+AkSBEQVGCBAChAAhQAgQAoQAIUAIEAKEACFACBAChAAhcMARIArsgHfw7rOqVCMhQAgQAoQAIUAIEAKEACFACBAChAAhQAgQAvsNAaLAiAIjBAgBQoAQIAQIAUKAECAECAFCgBAgBAgBQoAQOOAIEAV2wDt4v3GuJA8hQAgQAoQAIUAIEAKEACFACBAChAAhQAgQAruPAFFgRIERAoQAIUAIEAKEACFACBAChAAhQAgQAoQAIUAIHHAEiAI74B28+6wq1UgIEAKEACFACBAChAAhQAgQAoQAIUAIEAKEwH5DgCgwosAIAUKAECAECAFCgBAgBAgBQoAQIAQIAUKAECAEDjgCRIEd8A7eb5wryUMIEAKEACFACBAChAAhQAgQAoQAIUAIEAKEwO4jQBQYUWCEACFACBAChAAhQAgQAoQAIUAIEAKEACFACBACBxwBosAOeAfvPqtKNRIChAAhQAgQAoQAIUAIEAKEACFACBAChAAhsN8QIAqMKDBCgBAgBAgBQoAQIAQIAUKAECAECAFCgBAgBAiBA44AUWAHvIP3G+dK8hAChAAhQAgQAoQAIUAIEAKEACFACBAChAAhsPsIEAVGFBghQAgQAruNQKfL+sXFjm/nEv/2QsRRZdz9pZ9qJAR2GQF7wDF+ezy3nOt/dcBgM+9y7VQdIUAIEAKEACFACBAChAAhoNEKRIHttupLw44QIAQIgY+mQk/nk0/nk3+ZTZyNNRAghMCBR+DQXK+4IoorYm4p1zwcOPDtpQYSAoQAIUAIEAKEACFACOxDBIgCKz8FZnc0hKLxlkiH0Wzdh11OIj0PCNxL+Z/OJ/8005kNOZ6H9j5zbUQK7Mlc8lJn497Kb/XYU/fS4oo4+vYomOfIY1DC+PmERGQsi23HOzASAwabefTtUXFFnLiTqnbVYPxWA64ub+ZBRlwRA6kQlxer6LvRz/0JH8NTretsy8Oct68J48sVqLSYWo+2jd+eyC7lxBUxu5QbfWcsMBHUCvpyVXHwykEKTFwW/WMtig3Efo+fTygmYCMxMfQ1/q8yMNjsWw1jdVi+PGarZVL6/Y+AvJflMWwr1lfINbYXxyQb4NY0XNDYNFwYV2a2oj0MQxtT99JWj31PxOi70S+uiJkHGVeXFwSQx+yJYFQpIUAIEAKEwDOBAFFgZabA9IYqfygaisYdjR6ttsyFPxND6rkV8nR116pv4QvPbLBy7416tkOBlZC3hCzP7TiBhvd5a35zMfbtXOInx1td1j0+FCYnvOQx2F/VrpqJO6lCJFcwE84t5cRlMTIVxSwlBFDJ5NRFjVZAjRGZCK58rU4P6hCokcWQKVwJ6o/VnpqRt0Y4HRUepSN+1ir17Afgr6AAs/pnMY1yhBvGb0/klnMDC4Om2mrFLNjvxfQaJub6otDAUKyx+EisDsuXxxRf2rOYcn+u81eSLrCovZJ07QSq8l6Wx7D1EgXGorFDYTnhJY/ZoaqpWEKAECAECIEDgABRYGVmqeqc7lA07g9F9YaDrwgdgAlQxiYQBUZGZ2UcTrtZFJJKaGugQoFptEJkKiouKxiCycspuRWoZJZAgZkd1ePfHxeXxfHbE+KKOPidoQqDoWRJuIyCwTDw+qDEuSyLIzdHA6lQbag+lIuMfW8MiJjklS6t7oDbgpVGgXFIKj5ivxdDgQkGg8VVY/XY4VcXdo7eknoBKSrFKkqOxEmB5aO0GFNy4c9ExueTAttqvxtsZhyTrUfbJCvRD7PNowGM1FeZ2O7GZXPg9UFMwwWqnLZ9tarsuRWYfAkiCowdVBQmBAgBQoAQUEeAKLByUmCVRksg3B6Kxu2OvbcDUu94+mvZESAKjCiwsg+q3SkQdTA5BabIH5nrrcD4cKcdw4dbxWXJ01OhY27FNwfJhRIoMMibWcwkLiXFZTF1L23z1hZftXpK9yFf9sOsuCL2Xu8TGGat0mIa/M6QuCKm30/bWw746WO5/qkOWvF/xX4vhgLjisVhvEOElAoV0nW1mxPmQD4SBQbdiqN0034PpELceT35wNjpcSuvcfsx+5YCm/xgsjZYv/0GUgmEACFACBACBxsBosDKSYE1uHyhaLwpEBb0dMVbOYEtZhIaTZZIa1S/d8gTBUYUWDEDdR+mQR0MKbB1Q6rCBjV44BE9gplqq8dujYsr4tB3hyoteWYOJTQZlcwSKLC2FzvEFXH8++OevqbM/UyurO7AYqfjkk67mHV28KeuvH1NuYfSIdDtM4AlILabWYgCA7Rrg/WTH0yKK2IJhN1u9le56iIKbKv9ThRYucYeV458Ceq62i2uSB885O7JQuFWq21vfJZxYtMjIUAIEAKEwD5BgCiwsjE1RrO1JdIRbI1V1xxwE4B9MnZRDKPJMjQ0fPXq1ePHjxuM6+dPe03+Vd/CSv0xr77u7+tf+KPvxt/Xv1An2Cq0ldes/V97r//GPXfB2lOhrcRyMFCpM0xZYp80nHnku7Hm3uulN+wpr8AbkpgqjCv1x1Z9C5v+ek1+LBwCWq0QMTS+5zj8heclyP4L97RiLVzGIh9ZXWWkqfbT09HHc9L9g99ci/9ADDZU5zEUjirj52fbwJ2K+v/obKWELNIBOoflqyvxp/PJT45FbCbDrdGmP1yVHr+dS/ziXPuLbU5d+U6QCRX62R73r863Q8MfzyY+PRWdijhUqmCBejSd+EGuxVFlAiS/uhKPOCws+J8cizydT35+ts1RxfPd4JtGTghCURzCiiVotEJbfTVg9dMTrUa9wig90lr/55cST+eTt0a36+5dToFhTCGDmkqLafhNyR8WGoLB6cjsh1lffzMLVGnhkikwdATWd6PfXG+VTkSWlaFQUbTqWp3jt8fT76WjL7TLW+1obei70T+5KPn4F5clY7Gu6R5zPX9lCpgaZR5k3Id8Xde6s0u5yfuTwKn5x1om70+tANQjAAAgAElEQVTmlnND3x2yNdWxVbAKYX1b49Abw+CnP7OY7ZruMdrzhi6b0eqxd8/0pN9PSydbV8TcQ2W//jgeOK9b8keOsgTBuGTItLKSQBj7PTzVarBWdV3rzixKNnfZpdzQG8P1bWoXR6CQhQYtV12lxdR+omPiTiq3LN1pkHmQ6bvR72gtaMEttwLDmPJSYAO+mh+/EP7jTCesFd9ci//wcJBbf9i22EyG1wa8v7kYw7Xu83PtpzqcQoXCgdydfjWwgnU4q390JPTNNWmRfzKX/OpK/O6En3v7QPpsyPGntfbeS0kJfiAGH01Lixus2yNN/MsXll9uLZU/3kvxb15WvCLD2Ms4rjBm037fbxSYVtCHstKpbVgfcg9zw28Me3p8Kqcs+fXkWrfBWgXzWpFvkqoQI+vTallM3U2FshGj3QLXpCCGHPj1bY0Drw3AFSi55dzEnVTr0TaVTynsigdFqYiUy4nXrl1LpyeJCONgp0dCgBAgBJ5bBIgCKw8FpqvQu72BUDTuaQrqhLL5nXlux2WRDUfya2bt39Fjx/SV6+QOUGA/dB7/wDGFFNX7dYezVW2PvBKxtepbeOS98WJ1J1eXU7B90nAGs2Dga+/1I5YYe8VByRRYhbbypZoBFAOrWPUtfOmZHzQHOZFKeEQ95+ZwE+gSrHrw6wvt7c4N3bsEPquELCwF9h8vRv7laJgVCYiwd8ebVSiq4nFwWc3/dTrKlQ9q2D+IQbMSozTb7X48Kyld7O9nZ9qWsy1P5yXljVNBd5oC0+n0P35BgugPV+NJ10ZnIQjQxY+mE6P+7X7fRu5gYGEQdCGMKaSxaLRC80hA0qPWrobEo5F9r/SXxfEWUiEcpbKpO/yqBuvEHckFWNuL0oWVfa9IF4cpHudEJLcUAI8zirpfoXK0On3r0TbJQEx2SVzm/saNZpAdtOvMg8yh2V6gpSR25n4mkApJRNXfShi5uX53J+RChbD9RAdwRpgSaEp7QOHDTGAiCDonm1gKL4u9L+cd88TxwKf8mzwYz/UXCIZ/hUAxFFjkSFR+50DuYS6YCRfCGYVUGbSY1x5wwK0OnGzZpVzHyZgiI4DER+eF9dsqMWZTKgTrVQ/odPpbo03AZLELEZBBs91uefaww/LzMwofMJ7MJT8+EpavdTv9akAJFVfUp/PJr6/GJlt4SgspsOVsy89kzfnTTOflRJ7R5Z5QYCX0+76iwEy11UNvDnMDXnpcFrtnethj3diJkrWvbOEaeWuk65qyyVWFwdA13YML13pdy2LiSlchCkyr08fOxIGG5mQb//44x/WjYLCwpN9PYwIVCiyTzcIWkYgwBJAChAAhQAg85wgQBVYeCsxitQdbYy2RDrPF9pwPqd1pPkd+nT9/vr0jXsGQj0CBfea6/E7tZMTQeNF66Gvv9f/2zP248cywORQzen7qurDqW/hx4xlrxYaJhKnC+NBxRGLHfDe+Yx+LGT1uvX3KEvvUdXHVt/C193qfKYANrNDqY0bPsCkIv7dq06u+ha+8L5+u7sJICNQKeRTGYUsH8F//7DyVroq69fYmff3x6sSv3TOrvoX/577m0yvoq1hvMQHQc1ZfSnx1Jf7FxY6Ffk+ft+Y7/d7fX4mBZvVPfxdCssmorzzZ7pztccPvJ8dbQeO6l/JjJATa6tfvcSshC0uB/c905x+nOz+aCo367YfDdSu5FqCf5JZTxTSWS2PUV358RCKPnswlPz3VeqmzscdjW+j3fHGxAyLfHefNlGIN1i/XkHk8m/hoKnQ4XDfqty+mA4+mE7+5KCFWFgrMUWWMOCz4+88TEs6FrMA0WuFal+vJnNSKa1156p9GKyAF+dnpNptpg3P/3htn/uPj19V/s1cPc4jJuQN5DJdFoxXQMfzY98baT8XEZYmpcbar2enICykUUzIFBhnxssLwVCucjimXO7ASKDBffzO4D8ssZhMXk84Ol7vbe2iuF3TL1N0Uy08Bq5L9MDv6zlgwEw5mwun3JOYrdTfVPdPj7HANfEdyxp9byjUPb6xFoP7lHuYmP5gcvz0eykU4J/1yatLZ3pi5L5mkgVTubq894Njw67/GbGLvVBgMvkF/MBuG38DCmgwPc/HzCYyEAIcz6xrc6rHDTQLFUGCD/2cos5jtvJBwhBt8g/6+6/2gJE+8O4FKL4oHgWIGLaYcuTkqwbic67ve7xv0O8IN7Sc6UvckqLNLuZZ0iCtcoxXkhJc8Rp5rSzHXulzAfz2aTiymA7A8Lk4GwELq0XQiE8yz/jPrK2EZeTKX/NmZtitJF7fW3Z3w4zoPkuz0qwFqyQTr4NPLo+nEnbFmaMhHUyFY5393OcZ+g9FoBaTAfnMxhm0/G2v49FTrkzX75d9eioVqN97UUxEHvpt+IAbhpfYDMYiREBhuzvs8UNryKO9leUyhXt4hCgyK5Qgj7pGbZRUGQ+/LfVKaZemsun+spTZUH5mKjt+W7GTFZTF2Js61osZfl7orXf6be5g7NNfr7vY6O1yJi8nMYhboafmXgPXvIn9bVZwdrubhQP+rA5OLGWDw5fR0SzoEJmnpe+nosTZHuAGywHznuH6UUE54yWMwcYVgiMU6L168SEQYYkIBQoAQIASecwSIAisDBVYhGHz+EJiANbqbWiIdoWg8EG6rb/DqK83P+Qgre/M58uvcufOt0XZul6/RCkCB/dI906SXfKNWaPXfr8uu+hauWvtApEFzEPgmr35DqRg1hx95b3zjfWXYnKcC2SqqPnaeXPUtLDqmKnUbjAPbuiJ9gRl1xof1RxWLihgav/DMrvoWTld3sSWXEAY95+l88udn2lzWjUHoq6n61fl2FdsijVaAvFtio4rMggchH88lZ3vyLBqmIusHYVZyLSW0l82CJwTfT+WpfzaT4adrrNPvLseCdRvalEYr3Bxuejqf/Mts4uVeD1vU4fC6IlcWCowtWaMVVOzIICWehfzxC2FuhI/67aBhcqcgS9PxKgwGcOWO+kmRbMK6b/hliUoQV8Se2UOK5jNcw4t5LJkCA0dgE3cmqhok3rkx7s4sZjjCqBgBCqXZKgVWYTAMvCYRRpPvTzqieYfs/OMtoPslrmzMd9SuO07GQAZg8ca/P252SAS0rakOlEkwc4M0oP6JK+LIWyOm2nWeGmhKEFjuJbqQUzNTbfXoO9K9ipwKzQIC1SHPyP5JPQzCqJSM/T55f9Ld7WVLC4mR3JI0zMJTrWw8hosctBqtgPc2hMQIZtdoBUujDU7ODr85Ij+EhQ7y0OYLOwtj2NK2GraZDJ+dluy5fn8l1uupYbPjQvTR1ManC41WwLXuB7kW9tijo8r46ZoZrNyGdBdeDUZ95b+vfUf5/ZVY0pX3UfBUh1Px+DZSYI+mE4fDG29knU6/tGaH+2Qu+Ur+4oz4wMHzp/NJPKePf+ICpS2P2+n3/UOB4T0enecT7CqN93hMvDthceWNOlhLc0s5bpq4u73pNbKYo8BwrcssZtnJK9l5nesE0zB8xUDXoAfJ0XfG2IULLGdVLlfBbxvo+UuFAoO6KgRDe0f8/PnzRIRx84IeCQFCgBB4DhEgCqwMFJjVXheKxhV/LZF2i5W3+X8Ox1lZmsyRX2fPnlUkv6AuoMA+dV20V6wrhDftKZZdClY2fOGZ/cIzG6zc0Etft4+v+hb+qf5Fs26DNoICJ8xhOWXGtqtICozNwoXxZOVNe4r701YfQc9RNCB6tc8DRl7Ho8oXJxXJZ7EiFZkFKTDOdkmysDCu62yfno5ajbx3LbauTcN3xpoLcXzHo/WPZxN/mU2cjW10ukYr/OuaY69fX2j32vL6HU8j7gkFhrUX4uzkpyAdDnuTr1H9V1OTZ5O4KZ4qCSoMBjhpCBRPXdipknhLf0IqhDtYp34QUqvTg4ESnuiUq69bEkOeeKsUmMVVA+qi/PI4fZVp6A3pXNLIWyOV1esDD1kVbDho0UgbIdHD0i6g/inexdk8HMgt5bZEAm6qTO4CBdYzz9OpeMT10FyvvF/UBwaXHgbt2K1xVuuGNKBaZ+5n1P2OcQWW5bHbbQO3WXIPVjqdHoxzuTUK1rpvrsW73XlMk0YrnI01/GU28WQueakzzzBT5dUAXwIezya2+WoI1lnA3PjDDP89w6ivhO8Q3DqPFJic7h9utv9xWnKLVujrSPEU2C4vjxqtsCUKjDPjwkec+zjM9FUmq8eu/qty2liqCyhvxftq4R4P+RIB0wQ/J2Dt6G+Ro8Bwhvbd6Gerloh7by2YWHIUGHyiEJfF8GGe18alu9B8R3m2FCAibEtwUWJCgBAgBA4qAkSBbZcC00kmYOFQNB5sjTkaPHAXpFanr6quaW6JhKLxlkiH0Vw2nfOgDsRN2+X3t1y9ehU+3506fTrQkvcxXJ69BAoM7bMUGSigzL7xvtJpzLNNwKr3IQWmaMkFNJDKN/Mi+SxsePGGY0iBfXIsz/gCilKxinJbTXh+kA0E6yxyZzfAZykeMEQBbg7nuZBXqRrQ2BMKTKMVXun1PJmTzNNYzg7pQjmTyHbK7oSBYRFXREXDGVYG7kwcq7/pq/LuZ/iriVxpFBjqYKyFFChyQ28My2sBOymLq4YVBsOmfFNBaMtWKbB1HW9FVHRidWiud81X17rNGnvargQKTNEsSwVJtnfY8H6gwFiCD2RD7o/TolHyTRNAyspqMxzjUiwH4JLTAVjLzgWQBlK0Zhputs/2uC91NrIHn9fXunPtTtkMQuaIW+tUlvdyvRrSgdr/XfNtr9gQEOC3lzr89vW7a9iDkHL6z2sz//qCZLms+NbQaIXiKbCd67tCJe8QBVaoOpV4WAblbBq75rDLpuRI8YbkSFExi+ISgfR98ZPXP9YinaB/wLtEhIaAAIWWbpXGbvonnU7f3h5jLcLinclNc1ECQoAQIAQIgQODAFFg26XAzBZbsDUWisZrankLiMpKc3NLNBSNN3r83DexAzOAdq0hkUh0ZmbmxRMnmv0t3KEwRRlKoMDQCOt2XdZeUc39uoxNv3HPrfoW5Nc7ggBbosC8esd7jsNfeuZZX/gYVuTgFJtZKFJFz1FXtIrns9iqVapjkyEDpajMqPBQ8CfOP/TT+aQixweJf3Gu/ZC3huXLIg5LOlALd1ByipZK1dC0vaLAki4rCPzR1MbJXBVrERbtXQhXWkxD3x0Ca4Xckpqrco1WAK0JTRvYANI9KLMKcaPCdLi6vdkPs9kPsy7mDB0emeHcVEFdWBErD4QVKZKtUmBYvryNiAlrTIFqJKYv3gpMUZNUEcBot3RN90x+MClvOzhQw0NG2C8Q2AUrsOK1aJRNZWBgGtZYbOD1QaQ7MdA8GgDHbYg/m3dHw5uuzPLaVRYuXGy5tU5lrd5UAJW8rGxYzmsDXm4FjjgscLCRW1ExCyct6/dQ8a1xkCgwxQFp9dg5ey4W6uLD63zWrbG6sBNHOwQa4244W81Nul2gwGBxy36YbR4NcFIV4zqw+OYrptTp9OFI9MyZMzMzM339A4ppKJIQIAQIAULgQCJAFNh2KTBHoycUjfv8YcWLIO11DeAXrNK48cHzQI6knW4UUGAzMzMXL16MxTpZz/eKVW+HAkMqSjGwfQps0BwsRH5BjUSBcX1aAgUm58vYGE7RUtEk95YCQ6867AEoOMqqSP9xuO30o3Rf2FIuu5SDiwUV7QVQhl2gwDhHYFA1cECF7HqQIZLTQAebAit0JSLiwBJz2IkQOBgUGLZUMUAUGNfpxX8dQT6LXXK5MFFgCG+R1C2mLy0AfJbiUMfIvaLAUADFgPprpTQ0IFejy3P02LHp6WmiwLYDI+UlBAgBQuBZRIAosG1RYLoKvdsbCEXj9S6fYvcbTJbgmnd8uilSEZ/iI40my9jYOJ6F3JQI27cUmFOo+cx1adW38KVn/qK11623o7lZo2D/x/oXV30LRIEVPzDkKQvxZawO9qxQYHgWEh30ICmmeNJzN53dmOutY9+T/KYPvDbYMhGSXJUvi5GpqLxHSohBZkrORBTSGNERmKIeJa6InIJXglR4OEiFHuKKVWnIHlqBoeNquB7O09vEmmAkr3Q9D1ZghcYJxMsHHtezZX9E5kjx/KBidSrc/X6wAmOXXC68JxTYbi6P0F9bOgipyLkr9nsJvsCIAmORbHR5jh17Aciv6enpbDZnq9m4hIFNSWFCgBAgBAiBA4kAUWDlocCcjcr+oSqNlkC4PRSNEwVWlvlTZbFyRFgi2QX+17jyt0OBlcZAFXkQUqxqX/UtyC+d1GgFPIlZmgAsAionVjZVtFTyslWw4SKzoFameKRFRZ1j69o0XEI5Kln21gpMoxXwLCT4lsZrIjkWD2Ap7cqzTSFVTNB2vENcFrMfZt2HfJUW0/CbI2turVLV+deKKebdNFKFOSpEgaEjsELURll8yoAm+axTYPVtjZn7GXFF7LvRLxj4K27ByEuljQfDCqx4xmHT4VqWBJuuzPJaVBYuXGy5hUJlrd5UAJW8rGyblsMmhjBm4aQt70HI3VweoV07RIFBsYUWOojnjKdUTjXKuwNiVLIoLhF4iFv+saHQol0MPoXEKy3e62s+ceIkkV+loUe5CAFCgBA4MAgQBbZNCqzS5ZOswAp5+wJPYcHWmNG8cVH9gRk9e9WQYoiwEigwdXf4mza2SAoMLp1kr6rEkokCezqfVDRuQoiKCai4wy+UXUWTVKfA2POJWDhcrPa/M53pgNptsCqVYlEarYB3qAEy17pcT+aUnaBptMKu6Xg1/rrU3ZTEobzSX7HGoTSPBLJLuXIZWyEFJvcij1RX3yv9LFDr95o9zAVSIdamyeqxt78YE1fE9PtpW9N2P/V3Xe0uZCFV1+ocvz2efi8dfaEdBduf7vDBC7W4IiraOinqt9giNF5TdD3GJpOHVZRqSIz9XrwWjbUUUrMxAQTU3eFziXfzEWkgRSuwXXCHry5A8Qch1d3hK0KKVRMFpogPF1kKBfZKQd/2XOH4qDJbFZeIjZW56Bsh1d3hoyRlCXh9zSdPnoQrlcjyqyyQUiGEACFACDy7CBAFti0KTKMV6pzuUDTuD7XpDQrevuCvzS2tgp6/8uzZHTT7RHKOCLt8+XI8ntBVVIJ4JVBgGq0A/NRK/TFThZFrpl5nsFdU2yosFdr1KrgEW6LAPnNdqhP4a+xtFZafNJx7Hg5Cyq8yxFsOPz0dtRp58Dmo1R/vjDU/nU9+dSXeVs/zzmZ9ZbDOEnFYuCqANZPzWTqd/scvhKG0iMPC1gvU2B+nO4eb7Wy8Tqf/aCr0dD75+yuxoNKVgpi4SApMoxVY519Q+C/Pd7isZixqlwNanR7OymUWs84OF9QuGAwDrw+KK+Lk+5N1Yf5ukK1KaGuqAw/NXVe7ubxowcSxJOAILHUvLXd7D27yC7kD48pXf4ydjosrIttwTL9+Oeay6B9rwUiLqyZ9Ly2uiPKG6KtMQ28Miysia56GlhRIToG6izYdSPSwzQeNNLeUY6sGGUAqru1IgckZRq1O3zN/qBDNB2VCdTtKgfXMH+LukEEF+9BcL8LLBhCZTc27VG7HgyNmFleN3DiOrWsnwnjNBdh7slXodPqfHG99Op/k1ihY6765Fu9282+Ts7GGv8wmuMtk1Wks5KEUOTj1vKy0wTrL76/Ens4n5XyWRivA9b7N9ir2WhusWp7FUWX8/Gzb83Aj5KbjlgV5q2FYuBSXR8FggFtxuTtzYZpM3Nm4rxYq1er0wI5xhqIVBsPgd6TbUTKLWTdzIYlWp4+d6xSXRTA7ZSVf/0KwLLakN+57wVqqnDarx654My9byKbhpubAqdOnifzaFChKQAgQAoTA84MAUWDbpcCMRkvL2lFHly+A/AsMoCqLvWXNEZij0aPVbrei52dQbqmlLBF2/Phxw9+uHSiNAhs1hx95b3ztvT5kCrJiVGgrX7OPrfoWfua62iDkUR6YbNAcXPUtfOV9uc3gxkh5AA5CPvLeSJkj7F91Wv3p6q6/xu85BTbb7X46n0TnU6yQhcJFZsGzOasvJWZ78lB6sc3555cST+eTK7kN+qBQderxR1rr//xS4slc8u6En9WydDr93Qn/kzmFpoHd1l9mEy/3etjCD4fr/me6U5ECg1qezif/5WjYrN9gRQ+H6x5NSw359+OtRiaeLRbCxVNgqBvfnfB/fq796XxSriTLy9+5GGf7+jG6ntk8nsLX3wy36XHxJUiC9FD6XtoecGAJyL7lHua8fU0Yj9oXSyfhX5E96byQwMjSAu5DPmhj7/U+liWptJhA/Uu/n7a3bAiMXrcm3590RBvYSkPZiNxubjsUmLgsDr85YqrdYH43eMkPJmuD9Vg70ogDrw+yrdBoBU9vU2Yxq06BBTNhcUXkugALVwmo2JVALrQC47RojVaITEVBiw5PtSpWgWMG6ULFZBqtED7cKp3hXcqFsnmLsGAw9F7vk2jcfLgKlVPeeJvJ8Nlpiev5/ZVYr6eGLRxXlY+mQuyahqvQD3ItQoUes7is5p+fkYqSfwlQOcyIPFQhCqzIdR79Ff735Viny4pSabRCp8v635clduynJ/KWR6y6BApMDDtW194dr/blrd5svXsVLuagX/HU7XZasb5wLYuxc50suYz8lHw6w0eF3FIuJOZNE3e3t9ASgbbAmcVs4mLS2eFqHg4MvDaYWczCJw2O5jPVVo/dGhdXxJG38hYuiSr9Wy3yjwdbxSGXE2dmZsjya6u4UXpCgBAgBA4wAkSBlYGZqquXDMFC0XhTS8Ra49BXmozmamejNxSNSZdFBiKKzqoO8Kja/aYBEXb06LFtUmCmCuNDx5FV38Ij342btalOo9cp2IZNwYeOI0BOvVwzVIjNbNLX/9I9s+pb+GfnqQlzeNgUxF+tsKEGoDv8r73Xr9cMhw0Nbr09XRX9kfPkL90z4Cl/b32BjfrtQOJ8cbHj1T7PbI8bf3K7KujrIrMgBfbZ6bY/Tnd+NBUa9dsPh+tWci2PZyXa6NF0IhPc7lE1o77y4yOS6daTueTPzrRdSbo6XdZLnY3/9kLk2zmplk9PtdpMef6PYg3WL9fMFh7PJj6aCh0O14367YvpwKPpxKenJOMLznmzRiuY9ZX/eUL605M5qcCzsYY+b80HKT9A96eZzqnIBg8C6cEALeKQzNAiDgtk/8W59kPeGowM1VpYVRbgxbOQvzrf/j/TnX9+KXGkdYPO2OXpVmEwgHWA3NoL6Z4S7IPkrWhJh4AhSt1Lt5/ocIQbQJsCHmTou0OVlg3TWiS5FPUldYJMXrVKDJJK4rI4cnM0kArVhupDuQjcDCCuiMkrXayGyepyqBa6u72H5npzD6VzoxPvTrDHM7dDgU1+MDl6a2z89ngoF+Gk6n25D86rQtOwp0D5DKRC9oDDP9bSd6M/t5Qbvz2hToE5O1ygA4/fHg9PtQazYfyxJnhoXYLnUsFOcPTWWF3YiZHVrhqtsE7fIAWWei+dWcx2Xkg4wg2+QX/f9f7csgJcXE91nJROvIrLYu/1Pke4AauweuyshYvBZh65OSqxeMu5/lcHmocD9oAjlItIkWu2KtvncDnBiny81uV6PJeElXAxHdh0eTTrK//laN5a1+OxLfR7vrjYAUvTu+PNXNXbocCKXOc1WiETXP8S8Gg6AQ0Z9du/N9b81ZW49H1lLnkulkcHb4cCC9ZZfrdGq319NfbmsA/fVrM9bs5El4Nihx4NNjMOvNajbeKK5DCxeTSAkexQ1GgFpMAGXh/ENFygymnjVpWtCl9hMPS+LNG7uHDBlO9/dQBmFreiarQCnnbPLuUOzfW6u73ODlfiYjKzmC20REgk8st9MIk2XJUtSzawo+9Id6dwFJhGK8jXeXe3F2qRDMruZ5ztjVttLJc+m82Rw3sOE3okBAgBQuA5R4AosDJQYFqdvq7eFWyVCC/u19wSMSgdkHzOh90ONb9C2OA1SrMC02gFp2D7pOHMqm9B/rtdlzXrCp4+02qF2ZpBYMq4vL0mP9vkQXPwS888l+aR78b56p6V+mN7bgWm0+l/eDj4ZE0T467xKmQdUGQWpMAW0wHQ3Njyv51LvDvezNo4sKBtKeyymv/rdJQtHMO/vtDe7txgJLHY2W430HCY8um8xKAtZ1sUKTCNVmh3Wn99QbLJ4n6PZxNzh9xcQ1DH4xJzj3KuDSSEs5CQeG9PQaKpl5zr0WgFpDDk5kUIdZEByTzhTBzUsw1takU6TTNxJ8Wahmm0AjgCE/MPIbIVwTmgsrgDq/bUjLwl+f6X//pfHTBYFU7EBzNhILy4LJn7GVdX3lUq26HAUvfSwckwkFNsRXK4NFrBHnBM3JG8uXG/oTeHVfydAaRanb57podXdNeKwvOb7GDgquAe2eNUOH66rnXLQc49zMlPbrK9bKqtlueC6ljBVJov3XD6+iBrSceWv9NhnU5/a7QJWDBuZXg8m5jtzrOcBWEKrXVP5pIfH8kzUIX026HAilznoSLFFRX4r1ujTYWWxxKswDRa4Y0hH3ze4ECTl7bTPYie8rhBzj5yQxEpMDYNF97UsLGYdplqq4felE5ey3/j3x9niXgsTXHhGrk5qrJEaAV9SIxM3ElJS/eymLqXjhyOmmqrR9+WSGc5BaayzmceZAITefb4KNiWAtz5jC3lpcSEACFACBACBxIBosDKQIHByDCYLA2e5kC4bY0Fi/n8Iau9jl69ezVtSqbANFqhUmeYssQ+aTjzyCcdS/zSM7/omOo1+nXajZMmiu3SafVj5vBnrsscvcVRYJLGrne85zgMRNjX3uv/4DzeYfCYdKb9QIFptIJQob/R6/nDVemLPfsrRIEVmQUpsJVci1lfeWu0Car4di7xi3PtL7Y5Ob1IEeQiI4UK/WyP+1fn20GffDyX/NX59lf7PJz9F1vaSFPtp6ejaIXxg1yLo8oEGmMhZspmMrw94vvtpRgoYH+a6fzxCxrNo+8AACAASURBVOEBX94hJqhimxQYnoXc21OQlRbT0Hclby+pu6kav4K9HnqSyn6Y9fXzFigs2sWEtTq9p8c3/MbwOn+0plDFznUa7Xl+2VDtzNzP1LcpmwwousQqRgbFNJUWU+vRtvHbE2Cnll3Kjb4zFpgIojWTPJetqbbvev/konQPI2iGiStd8oZshwKD43t1rc6hN4ZBsMxitmu6R14LiGe0W7qmeyY/mESR2k/FKi0mRV/XXIu0gj5yOAqHm1iNmlXvkc9iE8jDihRY/HwCxANGL7uUG3pjuFDnsrKxudi6WMEgfaXF1H6iY11XXzvXOfzmiHonshXtXHjAV/PjF8J/nJGOYD+dT35zLf7Dw0HOFyFbu1Chnz/k/s3F2PpaN5v47HRboeV0OxRYkes8ytbhrP7RkdA319bfI99ci398ZJPlUU5abeoLTKMVdDr9qQ7nby/FuC838tJQtp0LwPRhxx4X5obirlFgGq0g8VNZyWQVF66x741F/q6VtajlkKlva8xbT651G6xVxSwRbDnYRjkFBsnq2xoHXhvIPNhYHruudls9yk4n2JIpTAgQAoQAIUAIlIAAUWBlo8BKQJ+yEALPFQJIgX1yLM+3yH4GQZ0C28+Sk2zPDwIl+6d/fiCilhIChMBeIWC0VRU6CLlXIlG9hAAhQAgQAs8zAkSBEQVGCBACu4QAUWDP88uG2r5zCBAFtnPYUsmEACGwTQTw+Dx7j+02y6TshAAhQAgQAoRAyQgQBbZLyn/JPUQZCYEDgwBRYAemK6kh+woBosD2VXeQMITAc4uAVtBXu2rQnb8j3NBxKg7Hmcvi2/65BZYaTggQAoQAIVBGBIgCIwqMECAEdgkBosDKuHZTUYQAIkAUGEJBAUKAENhDBNCbIecBLbuUC2WfGQcIewggVU0IEAKEACGwCwgQBbZLyv8u9CVVQQjscwSIAtvnHUTiPaMIEAX2jHYciU0IHDAE5BRY5kFm4LWBYu6yOGBQUHMIAUKAECAE9i0CRIERBUYIEAKEACFACBAChAAhQAgQAoQAIUAIEAKEACFwwBEgCuyAd/C+JV9JMEKAECAECAFCgBAgBAgBQoAQIAQIAUKAECAEdg0BosCIAiMECAFCgBAgBAgBQoAQIAQIAUKAECAECAFCgBA44AgQBXbAO3jXyFSqiBAgBAgBQoAQIAQIAUKAECAECAFCgBAgBAiBfYsAUWBEgREChAAhQAgQAoQAIUAIEAKEACFACBAChAAhQAgccASIAjvgHbxvyVcSjBAgBAgBQoAQIAQIAUKAECAECAFCgBAgBAiBXUOAKDCiwAgBQoAQIAQIAUKAECAECAFCgBAgBAgBQoAQIAQOOAJEgR3wDt41MpUqIgQIAUKAECAECAFCgBAgBAgBQoAQIAQIAUJg3yJAFBhRYIQAIUAIEAKEACFACBAChAAhQAgQAoQAIUAIEAIHHAGiwA54B+9b8pUEIwQIAUKAECAECAFCgBAgBAgBQoAQIAQIAUJg1xAgCowoMEKAECAEtoWAYDD0zB/KLecm3p1wxly7tnxTRYQAIbBNBLQ6fex0PLuUm7w/2TwS2GZplL0sCLi6vOn309mlXPJKV4XBUJYyn5VCqO072u+7M9/tAcf47fHccq7/1QGDzfysjD2SkxAgBAiB5wcBosC2pfo+PwOFWkoIEAKFEGgeDuSWcuKKKK6Ih+Z6CyWjeEKAENhvCNS3NWbuZ2DyDr0xrK8y7TcJnzd59FWmoTeGoUcy9zP1bY3PDwLU9p3u992Z74fmeqEhuaVc8zAR66RnEQKEACGw7xAgCmy7XWK22ELR+KY/Z6P3+dnGUUsJgb1FwOqxp+6lxRVx9O1R+AYrjymjhCwF1vdKfxlLfs6L6rvRL66ImQcZV9f6+imPec4hOpDNl/eyPKZcDWdV4pG3Riqrt2yyET+fEFfE1L201WPfjlSuLm/mgUTGxc8ntlNOyXkDqRA33UouajsZ82igxUxj3L2d0p6tvNtvO77ptj+KYNJtf2AX2QXbb3sxFW1/vhdTC1Jg4rLoH2spJot6GoPNPPr2KNBq7P+71jvq4u3oX5+Vtkumf98fh97ZiX7R6vSeHt/wG8O5h9IH19xyLn0vHTvXabRbFPHHpWB3tsGKMlAkIbCfESAKjCiw7SKwn8f3bsp2urpr1bfwhWc2WNmwm/VSXXIEdvndX2kx9V3vh4OQjZ3PkcImR149BveyuCdTTy8nPuQx6iU803+NOCxfXYk/nU9+ciyyrxpyL+V/Op/800xnNuTYCcHkvSyPKVe9FQZD/HwCDkKWpqyqU2DFj3miwLBPff3NcBCy61q38JwdhNxm2/HdV4gCA6JTXBEDqRACrhiASbcTyrxidRqtsM22FyqWjd/qfIfZzX6GYUsrFHaEG8ZvT+SWcwMLg6ba6kLJio/HZYTlv8rCvBcvw16l3P9t1+r0zSMBtCbeiX4RDIbumR5xWTpqwP3S99KKprK4FOB2Sx6zV31K9RIC+wEBosC2SwCBFVgg3G6qslYIRu5ntthawu2haNxeR7TIdqHeDxNGRQaiwFTA2eU/4Z6J3v27jLx6dfJ+UU8vVz92jgpRl2RP/vrcUmDPVr8TBbYns4MqVUQAtdxnkQJTbNHeRsrXoj2RR6vTVzltVo8df8krXTtBtexJ69Qr3edtFwyGxMVkbnnNMuthDs4flJ04jp2JA/+VupduP9HhCDc0Dwf6Xx2AeifupKpdNRyM8u0WLg64Meay0CMh8FwhQBTYdnkZpMAqjQrGqPa6hlA03hJuNyr99bkaage+sUSB7Z8uVnn3D35n6Hnzr7yf+0VdNrn6ARTY5AeTtcF69bwH4K9EgXEHYPdnvxMFdgDm2oFpAmq5RIGVpU/l76CyFLv9QtSXne2Xv59L2D9tN9jMA68PgllW+r20q9u7E7JZXDUT706IK+LIWyNVDit2jVanbz/RAdRYx8kYxkOAtsEcIPRICHAIEAW2gxSYTjD4/OFQNN7o8Wt1eg56eiwvAkaTJdIa1euN5S22+NKIAiseq51OKX/3mx3V4Kah7wb56truoldy98n7Rb0oufrRdbX7Ofn0rdEKRIEhBbaf+11d5yl+zNNBSPXVgP5aDAJEgRWDUvFp5O+g4vPuaEr1ZWdHq97zwvdP23G6Db4+BOTUTsgG3mZzSzn5Uf1Ki2n4zRFxRZTf5SJ/9ahsg/V6Y6Q1ajQpWHLseXeTAITADiFAFNh2tUGDocrR4KlzugQ9f5OU2WILtsaCrbEq67a85O5Q3x+YYo0my9DQ8NWrV48fP24wVkG7ek3+Vd/CSv0xr77u7+tf+KPvxt/Xv1An2Cq0ldes/V97r//GPXfB2lOhrZTjUKkzTFlinzSceeS7sebe66U37CmvUMulNFUYV+qPrfoWNv31mvxcXq1WiBga33Mc/sLzEmT/hXtasRYuY5GPrLOekabaT09HH88ln84nv7kW/4EYbKjmxyoWG3FYfng4+Ier8Sdr6R/PJj4/13454RIqeA4XqvjkWGSypfZ3l2PfziV+crzVZTW7rOafHG/9di7xP9Od3x306pTI3w5n9Y+OhL65Jvk5ejKX/OpK/O6EX0UqFK/IgPzdjzFyCqwlHYLPaOGpVsXyE2snDjKLWWeHCxOgvsr6ZSjGY4itqfbQfO/kB5NSxmXJi7bcoalWpx9YkD4txk7HsUbwsMsawhhtVaPvjGU/zLq6173Fs/v1+rbGoTeGs2tXVWYWs13TPYXcpmq0QqXF1Hq0bfz2BKTPPcyNvjPWNOTXCny/a7QCbvvi5xMGa1XXte7MYlZcEbNLUi7vQDPL+CsCxYIGYcWDA2xzAIed2F8KFfrLCdfn59ofzyaezie/nUv89lLstQGvzWRA8LlAQ7Xp7oT/91ekYQ9esT49FR0P1MpHO0tj2UyGW6NNf7gqDfvHc8n/d679xTYnl+VK0vV0Xpqq6r/Pz7Y5qni6X6jQz/a4f3W+HSb749nEp6eiUxEHVwW0ZUtLhKPK+PnZNnWR4K9XkhtzhAOt+Mci+73kaYIDmBuHm3pH4ufUtW6DtUo+Jksb85grfj5htFu6pntgWuUe5obfGFb09lI8pFxKW1Ot5L4Q3Co/zPVd76/21Ki7w6+0mNpPdEzcScHRm8yDTN+Nfkcr7+EBV9rx74+bHQpekOwtjvT70l0lPfOH2IUCDDy5HpEv11xDNFrB0drQd6N/cnH9Ws/JDya7Z3pUribQCvpQNjL2vTFc64bfGPb0+Fhh5LUUE9N5QboYgb0Rpe3FDslx9cOct68JSsBBG8yEsczS2i71yKkYgJlbzo3eGvP2NeHYZq3AFMvnoJbfwwC5UvfSNm+td6B59NaY1PVr76z2U7FKS8FdBLarmICibCr9XsI0QUy4JivOdxzAXGL5I5cd1gEu2aYnzrSCPjARHH1nDCajuCym30+rD2BAVb7sFIN2kWm0Or3U4yjV3/Yq6v1u9di7Z3qkAbnmsqrQEoEy7E7bd26+r++F7qZi5zrRZeFO9AssI+n307amOkQPA/B9SD7ScCTjnzBGPr8Mxqrjx49fuXJlcHCIiDDElgIHGwGiwLZLgRUaH1qt4Gz0haLx5pZWOTtWKBfFbwkBJL9m1v4dPXZMX7m+LQMK7IfO4x84ppCier/ucLaq7ZFXIrZWfQuPvDderO7kanQKtk8azmAWDHztvX7EEtNqNwZMyRRYhbbypZoBFAOrWPUtfOmZHzQHOZFKeET99uZw06NpSUtnf7++0N7u3LCmxvIvJ1x/mulkU0L4yVzy4yNhsz6PLoQqPj0V/eX5DszyT38X+jDTgo+P55LXuniVeLbbDVwDJoPA11djky08z4iybSmAb/qBhUFQbDBG/u63eWvBfcPAa4PyM5KYcfjNEXbTjxtxdsu7KQUWzITXd7r5Pk3T76U5P/qwrTk01wsNx9uyWG0Kdvbsxgi2X5kHmfYTHaA/s+JN3EnZAwr+y6s9NSNvSR8S+d+y2PtyH+7tsAtQo0hcTA68tn4KAPNml3Kh7Ib7dkWgMDEGVCgweQMVE6N4Wwq4rOb/PNHKDUV4/O2lWKdLYZoMN9t/dzkmz/LtXOLd8WaOb0IK7N+Pt358JMzlejyXvDXaxGYpmQJzWc3/dTrKlQ8U8z+IQW7yarTClpaIPaHAiun30qYJDmAcfhDgdFpuIClO3pG3Rrqu8ZaJpY15zNV1tXvkJn/7W+ZBJjBRhleDRitIFd1fJ4wQgdTdVMfpeKEbIe0Bx8SdFCbGQHYp13EyxpFHsAplP8y6D/k4DDVaAT45yC0atkqFaLSCVqfvOBkDJgtFgkDuYY7lmFAMU2310JvDXGLpcVnsnumRr3WYsZhAeKqVM8fAmwHx+wq8UNjvFhqtUELbFRsidcfpOLzOykiBtZ/okIM88Hp5HL1vte0lTJMtzXd84ysMkvxXJLdcwLDnciH7oDh+TLXVeIyOy5i5v3EPsmLenaBaoCKtTh871wk0FicVnMVTdPAfmAjChbZcltxyLnYmzi0RGq2wO21XnCaShOWY7xqtYLCZne2NbAftRL+olwl/lY80HMnFbIP1laYXXjgOmhQRYWyHUvgAI0AU2AajUd5u1huq/KG2UDRe56Qb4soPMkd+nT9/vr0jXiFsWG0ABfaZ6/I7tZMRQ+NF66Gvvdf/2zP348Yzw+ZQzOj5qevCqm/hx41nrBUbpr+mCuNDxxGJHfPd+I59LGb0uPX2KUvsU9fFVd/C197rfaYAjpMKrT5m9AybgvB7qza96lv4yvvy6eoujIRArZCnSB+2dAD/9c/OU+mqqFtvb9LXH69O/No9s+pb+H/uaz69Ak+B9RYTAP129aXEV1fiX1zsWOj39HlrvtPv/f2VddX9n/4uxCreGq0w0mz/47TEfz2aTiymA4fDdZ0u69whyagEFOmbw+vfsUEAqOIPV+M/PBycDNb9y9Hwk7nk6kuJX5xrP9nufLnXA9Tbp6ejVuOGuUomWAfxj6YTd8aaR/32w+G6j6ZCQIr97nKM4+b+Ltf3Hx+/rv57ePdqTU0ewvjuR8JLHoMwanV62IXD526MhwBuuDlXC4LBYHHVoG/a1qNthbRHLLAx4QZaKrOYjZ2OOztc7m7vobleIMUm3p1gP/GBNoWeyyyumvS9dPq9dOZBpu3FDla20XfGjLZ140fYDOUe5iY/mBy/PR7KRWpD9aGcZPIAG9O+V/o5mk8wGNZ34cviyM3RQCpUG6qPTEXHb69d770sxs51cvtX1ChG3xmbvD+ZuJjk2pJ+P21vWR/DVQ5ry2QomA0Hs+HIVDR1V1KkU3dTkakoRML//rEWlmGEBsp3fvIYhLeEgFFfibQUTJMej+1SZ+O/H28FK8ifneGNrXw1VTAjvp1L/NsLkbOxhj5vzdsjPri68fFccrYnb8FHCuzrq7FvrsU/mgodDtcdDtf9f0fDYEH2x+nOkeYNM+G2+urZHjf83hjywWT5/Fw7RkLgZLvTyFDS2JAnc8lPT7Ve6mzs8dgW+j1fXJTo6SdzyXfHmzl8trREGPWVJ9udKMNPjkuk4ePZxL2UHyMh0Fa/YfjTf6jtX//xVfXJ+9Hyy02+PBVCoxXkvSyPgeaUNk20gr6ambzNo4Hsh5IZI6fTsojV+Otg6OYe5g7N9bq7vc4OV+JiMrOYBfqYpWVLG/O41IzfnsgsZmFaNQ8Hhr47BOqo3Ocx3u7HqZ3sI6ca4UqYW871vzrQPBxwhBvaT3Sk7qXHbo3nHubkPL7BZgZKLrcs2Yv5Bv2YBWw/W9J5dwtiQ1gWBsDExXbi3QlLvv9mU50Fl9O6sHP0lrRk4QLO9gWGW9IhoGYQLne3N3GpC1TxzGK2MZE3GSsMht6X+0ABHvrukH+shV/rzmxY3WItxQe8fU25hzk0f6usNo+8NQKLNn7MgMWTpXclOmDrbYcZIa6I47fHI1PR2lB9IBUauTmavpeWU2CeHh8utl3TPTA8uqZ7MBICnKUhvBYzDzKpe2l4NdS3NXaciq9/XFkW246vv4mKh0iecqttx9FV/DTZ0nyvMBh8g35EBsyxcw9z8fMJjISAzZv3xc5gM+MAtnrs8FblZh/bfK1O3zN7CEbjyM3RUC5iDzjc3d6uq93rWwIlH+dYQqElEROUHHAf8sF6mL6Xbj3SZg84rB47uxD1zObZb2q0Au5t2OWx41QcrN2zSzluididtm91vuPayK6f8rDKa0Lx5VVyR2BG9b6Gv8pHGjYHV1F5DFYh0XnGqv7+gStXrhARxsJC4QOMAFFg5WdnYLjU1DrJEf5OzByO/Dp37nxrtJ1jczRaASiwX7pnmvSS2+wKrf77ddlV38JVax9INWgOAt/k1W+YFo+aw4+8N77xvjJsztvT2yqqPnaeXPUtLDqmKnUbRBvbwCJ9gRl1xof1RxWLihgav/DMrvoWTld3sSWXEAb99ul88udn2lxWM5aACvwfrsaT+RYud8aagf8a9W8o5JLJgNX8+TmJBePOXkEVv7scC9ZJHKLXZv71BSnZq30eqO6DlP/pfPK3lzr89nWCxqiv/Pc15fn3V2JJlw2l0miFUx3OP78kWavdGs0j2kqjwCoMhsHvDLEalPq7f/0s5LLIbdQ0WqHjZEzitvJPQbKSQ1j9DJE0Ag0GMJhK30tzplhNQ37YcbIsG2hTSG81xt2ZxczQm8OZ+xnUpqBS/MSH2y/5p1rBYAB9hj1HCZLjfrfrWjd77NFgMw+9IZlLsHwWZEEKbPL+pPtvZzDhT5GpKKjryNNBPPyPvSDfrrHJMAwEB0suqO8FMWORgVG/HTimT45F2GOPOp3+7oT/yVzyL7OJC515R71e6fU8mZNIpdcHfOyyE3ZYfntJ4pt+eb6DnXFIgcnZsYV+qain88kPMy2KAmPeT45tWNUppjzSWg/T5/2Un5XKZjL8dM3GDecpZi9hieDy/mmmMxtSI+tLpsCK7/fSpgk2BAKoVKvoNusn2pZyITGvL9zd3vQ96VgfO0rZ8osf8yhGZjHLTiutTg+3v4nLYvhw3mHtEigwcCsjroid5xMstW0POMZvj+eWFCiw8OFWcVnMydpuabSBg0XOQlalyejXmTsFySIGthWjb0t2cKi8cQng7DY4wUnfS9eFnWwCd7cXaBquFlzruLZXWkzwvpATc2yxm4Zrg/WTH0wivQXfLUZvjaXuptBTD/QyLuzyMhE9lbZXNVgn7kjusUffGWNNcgSD4dD8+jcVOf8IdeGYURntkBLts3qv59kC14Wdk+9LB/nHbo2ztcvbstWYYtpewjThxMASNkUAX6lyXpgrU/4I6Km86WB4yE8Ea7RCSIzklqQzp/INCVZU3lchFotNnrw/yU0r/Fo2cWeiqmHjo6PEZ81LXF7mQQYP/EKB9oADvhxwS8TutH2r8x2Hn5z2YmPUh81O9It6mfBX+Ujb6jYYusxgrOo51Hv58mUiwthJQeEDiQBRYDtCgekqKj1NLaFo3NPUoqvIOz52IIfR7jSKI7/Onj2rSH6BMECBfeq6aK9Yt0q4aU+x7FKwsuELz+wXntlg5YaK+7p9fNW38E/1L5p1G7QRFDhhDsspM7bhRVJgbBYujCcrb9pT3J+2+gj67ROlc4g3h5vAguN4tNg79aC0r67EI44NizmIRF4Mj0qhMyA40sXmCtZZwAxNrvMb9ZWgq3NWY1UWS5OvUf3X2FjP6nJbxUqjFfAsJKcy4fFDbgMnr2JTCgz3fIkrPL+JOxVUkzRaob6tMXNf+vwOTm38Yy3ispi40pW+l8ZksbWDS50XEigPbIbkh4w0WgE9qjYPb1gyarQCFCKnxjCLuCxyTliRAmPZN5ABkUSeDmVjNVv5do1NtmvhV/s84MlLTuW0O63gtGsll8dP/euxyNP55K8vtHtt/BIBM+t/ZzrTgQ3rAKSxcKZg6/z2KmDNfnqilTXpwgSYd1MKDPhrOa+t0QrHo/WPZxN/mU2cjW0sdHgQsrQlAub+phSY0WDyehrUJ6/X3VAhlP6KLG2aIMIQKEYl7nulX1wROd0PzuKBrotTlSsc1apNxzyK0Xejn1vQgFsRV8Suq91s+foqE2t4ohiuctrY0mC+Z+5nOJMfVH3l2j60XZHvALJSXhosRPIvB7gKcUsK2yh2oVChgRATOdeD/rbQIAvKh7bLOX3pE86aAVduKcctj5xg6o/ATCGA8N2i70b/yFsjOHJgJZevnFgyDhiVtkPJ4ooo/9KAo0gOC1SxVQoMm4MSarQCHEBWfGuwybYaLqbt2ED5NIHVQD5NODGwBHUuA3Ktj+QHmxxL5KrAw62bznp5Rs7bpmICnK2Flp1CuYqJh9O7ipKDpVu1q4b9WsY6WWeXGqgLHOQVP1Rwd1FoABff9q3Od61OX+W0Ka6ibKS+Ss0LHgyY8vYLW2aFwSDZCS7n0K8F/FWxv4rpbsU0RIQpwkKRBwwBosB2hAIzVVmDrbFQNG61b1gYHbChs8vN8ftbrl69Ct8lTp0+HWjhz/Fx8pRAgaF9liIDBZTZN95XOo3rrse5GvchBaaoo4JK/HQ+iVwV1xD5Y7kosHSg9n/XfI0pVg21sFZjckl2KAZNtFBRgYpwS83aZynKsCkFhkqL4rYbNjFs7Zw2FTsdzy3lgpPh0bdHMRlsVVmXN1COotJSaN8P+q2iVQI2n1O0VDap6joM/rW82zXFHikmUnFgQ0Y8+jcV2TB0qjUbf35G8gr/k+OtrLEVZDkba/iLjGxSobGQ9pWzY1CgSl6udUDMKZaDhSgeZC5tiSiSAuOE3InH0qYJJ0mhqcEmU7HpYPUTNguEix/zKIZc92OVTHkVW4pRkVZxEYPTfIUMskBmOXOE9hfc0gFL1qbGVgiaCg2EcCmuqPVtjcFsmDtevb7WvT1qkPHXuKZxAmu0AnfmnVWGTWsW0Ig/fjIBkYDtanuxo+9GP7KEYE7IfrfA7BDYZtuxIfJRBOVvlQJTVObXqc+tE0NcY7nHLbVd3sAip4n6yOFEUnmlcim5R5UVg0spf9y0E4ungSSaPv/cNzuAOX4cJFlnyReznH9SuZwQoy6tzVsbzIZbJkNwYWKhQjBevTRIprKIYTkSC7n23UJxs4G1yOc7W0IJ4SJl21LJbJnVrhowrMOT+/BXxWZuqRZ5YkFv7OnJswhr9ud9EZRnoRhC4BlCgCiwHaHA6hu8kiP8YFT4m3f2Z2hM7E9RI5HozMzMiydONPtb5MqnXOYSKDA0wrpdl7VXVHO/LmPTb9xzq74F+fWOUPuWKDCv3vGe4/CXnnnWFz6GFTk4eRtVYlR01GzIAT7v5TxUQ7XpB2IQLmqU+9Vm7bnQigS17mKswLDq1wa8EYeF+y1lJT/6XC0qbSzvn/CwD2sFUPxGX1F7ZCXEbXfr0TZ2DwphOOjEKhvr2tTfLLD6XllXolCbAtsxzq0ybIa2RoHdkMxbFPdPuE3klI1C8Zuab6CGo1gdC9fuhFUoMEUBcJArmmXh8GZnFjJQilk+WbMpw0nEVaqel00M5fziXPshbw03rdKBWjBnu5fKu5e2tCUCKlXJy0q1C+HSpgknGM5NRTIFEqsotKx+wpXMzohNxzyKwU03thAVSkhetWKMirSKixjO2YHXB+ULVyE3aqba6rFbkjNBNFnVaAWWoZBbi7DSYqUq7UW4VHqNLXPDMOfWWF3YybWlMe6GqxXl4GNF7GEoCMvFA44PbvKF7xbNw4H4+QSyhGA/xX634ITcZttVFmeoqCwUmOJQ4RpSwuOW2i7vqWKyr18H8UC6DqKYkaPySlVvoMqKgRnx4kX5bQMwwORtxLwqExnTQACHhHwAKy5Kzg4XnCPOPcwN/Z9h8BnnCDfIiWOufBVpOZHAfhYundy5tq93wRbnu1zULcUU3y/FF8uWqdXpE5e6dtoKjJVN0Bs7O5MXLlycmZmJRKLshXNHgAAAIABJREFUnyhMCDzTCBAFVn4KTNCbmltaQ9G4s9HHXiD4TA+UPRceKLCZmZmLFy/GYp2s53tF2bZDgSEVpRjYPgU2aA4WIr+gxj2hwDpd1t9eUrjnDrkwjpwCNRi1d2QHUP+XH4REjgDLlAe4WhQ7dyci7S0OUIHwqBGeT1TcJnIybKoSqOhRuDFlKTCNVgBtqu3FDjDEAOMv1KaMtqrRd8bQ7wzIo7JfRwG4fb/KTh23ztzWtlA8h4n8EVWUYiCVZy97zAGjwOSziY05kBRYadOEG0iFpgabTGWasPoJmwXCxY95FIObbvuEAsNlSjHArSoarZC40iWuiOwBKDhsqO7hiANNzjEhwgiXvGpMwwWgExXlx0g5+FgRpsGAXDww8oJj4PjdAt4ObS92wAlN7rsFJyQOGHnhmBJFkrd908WZKDAV9BBhDKi8UjGNYkBlxYD00sWLZ+K55RwOJ3lAPhqxLvVlB5Oxxyrl5Su+iFUuWk2/nw6JEY6/3nTIscLsZttLm+9yabcUU3y/FF+sepnwV8WuLL6KQil1On2gJXTy5Mnp6WmiwAqhRPHPKAJEgZWfArPa60LReLA1ZqracBj5jI6P/SO20WQZGxvHs5CbEmH7lgJzCjWfuS6t+ha+9MxftPa69XY0N2sU7P9Y/+Kqb2H3KTB0VA83yh1prWdtSRTts3aHAtsdX2Csu3p0H4OkmMo2FCfITlBgcB6h62o3+BEDewrUpmxNden309wBRtgM7aEVGAKiGEDtboe2a4qVqkQSBaZ4EBKpaqSzOQwBN8W8bMpd8AWGzuy2NE1YIYu0ClFRaNX1k+LHPGrm8gUHC+FokRJ8galIq7iIYdVy/ZmNkXMxeBYyPLXuwh9IMcWLd7kewUq59rLJEC551WwyNrwLKjEcfhz8zpCpthpdgIGoh+Z6Fb9bsBIWSXeqtH1TPoIoMBX0uL7A84aKr1R5YjZGZcWAZDhBMovZ9hMdcPEiGCeq2CRiFSoTGdNsJ1Djr4MzvKm7KbhidX2+y24C3XTIycXYnbZvdb4/E77A5GDCSCj7ngrIr1OnT4P/matXr46NjRtNG+6A5ZJQDCHwbCFAFFiZKTBdhd7tDYSicW9zkBzhl30yVFmsHBGWSHYJeqO8ou1QYKUxUEUehBSr2ld9C/JLJ6Wb0SuMK/XH9oQCG262/3G68+l88scvhM163ju1IlOwHQqskGot78fSboSUl1NMDJyFzH6YdR/yabQCXBNZ5N5XUXtkK93SthsyouNk1KBQXe97pR8iObfKsBlSlLmQACo79UJb20LxbHsVw6jZln27pljdppGKA1slF5o6Kp5qVGSO1A8zlvcgJJpkqjQB/6RCYyk2BDPiIehNKbCSb4Rk69o0XMI04cosNDXYZCrTRF0XLX7MoxjFU2BIZ7BsFBfm5pqKtIqLGMqvwkaxQGEYz0IOvDZYYTCw5XBWJJgFA2xijOQCCNdWKTAOEK7YbT6Cz8fRd8YcrQ2pv11dAgvmyFsjdWFn6h7/3YKrcZtt33RxxjGzKW4w5jnbZJBWcahwDSnhcUttL36acJJsaeSovFK5YrlHlRUDUoKVd+ZBxtMj7TfY36adiNycYu+wRZUrLBgMrr/dfoveSKHwYqTlxNidtm/aBZxUOPy4JZR7VJ84KgssV13xj+plwl/LuKzpdPrWaPvZs2eJ/Cq+jyjls4gAUWB5L57td6HRaGkJt4eicXtd3vVb2y+ZSkAEiiHCSqDA1N3hY+2FAkVSYHDpJHtVJRa4hxTYpc7GJ3PJQj7yFZmCEigwdXf4iAMb2E0KjL1iTKvTb2n/tKlKoO4On20yhte1qbdHI3/Xipd/oTYlEXYrIudWWWW/XmjfX153+Ci8YgC3mGXcrilWVGSk4sCGvLvgDv+vhGa5KDAVd/iFoDgwFFgJ04TDpNDUYJOprAbq+knxYx7FKF63RzqDU9LYR26uqUiruIipu8NnIZKHwe8VmH2tt25ZbEmH5Cm5GARNhXdDuBQ10q26w+cEKPkRLHZT99KBVCjzIAMnIqE56XvpwEQw8yDDfbfg6tpm2zflI3DMKOLGCgNjXpFkURwqbN7Swltqe/HThBNGfeRwiVVeqVxK7lFlxdBoBZxW3PSEQjbtxN2nwEAwxe+C6tLK3eHvWttV3OFznQWPOPzY9VMeVp84KgusYqXFRMLxas7rBWaEZVZxIGGaIgNAfp07d57IryIRo2TPNAJEgZWZAqtzukPRuD/UpjdUPdMjY/8LzxFhly9fjscTaHlXAgWm0QrAT63UHzNV8JZlep3BXlFtq7BUaHkjKcBqSxTYZ65LdYKNA9lWYflJw7k9sQJDCmy2281JpdPpP5oKyR3Vl0CBBessv78iuRvj3BJBjW6rKeKwNNurirnugBOyLI+s8y97i2PizoS4IiaudBVT+KYqAahG4ooo37hLBoB1FqvHzl3PBDvL1L30obne3MOct69JoxXWj9LcS3fP9IgrIudWGbZfuaWcf4y/uKd5OJBbyqFXZmwUHLdkXfbgnwplUd/yYnZ5ALeYZdmuycvfasyrfZ6n88k/v5Q40lrP5W13WsGL/EouD0kgm359od0ru1Tu5nDT0/nkH6c7h5vtWNruWIHdGWuGGdpWX41VQ8CsrwzWSVdPWI15a9ouUGCcJDv0WMI04SQpRiUGbYozfwCnzipMAXuubdMxj2LIlwicOCqUENeoQo/r173dz9S3NXJpCmn7KpoknMS0uGoEg4ErTaMVWOdfqMXZWzauWJVngZhi2otfLORLNLjcEldEPNUOxULbFU9i4rWP+ipTIamKiQfJMw8yoJfCIVCQJ7OYSVxKisv8dwuu2GLajh9U5PfZqYwiqIgoMIRIncsAuApNCq7X5I/FUmDvjBltvLKADunlSwFWtBNUi0Yr6KtM8bOdvdf7Ok7FK2ST2tXtzX6YFf92Sw8Ig9dcgL0nSgiBzgsJzifgBgW2w23fhfnONXar1GSlxdR3vT+3nEvfS6vcv4k7Mfm+rtJiGn5zRFwRB78zJO8vuXgqMW3tHefPE/lVZk5ABXD6054jQBRYOYe7TjD4/OFQNN7o8W9q6r/nfX8wBGCJsOPHjxuM65uJ0iiwUXP4kffG197rQ6Ygi0+FtvI1+9iqb+FnrqsNwoZ+y6YZNAdXfQtfeV9uM/AsEpsMDkI+8t5ImSNsvE6rP13d9df4PaHA8CDkf55o5Q5CHmmtfzSdKAsFhh7H/vtyrNOV5ymv02X978sSO/bTE61G2UlMFqgdDa9fAXk/Ez3Wnv0wi4ciN610UwqswmAYeG1QXBFTd1P2QJ4SaA844JZrbhOzrk3dz4zfHkeKal2bup8ZenNY7lYZtsXisjj85oipdoMNEQyGgdel2rEcbBF65ei61q0V9BgPvmwkge+lbd5ajGfd66ps0Nn0GC6kmmKCXQ6M+u0wtj85FrGZNnR4nU5/d8L/ZC75l9nEhc48e95Xej1P5pJP5pKvD/hYrhYHMHcacTsUmLPK9Pm59mImxZHW+j+/lHgyl7w74WelwoY8nk0cj+bRfNuhwGa73U/nk/Iyd7n7oLoSpgknZzEqMTA4uaVcSMxbt93dXrg9TdFYBjiygQVp6nF0DCcDnnFWZMmLoUXkBSrGgDYlGZCeT7C7FFyF5Meo10+IL+VC2by2CwZD7/U+xVUFqkbd+NBcL4CgqCTL5Symvaj7pe+l68JOthDslJ75Q2wb19e6ZTF2rpONlxyTn+sUl0X80sCWttVw343+3FJu5K0RtrTOC9KlkPAK4L5bcOUX0/aqBit8oRl9Z4xb56FHFEcRVLTOYqyI6KONEwAfVbjdTd937HjelPzFGotpO85W+dunmOysYMVQYMFMWFwpZWCoU2B4j0f2w6yvvxkRkAzELCYgnVU6UaMVYEWSz1a2qBLC+I5O30tzGxXkdzKLmcb4xi5Xq9P3zB8SV8TMgwx8qMN6cVUZfnOk0rJBLsNByJ1u++7Md2wsBLZETcLSCoZmY7fG2bnMFmtx1Uy8K32RHXlrpMqxsXPW6vTtJzrEZVFcETtOxtgsWw0bjFXHjx+fmZkhn19bhY7SP7sIEAVWTgqsymoPtsaCrbEqqzJL8uwOlH0uORBhR48e2yYFZqowPnQcWfUtPPLduFmb6jR6nYJt2BR86DgC5NTLNUOFbvls0tf/0j2z6lv4Z+epCXN42BTEX62w8dJCd/hfe69frxkOGxrcenu6Kvoj58lfumfAU35pzsjYPtqqfovk1NP55P8923Yl6ep0WS91Nn5yLPJ4NvGbixI5xd3VWIIVmEYrZIJ1QDo8mk4spgOjfvuo3/69seavrsQlpXoueS6WxziwjdqF8LplwbI49N0hcUUstCmRu01tPdomrojZD7PNowHwaAv/szYFjQk3aMuZxWziYtLZ4XJ2uDpOxVP30lLepVzzSIBrY9+N/uyH2fT7aVZ/7ryQgEi5YTxsvyY/mBy9NTZ+ezyUi9SG6kO5yNj3xmCb1ftyH/epEPVYcVkcuTkaSIVqQ/WRqej47XEpy7IYOxPnpCrZCkyjFTpOxqDYvhv9wWwYf/6xFnaLzNW4Q49GfeXHR8JwbeIXFzsW+j09HtulzsZPT7XCueCfnWlzVOUZT7ms5p+faXs6n/x2LvFvL0TOxhr6vDVvj/hwAF/rcrHSbocCQwPMx3PJH+RaZnvc+DvZ7mSZYmzIk7nkz85szN9/eyHy7ZzEX396qpXl+NT9eW3qCwypwy8udrza50GpZnvccjM0Fo0dCm91moDRJc7T5tGAZNqwIrYebcNIq8duYAz9avx1wFNnl3KH5nrd3V5nhytxMZlZzI7flpSTQhRY8WN++7p9MfAiTSAuiwOvDTYPBxzhhvYTHal7aWiIXKk22MwjN0clImA51//qQPNwwB5whHIRKXJN++qZzWOaWDHAGGrizkT6XlpcFsOH113js2nA9oRFvi7sHL0lLVkDrw+y8ZydbEs6lF2SLtTDFdXd7e262p17uB7ZmNhQ1OHOk96XJc4O1zp7wOEfa+l/dQAu5hv67tD2VyFYhCfuTLDfG4BJmbgzIf9uwd1pUGTb1792rIgTd1KRqWhtqD6QCo3cHE3dS4PzcjlDBJijOp1+Lx093o4rcDAb5gwDt0mBobkZnAblehweS2j7/8/enX/FcR74wr//CdVdvdINNNB7F3TTCw00mxBIYhN7awEjtCB2ugRCoJawJdmWY9myvEQSjuNNThwvyvImPpmTxMkomcnY1xM5PU7iH+a+M3Peea/vezM3Z/xO8ygPRVV10wtI0Hx1+vhUV9dT9dSnnsbiq2fJ4GuSwfed1pZ2yDr47EH/kUohl/BfhmgvQtpcyb85dVztLPFb6E6jvYj+OxP9x6e+V/rqJxvp3wd6rvf0vLDBQ8xjWGHFuH3l9BIFTpOuJKs5y2kuQ5oWmaffsce1d76ZfN2kmSb9u83AzbUfj6GTteQvPP23BkTDnx/OvSs1mq3+vqsNOndnhbBVkKy/7+V+4ZdLOt0baWD0W5z8/yDxVV9O1ZIftt3Xe6pHakr91vI2D/3B1XWt22gvoo02gw2NNn9wcAgT3mdAhyI7VwAR2KZFYIxCZXO6fcFazu1XsGsdCnZu49hxNVcK2DPrBRb/iwVb+J71VIyLSl/PlvTrFfpELAzDzhUdIEmZqGyzzi0sdUDv/a3zrOiY+9zSmLHpUU2Hn8ewdfaC30zGoy7R6ycng7f7KzYrAstj2Lk9ji/m4r+Wi15fzDdc7SgT9mERoj2cbToWkgRG0iE2pBprv0auxP/9LclL9O/M3j4/+fVMVKT/1kDN8ZCwYwK5EP0bkrCDGPltKrwSFi0HSf+Rtvt6j7fXT/72KbxQ1zVxBzRyFV2xsfVym/DIB9u3w80LLdIhTtlEYEZ70YNwbb1bkgRhSx+9vUD//ZFKUVMkb38zKe6rSGqS6Jvyx/n65w6WixpwNhFYHsO2lZs+m42nw6KXqK9ZvGtDgf4nJ4Oiw8jbX41XV1vWUnhyF+mm5MKnoFCovn3IS1JC0RVTX+lCeMIst9P9mpDf7WUa/Po2KQoRZL+87Vc6SMqTpAGn2OYz+N0+M7f4hV7qE91+13Nd8Q4Fq1057I0u0ZlNntKua92iIuTt/uUDiTovrI2FXIXtudGTaBQkjUtkL0F3in73ZhSqmuMh8ms5PYZsDNwckO1slfBn3Wo3vcKyEtGNZ/CW3ovw3y1o3yvpv1vQ40W3IHorunfZG+m/NUDSzOQdiILD1STyE11C1OCzjMDotzJJd7MM7j2Dr0lm33fy6BmFKj7nwGrUK+IS/s+d1kp0jOit8KdEvO/hqVrpgxi4OVA1HI+kkz9E2nVRdInwSjjL4dJr/yq2/uchuVDfS33Snw95DEvmuZNWZuD2QOhUrejvNg/t3mW/JqSSB79xMPvvO/27kPTGhXsSPRGaNib5B1fSDlmNJlE77HquSxReZ/BTK49hRX91yewkKAWBHSSACGzTIjCVJt/tq/IFa0ss6/7hcQe1hlyqasYRWLwjukJzxBB6z3rqPhcflvhb59mXS480a90KZm2YmKyVglF16v0f2adE8ZYoAov/YqAqfaH0EAnCPnWde80yXKNx6hS6RxiB5TGs1ah7Newlv3L/aT7e7etqR1mhTkN+W96UXmDErcZifPuoj/5u/9ls7Z2j/v1cVv+KJftEMthJxkKSLl1kaUjpSTKOwPIYtrCseO/Z5t4Xe8nfkHpf7G1eaCmtlO/7RtOuxpk9tBr0tynptMrktw7S+6Ck0tJ6qY32kmiMNGlNCf9xmGFVvnDg4LNd5PiBmwNtl9td+8tFf3MldaB/7RP9ykRrmHxDazI0ze0VRYHC3w2SF9/0T1mlaqre/rPT1SSZ/eN8/W8mQxf2u0TdpoTXLdRprnaU/cN0iPSx+j1fd/dYoL1s3XBRcnyWEVi8D5HFeHek8ovV1Spo3iSNwPIYllWq5pocvxyrJgd/Md/wy7Hq8y1O2RvJJgIj11pqdpLp0mitEq2nIaTbiu10vyYZ/0psrrKt+07N7tEU5JMvXfIGnEqbp79FS79W9AdOol+l0lUtLCuOz0Gz2ltq4OZAy7l9RmcRySOkvcDIydUGXfVITde1bvJLO/kR4eny0l4tsnWgYyHjXbpWl4aUPSyDKISep7TS2rK0r/flB6Fe74u9e/imAmfCnvjxn3X98Y6x5Gdd/62Bzmc6A4crs+//RapEfz4L/92isKyk50Y81JD+u0XG9x5/IidC5LQDtwc6rna6WspS+eHMKFRlre54prk+2RE1vCwjMFJc2uuNPrh4btLtEyYFibaF8V8GX5OMv++kqgyrChwKEmdhDbOMwMgoadf+8o6nHzTF+HfqUpu5ypbKQ4wXX/2/drx36vrnmP1PCYZVebq8tGLxu74d7rkRn4E0yTerwGnawzfFoVbr0/dKX8vSvkR/t2EUqodz71v6fadPStgwpNuJnoimIL9lcXUusBs9Za3r/qVc+DV50A4VKmcT13ap7cHP7dUZxEKn65L8vU56EuyBAASoACKwTYvAqCk2IAABCDwSAfLbeKJfYh9JlXBRCEAAAhDYVQJk2ZbwSrjneo8huyFau8oNNwsBCEAAAg9HABEYIjAIQAACOSKACOzh/I8TV4EABCAAgUQCtNebsCtcooOxHwIQgAAEIPCQBRCB5civvg+53eByEIDANhRABLYNHwqqBAEIQGBXCdDRoHXj9bvqxnGzEIAABCCwIwQQgSECgwAEIJAjAojAdsT/d1FJCEAAAjks8GB6vtthd2dFDt8mbg0CEIAABHaoACKwHPnVd4e2P1QbAhDYRAFEYJuIiVNBAAIQgEAGAnXj9fHVRV/q25S16jKoAIpAAAIQgAAEkgggAkMEBgEIQAACEIAABCAAAQhAAAIQgAAEIJDjAojAcvwBJ4k/8REEIAABCEAAAhCAAAQgAAEIQAACENglAojAEIFBAAIQgAAEIAABCEAAAhCAAAQgAAEI5LgAIrAcf8C7JMrFbUIAAhCAAAQgAAEIQAACEIAABCAAgSQCiMAQgUEAAhCAAAQgAAEIQAACEIAABCAAAQjkuAAisBx/wEniT3wEAQhAAAIQgAAEIAABCEAAAhCAAAR2iQAiMERgEIAABCAAAQhAAAIQgAAEIAABCEAAAjkugAgsxx/wLolycZsQgAAEIAABCEAAAhCAAAQgAAEIQCCJACIwRGAQgAAEIAABCEAAAhCAAAQgAAEIQAACOS6ACCzHH3CS+BMfQQACO1GAVWkHh4Z4nh8ZOa7VGXbiLaDOEIAABCAAAQhAAAIQgAAEHr4AIjBEYBCQF1Ay6sWi9vvc0gfW0+Xq0of/5cQVISArYLU6pqameJ5v2bdf9oCMdzIM+5ih7lPXuZ85Zuq1XMbnQUEIQAACEIAABCAAAQhAAALbUAARmHz8sQ0fFar0kAXqtK7PXIsxLhrjogtFbQ/56rgcBBIJtLa18zw/NTVltToSHZPZfpeq5OeOWdLmb5QeVik0mZ0HpSAAAQhAAAIQgAAEIAABCGxDAURgmxaBaXQGq7Pc46/yBWt9wRDnCRSZzIxSvQ2fOqqUioAwAls2HUylyIbHXDF1k3xB+N97zjmv2rph2a07gFGonrl06u6d5ddfmbPbzbIX4if7795Z/s5rS3Uhr+wB23PnieH2u3eW795Zfv/NC52tdduzkmnVSqszjIwc53l+cHBIpdKmVXbDg4UR2E3zoFaxCeffnm1+QwocAAEIQAACEIAABCAAAQjkngAisM2JwIrNdm9laDX8qhX+t7wioNHk51672Vl31Kxzk8ipWedOveZqheaiqZMMhKxQWTYseNLYGOOiyfOsbRsHkKjo3dfP79tbJb1TtUb7/FPjd+8s33xhtrioUHrA9txDoz2Sgs3NHNqe9UyrVhVe/2wk/qcmVJukYGZtXsmoThobyUDIJl15kvOTj3Z0m9/w7nAABCAAAQhAAAIQgAAEIJBjAojANiECKyw2k/yrrCJQUFSqUuu0eqPF5vIF46EY5/YpWYwn2gTnjL97mcUB6V4ulThAr9CblEb66tZXbpiapVuNzI7f2xh499tLd+8snxhul57Bbje//src3TvLl6Mj0k+37R6LufjVF/kP37742svxyj//1Lhaswndmh7t/XZ39/A8Pz4+biqW769Hqoc2/2gfE64OAQhAAAIQgAAEIAABCGxDAURg2UYzClbDuf2+YK2r3MeuH5dUZHoQjRkLS7bhs989Vdo+cYDInFQseccxUZEtekvSort3lp+5dIpRqERX2d9S/b3Xo3fvLD92+IDoo+38dt/eqndfP//ut5cW+SMfvn3xrdsL7rJNnjzrId++saBodHSU5/n+/oHkl0abT+6DTyEAAQhAAAIQgAAEIACBXSiACCzbCEytNXj81b5grcFoEjUgJatxuX2+YK3F5hJ9hLebLqDVGQKVQdnZkXZhHODzVxYUihtkcvOrT8SnA3v1Rd5iLhYdOTHavRMnAiPVfvVFvv1A7XdeW9r+04FZrPbDh484nAmXYqwJ1UYikdlIxOcLiJ6R6C3avAgEbyEAAQhAAAIQgAAEIAABCCACyzYC0+qNZBSk3iCeI0mhVDlcHkRgW/010+oMra1tMzMzw8PDGu2DmddkZ90STkJPtk8aG4XV86qt95xzosMS9dLSKbUr5iHRwbJvE81Blm4vMJeq9Gpx7z3nmRgXvc8tvWc91a2vVMst2zcwEJ6dne3p6U09CHswHdi3l/Y2rotX6Ixa0onAyCT6N5+fKSoqEDLmMezhgZa7d5YTTS5W4XZcuTDyzquLd+8sk/5Zc9Ph4uL0MjvRFUVvabWfuXTKai199UX+7p3lRNOBkRsh3cQOttfffiHy4dsX795Zfnvl3Mx4n8EgM51fBkVENRS+NVtsR48ORiKRqanpRBGYQqkOhw/xPH/q1Kl8yU+bPIbNrM2blMYf2yek7Va20eZYmxc+AmxDAAIQgAAEIAABCEAAAjkvgAgs2whMrda7fcHkvcCKS2w535IeyQ3S8Itf/TM4NKRS60hNMosDtm0ExjDsMWPdfW5JGlXcsRwvYcXxa19/PzFJPQhLNB0YHSMpnQgsswjsscMH3n/zApmiXvjft28vNDdWblZDovOXTYx25zEs6eOWaDowmmfNTvS//1Y8/BK+Xnp2qrRE3DMugyKyt0bDL/K8jh8/Xpxgki+L1T45OcnzfGubzHxtuReBPYQ2L/tEsBMCEIAABCAAAQhAAAIQyFUBRGDZRmB5DGu1c0nmAvP4q9VaQ642oEd1X6Lwa2xsrLqmVrjsQEBja9N5yYsv3E+SI75wP91JNlyqddO0KRl1odKQ4nT1SkYV0jrpCZ8s7olx0U9cCyeNjXQn2ShmxZ2kiFvqvcBadJ5PXediXPT7tvG+/CqHylSndV0p7iah2M3SozrluonelawmFKqbmJhIPQijUdfVJ04JHyuJxj58++LRcItwfx7DZhCBNe8Jfve183fvLH/3tfP8ZH9Dnf9Ac/Xl6AgJxV7/5rzH7RRdJbO3DyYC++sal6SPW6LpwMiNvPdG9J1XF1+5Nj3Q21QT9IydOPjWrbMkC5N2H8ugiOhGTMXmw4ePRCIR8oxOnDzpqfApJBOx0VJNTc08z09PT3Oc/MKmmbV5BaMqErT5Rm3Zrx3zMS4q2wssx9o8tcUGBCAAAQhAAAIQgAAEILAbBBCBbUIExqq03OqcX3IrQoYKE/Tp2A3NayvuURR+nT49VhmsThIc5DFsxvMipR5R5TFsKitCikBSPL9eoX/DfCzGRb9lfkyv0NOTMAzbkx+871r6zLXYqC2j++mGktVU19SOjY2lGITJTgf22OEDiSYCSzcCU2u0154cu3tn+a1bZwO+dRXuOdjw3hvxGfdnxnpp/bPZIBOBvf4YD7s4AAAgAElEQVTKnN0eXzmRBHkfvHWhr2uP9LTkRu7eWX56+aRW86AjYR7DlpYU33xhVnaKtAyK0OsWFpX09w+kHn7lMaxGmz88PMzz/ODQkGjZDXpa4UbGbZ52hJSNwISXyI02L7ojvIUABCAAAQhAAAIQgAAEclgAEdgmRGB5DMso1UUlFm+gxhespS8751Fp1gKLHG5GD+fWROHX6OjohuEXqVjGcUCKERW5ytZFYB61+W+dZ+67ljr0fhF1vkJ/x3I8xkUXitpEH9G3qQdhpKvUd15bqgt5afHL0ZG7d5ZlJ/xKNwJzOa2kX9XS3CA9P9lQa7TPPzV+987yi89O5huy7TXJKFTXrpy+e2f52pXTZIFL2sdN2p+Ldmf77mvnG+rEwomWAiD3nlaRPIbNIPwiPhznnp6e5nm+qalZRCf7NuM2v00isIfW5mX1sBMCEIAABCAAAQhAAAIQyEkBRGCbEIExClWRyVwRiK8LKXo5y7wqQaeSnGxDD+em3O6KmZmZFIeMiaqUcRywTSKwJl35fddSoln5yaxnN0oPq+TmxacUCoWqujok7BFWW9dAPyUb0unAiooKbj4/c/fOsnQiMJocyaZjstPh0/MfHhCPqcxj2LmZQ3fvLNN+W6K6pfVWNBEYKUv6uMlGbCTPeuv2QhknnrZP9kbovadVhPbk4nl+w2GPovttbWvneX5yctJitYs+kn2bcZvfJhHYQ2vzsnrYCQEIQAACEIAABCAAAQjkpAAisE2IwEqtztXkK1RicShYDWkouvwCzhPwBWvdviqNLtteLTnZ+NK6qUAgyPP8sZGRcndF8mGP0tNmHAdskwiMVOPXjvlGbRmdp4xuPFvSH+OiK+Yh0XRgUoc8hlUoVP5A8NSpUzzPt+zbLzqGdpWigVdloOydVxdlJwKjMVDqERiZn+vuneVTI51lnE30Oj8/GB8jKZdDieq54dv9LdXfez36vdej+1uq6cFJpgN7mBHY7Oxse3uHSrVu7jZaSdmNfEMheWTh8CGFUi17jGhnxm1+m0RgD63Ni9zwFgIQgAAEIAABCEAAAhDIYQFEYNlGYLr8Am9lyFsZKjLFpxwSvuJzhK2mYDZnORmNJfwU22kJkAiM5/mJiYlQqE448/2G58k4DiAFE3W/El136wZC0vpLl4Oke1KMwGx25+DQEJmFShqB0ZUTb74wW1wUX2Uy3Lv3w7cvioZG0htPdyAkjcCE6y2KtjclAhNNBEYqTK4uOx3Yw4zASE9G6QIOVFW64fMFZiPxPzWhWumnsntom0llSi/hGbZVBEabt+zGZrV54e1jGwIQgAAEIAABCEAAAhDIYQFEYOtCqwyedKkt3gXM5fbJhjIFppLVjmBBtRqTgmVFrdUZOjsP0rGQaQVhGccBuRSB2ezOoaHHSPgViUT6+wcKi9athkkav2g6sAtnhxJNBJZNLzBR7CV8m30ERicCE55WuC2dDuzhRGB5DJtvKOjq7pmdnV0LwqpDG/Zq7O8f4Hl+dHTUWFCU4s+ojNt8LkVgKbb5FElxGAQgAAEIQAACEIAABCCw0wUQgWWVyyiUKofL4wvWmu2cbFPQ6AzeQI23MqQ3xPvU4JWlQL6hQBSE1Tc0brhAXsZxwLaKwFLsjCYVdnHlIyPHNwy/SEE6Xddjhw/kGwwvPjt5987yhbND0tNmE4HJzgUme4kMdtKJwISxl3BbOh3YQ4vAyO0UFJp6e/voipDJVzU1FZvHx8d5nu/u7kldI+M2v60isIfT5lNXxZEQgAAEIAABCEAAAhCAwI4WQASWVSxFIzCLo4yRS7i0eiMZJqnVG3d0Q9lWlU83CMs4DtgmEVjyqcGTPBoXV378+HHS4ShJzy/hGYTTgXnczrdXziWaCIxGYK++yFvMxcKT5DEsGYr47reX9jYG6Ec0X9vSCKyzte79Ny+8/+aFwwMtounGpkZ77t5ZfnvlnMftpLWiNyLbAW0Tp8MXXjGPYVMMwmpCtZFIZGZmptxdITpDkrcZt/ltEoE9zDafhBEfQQACEIAABCAAAQhAAAK5JIAILKsILI9hyUDI8opKVqWTtgxTiRUDIaUsm7JHFIRNTU3V1tbLThaecRywTSIwj9r8t84z911LLTqPiI5h2AKlwaQ06hXrRtqWlXtOnDyZVvhFz0xWTvzmc9MDvU3vv3nhnVcXKwNl9FPhBlnDUTpTGKNQXb4wEp/b/tZZl9NKi7ic1rdunb17Z1k6FDH+VSo1lXE2m82c5cR5JH176/aCu8xBL002yDT50unASC+w7752vqHOLypCzia9xwyKiM5M3hYWlfT3D9AeYaOjo15fgA6NVKm0g4NDPM+PjBzXprOqRsZtfptEYA+5zcs+GuyEAAQgAAEIQAACEIAABHJMABFYthEYmQ7fF6wttTlFv7prdUa3r8oXrMV0+Fv3tREGYcPDwxptvvRaPrX11475GBft0osDDunBwj1pRWAH9N4YF/3EtVClEScvwnMKt+u0rs9ci7LZlvAwvUL/hvlYjIveNA+Koi6/xvqxg49x0ZmCFmGRgYEwz/Mp9vwSFsxj2AcrJ946uzQXX6JRdsFHUqRtf+i9N6J37yw/vXxSq1mLgA80V3/3tfN37yxfe3JMrVlb+lCt0V57cuzuneU3bs77vOvGDvu83Bs35+/eWX7+qXFhEVHdNnyr1miff2r87p1l6WjHPIalYyQXZg8JT0XyrA/fvvjkxePCG7FaS1dejNy9syzt6ZZBEeEVRdumYvPhw0doEHbi5ElPhU+hUFmtjqmpKdnlO0VnEL3NuM2nFYHlTJsX6eEtBCAAAQhAAAIQgAAEIJCTAojAso3A4r1XrPEZ8X3BWme511BQrFLrtHqj2eqsCNSsdgGr0qTTfSMn29lW3xQJwgYHh2QjsEKl4QPr6RgX/Yl98lB+dZvOS18u1dqU8LRHlUlpJK9ufWWMi/7aMd+oLaM7TUqjSqGR3lGZykzSqHcsJ7r0fnqJNp23mC2QHp/HsMKKHdB7hZcoUBqEQ2tbdJ5PXediXPTH9okjhpBDZfJrrKcL9vxqNf/6uWOWU5UKL9HfP5BownvhYbLbZLjiu6+fJz22Ek0ElsewWo3u+afjkdaHb1+88cxEX9eemqBnYfYQyb/eff18674a0SWa9wTJp9997fw5/nBDnb+hzj8z3vfW7YW7d5bff+tif9ceUZG03tKQS7baiQIykme9/src69+cf+VavPtbTdAzduIgEfjw7Yv8ZL+oGhkUEZ1B+tZssR09OigMwo4cOcrz/NTUlNWaaq5KTitsWknafB7D6hV6YcNr1JaRvLhbXyncr1OuRZm05jnT5ukdYQMCEIAABCAAAQhAAAIQyGEBRGCbEIEplGqro4ykYKL/enxVmAj/oX1/ZBflJFcP51fd55ZiXFT0OmlspNXTKbUr5iHRAbJvm3VuWopuMAw7V3TgvkvmKrLHk4KtOi/JtkQXWjEPCUMHhmGPGetkb+Gec65ZK66P7IBQWtXkG3Q6MJJtHQ2v618mKutxO199kRdONk+233/zwvDRA6J+kaTsY4cPvP/mBZkib12cGeuVLSK6aJK3ZCKwD9++GO7dK3sYP9kvnQ6M5Fk3n58ZO971/lsXRXV76dmp0hLxZGcZFJGtj3SnKAjjeX5waGjDNR+k50mlzecx7BVTt6jtyb4VflPotXKmzdM7wgYEIAABCEAAAhCAAAQgkMMCiMA2IQJbbR8qnb7A5nRXBKp9wVpvZajMEygymRmlOodbzw66NYZh6zSu96ynRBGV8Bf7LCOwPIZVMKpOvf8j+5QoREgSgTEMW6Nxvm4+Joq3RBEYoXapSq8W995znolx0fuupR/ZJqYLW0zKzV9pgUwHdvfOcpKJwOjTNxjyp0/3fPuV+Q/fjodH775+/plLp0LVyeZur3A7rlwYeefVRRI2vfPq4pMXjycvQi+XfCPR9GS0VF/Xng/euiCaDozkWWS0Y0dr7e0XIuRe3l45NzPeZzDIjK7NoAitQyobFqt9ePgYmc0tFKpLpYjomFTafJYRWC61eZEe3kIAAhCAAAQgAAEIQAACuSeACGyzIjCcBwIQ2KkCJM+SXREy0Q/9DIokOlWi/V3dPTzPj4+Pm4rNiY7BfghAAAIQgAAEIAABCEAAAhBIUQAR2E79pT3FB4zDIACBDQUyyLMyKLJhNYQHGAuKRkdHeZ7v7x8Q7sc2BCAAAQhAAAIQgAAEIAABCGQmgAgMERgEILDbBTLIszIoktbP6JpQbSQSmY1EfL5AWgVxMAQgAAEIQAACEIAABCAAAQjICiAC2+2//Ms2C+yEwK4SyCDPyqDIriLFzUIAAhCAAAQgAAEIQAACENhuAojAEIFBAAK7XSCDPCuDItvtpz/qAwEIQAACEIAABCAAAQhAYFcJIALb7b/876rmjpuFAAQgAAEIQAACEIAABCAAAQhAYHcKIAJDBAYBCEAAAhCAAAQgAAEIQAACEIAABCCQ4wKIwHL8Ae/OZBd3DQEIQAACEIAABCAAAQhAAAIQgAAEhAKIwBCBQQACEIAABCAAAQhAAAIQgAAEIAABCOS4ACKwHH/AwrwT2xCAAAQgAAEIQAACEIAABCAAAQhAYHcKIAJDBAYBCEAAAhCAAAQgAAEIQAACEIAABCCQ4wKIwHL8Ae/OZBd3DQEIQAACEIAABCAAAQhAAAIQgAAEhAKIwBCBQQACEIAABCAAAQhAAAIQgAAEIAABCOS4ACKwHH/AwrwT2xCAAAQgAAEIQAACEIAABCAAAQhAYHcKIAJDBAYBCEAAAjIC7s6KgVsD4dth/6HK3fk/SNw1BCAAAQhAAAIQgAAEIJBLAojAZH7xy6UHjHuBAAQgkIEAo1C1LO0Lr4S7nusy2IsyOAOKQAACEIAABCAAAQhAAAIQ2FYCiMAQgUEAAhCAgFjAVFHac6MnvBJuOruXUai21f+3UBkIQAACEIAABCAAAQhAAAIZCCACE//ilwEiKaLW5lvsnMdf5QvW+oIhzu0rLDYzSnXGJ0TB3BO4YuqOcVHR655zzqu25t7N7qw7KnCauq/HE5+Opzo0hfo8hpXu2Vl3lGVt/UcqwyvhgZsDrpayLE/10IpLH5l0z0OrDC4EAQhAAAIQgAAEIAABCGw3AURgmxOBFZvt3srQavhVK/xveUVAo8nfbk8d9dlQ4KSxMcZFNz2c2hER2PVu95dnG37P1/X7SjeEypkDpFmJdI/szdaO1YdXwn2v9NkbXbIHPJKdnm5feCUcXgl7un0ZVEBt0LVdbg+vhDuvHtQVGzM4wyMpIn1k0j2PpGK4KAQgAAEIQAACEIAABCCwHQQQgW1CBFZkMpP8q6wiUFBUqlLrtHqjxebyBeOhWHlFkFXHO5XgtYMEtigC0yv0JqWRvrr1lVsRtGXpvDsjME2hvuOpjgx6geVkBGapsfe93B9eCddPN2bZnB5m8Ywf4sOsJK4FAQhAAAIQgAAEIAABCDwqAURg2SZTaq3B46/2BWvtnEexfthjvsFUEajxBWtLbU4GEdiOEtiiCEz0PW/WuRGBiUwe1dsk6cmBi61KjSZRxXIyAqufbox3bXu531JjT3Tj23B/xg9xG94LqgQBCEAAAhCAAAQgAAEIbLoAIrBsIzBTidUXrHV7gyq1Tvp4SiyOeEcwb5CV+1R6PPZkLKDVGQKVQZVKm/EZhAURge22gZDS9ERfajz4jYPhlXDL0j5h2xBt514Epis2dl6N33jb5Xa1QebHmkhg+7xN9yH6/JUFhabtU3/UBAIQgAAEIAABCEAAAhDYUgFEYFlFYIxCZXO6fcFam9Mtu2ia3lDorQx5K0Na/Y6ZT2dLG9xWnFyrM7S2ts3MzAwPD2u04pnXXKrSF0oP3XOeoZPQ/419hi/cr1Os+91ep9SumIfoMUk2mnVuehdHDaEYF/3MtVinlZkHSsmoni7ujXHRD6ynC5UGWopupNsLzKUqvVrcS+7lPrf0nvVUt75SrUjYQYleKPlGab72Z6NVX55t2PA13bDWJ+hqR9mXZxv+MFc/GpKZy1+rUn84XPnl2Ya/mwp5Sx7ce6DU8Ml07ZdnG94bChTqNFc7yv77TPztH+frf3G6+liVRZF45cH2suK7xwK/5+vI8b+ZDF3Y7yrUZXvvVEaantA9ogiM7ieTbSX5r+w8XIVlxXvPNve+2BsveDvcfb0ndLpOaxI3D4ZV7Z1vjk9If2vAFw7QepINXbGx4+nOeEetl/pstQ6ys2VpX5LK0I9qx+pFZxO9LW/zDNwaCK+E/UcqRR8J36oNusrBqoPPdvWvHtx/a6Dj6U5Pl5dh5ZePVBt01SdCPdd7Bm7HTx5eCZMirv3lsj888xhWazI0RpriC1Pejh9Ppudvu9RmrrIJa0K36aOhaxrQPaKHSIoMDIRnZ2d7enoRhFFDbEAAAhCAAAQgAAEIQCCHBRCBZRWBKZQqh8vjC9ZabDIJSB7D0mGSekNhDjejR3VrNPziV/8MDg2J+uK16ryfus7J5ll3bWMWdu2hZBaBWVnTT+0zMS66WNQuHetKP50paJElSj0CYxj2mLHuPrckvZc7luMlghuRvVDynZlFYHschZ/NxgOst474pNEV/XRloIJenUZgd48FvjPoFyVuf5yvf+5gufRUCoXquYPlf5yvFx3/5dmGX41XV1sK6Pmz2aBZyf7oAZLI0D2i9ITup6FSog1pBObt8w/cfBAACUv1vNBjq3uQZNG7MNqLuq51h1fCXde6jfYiuj+PYauGa+Kp0O1w1XAN3b8pERijUDWd3RteCffc6DFVJFwPobCshHSRE94F2W693CadQV9XbGx/Mj6/vszrdjh0uk6agpk8pd3Px29f+uq/NeDrF8eCeQxLH82GD5Gg9fX3kx8dCMJoK8IGBCAAAQhAAAIQgAAEclgAEdjmRGBmOyfbSjQ6gzdQ460MIQKT9cl4pyj8Ghsbq66pVbLr+gRZ2KKP7JMxLvorBz9kqHWoTCal0a+xXjR1kizpRskh2oVKyahCWmebzkteTxb3xLjoJ66Fk8ZGupNsFLNrmQvt5/Uj24RwP7mvLr0/xkX/3jkfVK91nhLecuoRWIvOQ7K879vG+/KrHCpTndZ1pbib3MjN0qM6ZeYjQLUq9fFqy1yTg7w+WO299cVc/fVuN91JNqrMa50ZaT+vT6ZrhfvJDZ5vcX55tuGfztQfrTTTW6YR2D9G6n4XqXvriK/DbTrkL1kZqPhiLp5wyY6+nG20fzEf76H2D9OhJw64WlxFoyHr+48FSCj201NVpfnr7v2ZS6fu3llO/pqbOURrRTZoekIDL+kecqRSo+EOuL39fvLaHz1AeifVjtXTnWSj0FUsvIqt3kHmmO97uT90stZSY3fsce2dbyahWNdzXYVlJcLj8xi2osdH+lg1TDfSkKjEb+m9Ee9E1n6lQ1O4ttSGs4mjFWiMNJHkqDHSRHeSjURdqMilC13F3dd7yPBPekVRrTSF+vYr8aUDwrfjdfB0+4p9Zt9AgIZczQstotnTyORi4dvh1iday9s8BU6TyVNaebSqZ/Va/bcGyts9wqsoNZr9F1Zhbw+0nNvn2OMqcJpK/daaE7UPDF/qs1SL+4JJH5l0z7qrsJpQqG5iYgJBmJAF2xCAAAQgAAEIQAACEMhVAURgWUVgeQxrtnO+YC3n9ivW5y+kxTyYKcwXVGNRyE2aDl8Ufp0+PVYZrJZ2HcpjWBIwfeJaqF0/SpFh2KnC5hgX/blj1qUShw7kwaU+F1ijtuwz1+J911KH3i/8MaFkVN8o6Y9x0RXzUKJ8KsUITK/Qv2E+FuOi3zI/plesRR4Mw/bkB++7lj5zLTZqy4RXz2Y79RUhx+usf5ir/9N8w2KzU3hFrUr9g5H4KMifja7Lp2gE9sV8w1zTuk5PRwKlZJCjsNdYHsPaC/Qfj9XET3W62l6wdu8KhWp5P/en+fhIzPG6dSMxM4vAlBrNgYutwpm/kqcn9H5TnAuMZjo913tMnnW9q8pa3f3fjC+/WHM8RE9LNpQaTfNCS3zA4yt9zqZ4zs5qNKS3V9/L/bb6dYbCsp5uH4nApD3RhIdJt/2HKsO346Mv3Z1r3fdEh7k7K8hIyfqJBuGwR1ajaT63Wtv18+hTyQOPt7LrFxagcd7e+WbhVQqcJpLENUaaREkct6+ccFUdW+sBR8pm9hCVrKa6pnZsbAxBmPARYBsCEIAABCAAAQhAAAK5J4AILNsIzFhY4gvW+oK1RcUWUftQq/XlFcEkM4WJjsfb5AKi8Gt0dDRR+EXOE86vjnHRH9snTMq1vkvkI5VCY1IaC5UGJaOWvWjqEViB0vA926kYF326uFfJrM2C5FKV/NwxG+OiRw3iXINeMcUIzKM2/63zjDRly2PYfIX+juV4jIsuFLXR02a5kXoE5jbl/2Yynk99OFypVa1JtpWbfheJT9p1tWNdMEcjsI9OVomm8SrQan98Mvjl2YYfnwwWaNd6dfV4ij/n66QpWx7Dugr1vxqvJiMxhbdcWmoq42zJX0VFa135hGUz2E4xAjPYi0iPp/rpRtFVaHDTeqlNlb9uiro8hi0sK+l6riu8Eu8/pTboyts98X5ht8OhU7Wi8wjfZhaB0Zyu61pXvjUhUePMnvBKfBYzUTe3eGS5x0XyKeE8YvnWgq5r8VuQTkPGKFT5lsICp0n31wnjyF2Yq2x9L/WFV8LSCI9hVUZ7UYHTJOwBJ7z3zLYRhGXmhlIQgAAEIAABCEAAAhDYQQKIwLKNwJSshnP7fMFab2Wo1OpkV1ckjP9eZywqrwiQ/fkFWHQsW2e3u2JmZoZ00zhx8qSnQmb+KdEXr0lXTnpI7dWuTWAvOibR29QjsDyGnSzYK+1TRgK4jx18mWptJKDocilGYORG7jnnvOp13Z3I2a6YumNc9EbpYVXW8+KTE6YegeUx7Df7Kr482/C7SF1b+Vojv9IWnyn/fqS+w722M49haQT23pDMRE7vDQWkHccm62x/mpcfIPlfgQspIkrNRMhb/TbFCMxW6+h7WT7TyWNYcpJEwdOD4ZC3w9UjNWStxvYn26XzbQnvNLMIjAZPjTN7hGcTbZNuaHTKeeGnaoPO3Vnh7fcLh1uqjXoyRlI0clNYULRNE8PmhRZhRzPRYZv+VqFQVVeHhD3CausaNv0qOCEEIAABCEAAAhCAAAQg8EgEEIFlG83E52DWGdy+KtIXTPpfzu0TzVH1SJ70Tr9oIBDkef7YyEi5u0J22KP0BguVhg+sp2Nc9FPXuVvmwYWiti69v0xlFo4llJYie9KKwMpU5o8dvLDD13+lUTdKD8e46DdK+oVdw0SXSzECI4f92jHfqC0zKY2i17MbDbcUXXTDt2lFYB1u0/1IfBov2uGL9uf6wci6rmGZRWDTDfYvzzbEztSP1VoDpQbR6/tywy03vMHNPSDFCMze6Op7JR6BVQ5WFThNolfDdCPpV1XgXBcakqrSAYbxtRRvh/te7nfskV9/g95aZhFYzfFQfKHGb/Y79spPbkjOnyQCoxUQbZAzk1n2W5b2hU7XlXdUFLqKReMiaSk6K3980cznu1sW91WP1HAH3EZ70UNIxBQKlT8QPHXqFM/zLfv201phAwIQgAAEIAABCEAAAhDY0QKIwDYhAvuvvjAqjc7ucnsrQyQCqwhUO8sqvJUhb2XIgC5gmzELGInAeJ6fmJgIhepSTBWbte57zjnpKoofO/hjxrpEoyDzGDatCEyt0LxcekQ47RcJxWSHLgp/XqQVgUnvQrgnyYxjwiumsp1WBFao03x0skrYe4uEYrJDFzPoBUYiMOlakMI9ohnHUrnHTTwm3QhMur4h3dN9vUc2AstjWJOnlIyjDK+E68bqRdNjSW8ngwiMztgl271LeIkMIjBdsXH/cnx6e9Fr4PZAx9OdJZXiUeRkBKjsopP9twb2XzxgdK5bIlNYvey3bXbn4NBQJBJBBJY9Js4AAQhAAAIQgAAEIACB7SOACGxzIjDyRBVKlZLVKlktq9KS0ZEOl0ehXJsfavs8+B1XE63O0Nl5kI6FTD0IMyrzu/WBi6aO71hO/sIREcZGC0WtTIJ4Lq0ILI9hO/T++64luvjjUUMoxkVll4kUyudABJbHsIvNzj/Nry3+eLUjPgpSdpnIhxOBbc+5wGgvMFEGJHybJAJ7MAXYaoS0f/lAos5TtHVlEIE59nKJZuWnpyUbGURgeQzLsCp7o6t+urH18baeGz1kpUty+31yyzuSuf/LWt2Nkab2J9t7b/TGO8H9NUTrutZttG9+CmazO4eGHiPhVyQS6e8fKCySXzFDZIK3EIAABCAAAQhAAAIQgMD2F0AEtpkRGH3eRcWWB7OAGTf/lzR6lV24kW8oEAVh9Q2NZP61FDUUjMqpKv6W+THp7F3CM6QbgRWzBT+yTcS46ExBC+0UtljUnihiI9dKKwJLNBeYsNqbsp1WL7A8hq0yGz+Zrv3ybMPKQAXtFPbWEZnJ2jKOwH7P1/X71q2imOROM1sRMskJk3+Ubi8w6fzuyc+fx7BGe1HXte74KMLrPfHRlLfDgSPB5KUyiMDIJPd9L/UJp/GSvUpmEZj0VJpCfdWxGpKFiVaElB5M9uRbCuODRm/He5NJV4RMVCqV/S6ufGTkOMKvVKxwDAQgAAEIQAACEIAABHaoACKwzY/A2LWFIMs3HK+0Q9vNo6129kGYV20lAySbdfIz5acbgTEMu1jUHuOi37OdqtO4Pnbwn7kWG7Xr1kOUoqUYgSWfDl962iz3pBuBKRSqt474vjzb8JvJmhM1lvuR+j/M1Y/Xyczcn0EElnw6fNk73Z4RWPLp8GVvhOyMz4o1tze8Eu57pc+xl9t/IT6csPdGb4lfZvAgPU+6EZjBXkTWndx/4YBSo6Hnkd1IEoHJTocvexKyk1GokpxNtiAdsNmytE/2gHR3un8TK9MAACAASURBVLjy48ePk6U20PMrXT0cDwEIQAACEIAABCAAgR0kgAhskyMwhmFLLU5fsLbCX63VG3dQU9hxVRUFYVNTU7W19Qqlmt5If37VBVPnRMFenVJLd5KNErbwI/tkjIsOG+tFH5G36UZgeQwbVNv/3jn/iWuBzE9/x3I8X6GXPTndmWIE5lGb/9Z55r5rqUXnoWXJBsOwBUqDSWlMZY5/UdlEb9ONwPIY9mil+Z/O1H8xV0/mp//VeLWrUObeaQT20cmqQt26nIVOoi9a3rHHU/w5X/en+YbZRruowgqFqtyUHyg1OAp0oo8e5tsUe4HRJQ5rx2SanK7EUOA05VsKpaE5HQLZMN3IKFSWalvfS/Fp9ZMPh0w3AnN3Vgzcis+17z9UuaEe6S/Wc6PHVCHummff4yKjKf1H1s5j8pTunWtuPtfi2l8uPXndeD3p4GYQDGy01Tmaz7XsPdss7ZLGKFT7o/EcsP3JdrVRpplJL5FoT1m558TJkwi/EvlgPwQgAAEIQAACEIAABHJMABHYJkdgWr2xwl/tC9aW2pzJB8HlWEt6VLcjDMKGh4c12nxak1MFjTEues85F9DY6E6ycUDv/cy1eN+11KST+Z08j2EP6L0xLvqJa6FK4xCVTfRWr9C/YT5G5xqbLNib6Ei6v07rItWQZlv0mDyGpWe+aR4URV1+jZUsRjlT0CIsks323B7Hl2cbvpirHw6aUzyPvUD/8VgNnaL+m30VsgVpBBY7Uz/XtA72WJXln87EV5ZcGVhXlp75b05V2QvW5R2H/CVkMUpREdlLb91Ob58/vBIeuDngaknW6U+p0ZAOXN3Pd5s865Ijk6e0+/n4OMcDF1tFPbDoEEjh1FdVwzXxkYBJh0PKRlGJENbqdr2n0FWc6DC6/0FethKun2gQrs9IV67se7nfUrMWWRaWlfTc6AmvhFuW9olmMaNdukR5Fq2/dO7/IncJ4WpZzLYX2MBAmOd59PyiTxYbEIAABCAAAQhAAAIQyG0BRGCbGYExCpXNWe4L1rp9QZVmLYvJ7Ta0He6OBGGDg0PCCIx0y4px0Z/aZ44YQg6VyaQ0lqnM4wVNZBTk921jZrZQtv5kSccYF33HcqJL72/TeemrmC2QLRLvDLU6C36Mi9J58RMdSfYXKg0fWE/HuOhP7JMH9F6T0khfBUqDMEJt0Xk+dZ2LcdEf2yfIvfg11tMFe37l4MmkZpxqXaqS/LrJPyVLOn55tuHeRM35Fudck4O+qswJOzaSWfC/PLs2L770KjQC++hk1e8idW8d8XW4TYf8JSsDFV/MxfOv/xpE2ecVzz4+22j/Yr6BTLH/VDvX4io65C95ucdD8q/fReray03Saz20PZYae9/L/eGV8MFnD/qPVHr7/fQlipNs9Q5yZN/L/fUTDZYau6XGXnOitvt6PB7qvzVQ3r6ulx8dAin6SFOob7/SkXw4JB3Y2PNCT3C4mlbJ2++X9qsyVZSSiKrp7F5pNzSpJK1A+Ha4/UqHp9tX7DP7BgKdz3SS6eqbF1qEWR6N2MK3w/svHChv8xQ4TYVlJZ5uX/uT7aSIqHOcrtjYefUgYdk73+zY4ypwmkye0sCRIJkWbeDWgLfPL61bWnv6+wcw4X1aYjgYAhCAAAQgAAEIQAACO1oAEdhmRmD5RpO3MuQL1ppKZSZC2tENZUdUXsmuG1vHMOwJY8N91xLtmSXc+K3z7AG9N9F9MQw7V3RAtmyi6cPyGNbKmn5qn4lx0ZdLj6gV6yqT6EKtOi/JtoR1i3HRFfOQcPwmw7DHjHX3OZl7ueeca9bKz2iW6KLJ9ysUqm8f8v5pNXWiHbvIxnTDWtce0Un2OAo/m41Pii8d5EiPpBHYyz2e7wz6RSf/43z9cwfLFQrxCqoKheq5g+V/nI9nZKLX7/m6qfqEVaLX3dINRqHawzeRCdrpeoVkQzrzvbfPP3BzbVlDenz/rYGa4yFR/ESHQIoSpTyGdTZx8Xnxkw6HDA5XC5dQpNcShU15DOs/UhnvyHZroLxtXQaXxK2wrOTgN+IRlfTVerlNVyyOSmlPN+nx4ZWwbBHHHhdJDGWK3A43L7SIOpQlqW2ij4TjphMdg/0QgAAEIAABCEAAAhCAQM4IIALbtAhMyWo4t88XrC3z+NNaozBnGtM2vBGGYQMa2wulh37rPEszpl84IpdM3S52gwFfCkbVqfd/ZJ+iBclGkgiM9h07agilqMEwbI3G+br5mCjeEkVg5GwuVenV4t57zjMxLnrftfQj28R0YYtJKY4bUrx0ksNYpWqp2fnfZ+KRlvCVJAKjfceudiQcD0gjsJWBCr1KfbWjjFzij/P1vzhdfazKIs2/aCXby4rvHgv8nq/78mzDn+YbPpmuvd1fESg10AMe4QbDqgKHgqQjlTCvkUZgeQxbWFa892xz74u95MjeF3ubF1pKK8WhudFZ1HWti0ySJRo4mcewjEIVXxhxJdlwSEahKmt1x/tMra6fSCsmisDUBl3b5XhXrM6rB6XRVRJVtUFXOVh18NkusqRj/62Bjqc7PV1e4dBIYXGtyRA6XRfv8vbX+vTfGjj4bFflYJXaID+bW4HTtIdvolZkwGnyqwiviG0IQAACEIAABCAAAQhAAAJCAURgmxaBCVmxvTsFJgv2kmGJLpV4NF/Og3yzr+LLsw2/i9S1JR6WSCOw94YCOQ+yU26QDuSsn27cKXVGPSEAAQhAAAIQgAAEIAABCGQggAgMERgENkeATlr/dHGvkhGP5svgy7mDitBJ6z8crtSq1hblFN0CIjARyHZ4W7/am0w0gf12qBjqAAEIQAACEIAABCAAAQhAYHMFEIFtTvyxuU8FZ9uJAnR5xw59trN077jbHw1Z/zBX/6f5hsVmZ5LKIwJLgvNIPqKzzrddbk80GvGRVAwXhQAEIAABCEAAAhCAAAQgsOkCiMAQgUFgEwQYhl0sao9x0R/ZJpIsGbnpX+DtcEKFQvXWER9ZsTHJkpF5DIsIbDs8L9QBAhCAAAQgAAEIQAACEIDA7hRABLYJ8cfubDq4a6FAMVvwI9tEjIsuFrUzzO5qVFVm4yfT8Ynz3zriSzKfPSIwYYPBNgQgAAEIQAACEIAABCAAAQg8ZAFEYLsrrXjIzQuXgwAEIAABCEAAAhCAAAQgAAEIQAAC20EAERgiMAhAAAIQgAAEIAABCEAAAhCAAAQgAIEcF0AEluMPeDvkrKgDBCAAAQhAAAIQgAAEIAABCEAAAhB4tAKIwBCBQQACEIAABCAAAQhAAAIQgAAEIAABCOS4ACKwHH/AjzZhxdUhAAEIQAACEIAABCAAAQhAAAIQgMB2EEAEhggMAhCAAAQgAAEIQAACEIAABCAAAQhAIMcFEIHl+APeDjkr6gABCEAAAhCAAAQgAAEIQAACEIAABB6tACIwRGAQgAAEIAABCEAAAhCAAAQgAAEIQAACOS6ACCzHH/CjTVhxdQhAAAIQgAAEIAABCEAAAhCAAAQgsB0EEIEhAtt1AlarY2pqiuf51rb27fAlRB0gAAEIQAACEIAABCAAAQhAAAIQ2GoBRGC7LgDa6ia1/c/f1NTM8/zU1LTDyW3/2qKGEIAABCAAAQhAAAIQgAAEIAABCGQvgAgMEdjuEtDqDCMjx3meHxwaYlXa7L9COAMEIAABCEAAAhCAAAQgAAEIQAAC218AEVjCAIhV6VzlXl+w1hesLasIKNkN4hKNzmB1llcEqleLhDhPoMhkZpTq7d8IdlUNOc49PT3N83xD457tf+M6pXbFPBTjoqLXj+0TJqVx+9cfNYQABCAAAQhAAAIQgAAEIAABCGwTAURg8hGYVl/g9gVJ/pVKBFZstnsrQ/R4usFVBNRq/TZ52KhGHsN2dffwPD8+Pm4qNm8uyEljY4yL3nPOedXWzTozIrDNksR5IAABCEAAAhCAAAQgAAEIQGCXCyACk4nAikosvmA8z6oIVJd5AhtGYIXFZpJ/lVUECopKVWqdVm+02FzkJJzbp2Q1u7ydbZPbNxYUjY6O8jwfDh9SbHYHva2IwBiGLVAaTEojfU0VNse4KHqBbZMWhWpAAAIQgAAEIAABCEAAAhCAwE4RQAS2LgJTKFVWO0f6cJVXBDTa/KJiS/IITMFqOLffF6y1c26Fcl3UVVBUSqKxAlPJTmkQuV1Pny8wG4n/qays2vQ73YoITFpJchVEYFIZ7IEABCAAAQhAAAIQgAAEIAABCCQRQAS2LgJTstqyini3L6ujnORZG0ZgWr3RWxnyVoZ0+QUiaEahsjndvmCtzelmFCrRp3i7uQIKhaq6OjQwENZo82XPrFCqw+FDPM+Pjo4aC4pkj8lm546OwFQqbaAyqNUZshFAWQhAAAIQgAAEIAABCEAAAhCAwLYVQAQmjsDINPb0gW0YgRkLS3zB2vKKStnlBYtLbL5grcPlUSgRga2jpsLZbygUqspg9enTYzzPDw8PJ4rATMXm8fFxnue7unuSXJRh2BqN8zXL8G+dZ8kk9PddSz+yTQzmh9SKdb38Ek3UJZq6PsZFm3VuckW1QvNy6ZEYF/2e7VSBUiZvsrBFH9knY1x0saidYWTE0uoFpmBUrTrvm5aRT13nYlz0t86zL5QeCmhs0jNrtPnDw8PT09MHDrQiCEvSPPARBCAAAQhAAAIQgAAEIAABCOxQAURg61IGhVKl0qzrQ7RhBJb8APIpIrAt+noIwy+e5yORyMGDXSqV/NqdDY17eJ6fnp7muAeBlLRWDMOeMDbcdy1JY6wYF71pHtQr1hY3yCACi8/Hr/fHuOhnrsVGbZm0AuTTT1wLVRqH9NM8hk09AtMr9C+VHJbeyH3X0pmi/Upm3VqlKrXusceG+dU/CMJk5bETAhCAAAQgAAEIQAACEIAABHa0ACKwdRGY9FkmT7jyGDb5AYjApKSbskehUHl9ATK3PQm/+vsHkizyyKq0g0NDPM+PjBxP0sspqLb/vXM+xkW/bxvvyQ9a2EKT0lindb1QEia52EJRK+1CpWRUIa2zTeclryeLe2Jc9BPXwkljI91JNorZtUGytJ/XJVM3PRUxUTKqb5T0x7joG+ZjwqxNKJZiBKZkVNGijhgXve9aeqEk3KQrt7Gmbn3gHcsJsvOYsU542jyG1Wjz9+3bPz09jSBMJIO3EIAABCAAAQhAAAIQgAAEIJADAojAEIFtILANW7nb4z1x8iRJaiKRSPLwi9Tf4eSmpuLhTlNTc5I7IgHTzxwzdpVJeJiSUX+juC/JAEbaP+uec86rtgrLirYZhl0sao9x0Y/skxZ23ZRkVtb0U/tMjIueNDaKStG3KUZgNMs7aWwUBm1qhYakbB9YTxfKjcTUaPOb9jZPTU0hCKPm2IAABCAAAQhAAAIQgAAEIACBHBBABLZBAJS8k5eoFxjDsKuTf4U4t49MDYZeYJv7Jckg/CIVaG1r53l+amrKapUfYEgOWyhqi3HRFfOQTikeTalTak1KY5HSoGDkp3Uj4dSGEVgew9ZpXZ+5Fu+7ljr0fqFPOL86xkU/dvBlKrNwv3A7xQhs2Fgvm7LlMWyVxvGJa+Ez12Kd1iU8s3AbQZhQA9sQgAAEIAABCEAAAhCAAAQgkAMCiMA2MwJTshrOE19Q0hes1RsKaUCGucA25atCe3Kl2POLXlSrM4yMHOd5fnBwKNFMYeRgkhx97OArVBZaPMWN1CMwvUL/hvlYjIveKD2s+usU+/+1caM0PnXXy6VHRPPuCyuQYgS2bDqYKMszKY0/tk/EuGg4v1p4Zuk2q9I2Na3rEVburpAehj0QgAAEIAABCEAAAhCAAAQgAIHtL4AIbDMjsDyGNZVYfUH0AttANbMvBonAJicnff7KtM5Q4fXPRuJ/akK1yQuWqcwfO3iyeOL1knCkcF+bzutQmaSdwqTnST0Cy2PYo4aQqMOXS1Xyc8dsjIt2re8aJrpQihHYFVN3jIu+bj5mY00mpVH48qjNH9mnkg+3FF6UVWnr6hrGxyd4ng8EgsKPsA0BCEAAAhCAAAQgAAEIQAACENgpAojANghr0hoIKX3qGAgpNcl4j7AX2NDQYza7M8VTdXf38Dw/Pj6eZL58cipmNZz61HVOupDiR/apNr1POK+W6OppRWA0a6PTfpFQTDpBmOxVfmyfMCmNoo+Eb0kEJr0L4R56aWFB0bZCofJU+I4fPx6JRBCBiXDwFgIQgAAEIAABCEAAAhCAAAR2kAAiMERgGwhsq9ZssztHRh7EMZFIZGjoMYvVnryGBYXFY2NjPM93d/ckP5J+amYLw/nVV0zdH1pP33OeobHRfdfSIUMNPUy0kVYEpmRUTxf30sUf1QrNy6VHYlxUukyk7FUeQgRGwi+67MDMzExn58Eki2mK6om3EIAABCAAAQhAAAIQgAAEIACBbSWACGyDAAi9wLZVeyWVcXHlx4/H5/bieT4SiRw9Omi22BLVsyZUG4lEZiMRny+Q6Jjk+5WM2qe2/sA+vikrQtJrteg8911Ln7gWqjQO0insM9dio7aMHiC7kdZASNl5/WVPK9ypUKgqg9Wjo6NEGOGXEAfbEIAABCAAAQhAAAIQgAAEILBDBRCBZRuBGQtLfMHa8opKsgSkqB2sLhBZi+nwRSyb8jaVIEyhVIfDh3ieP3HihE6fbOTghlUiiVWSBR/T6gWWx7CFSsMH1tMxLrpQ1EZGQX5gPV2oNCSvSYoRWJLp8JOcn4Rfp0/HO83xPI/wK4kVPoIABCAAAQhAAAIQgAAEIACBnSWACCzbCEyrN3orQ97KkC6/QPTsGYXK5nT7grUWR1mSOaREpfA2LQG3x0sH60UikcOHjwgn/LJY7ZOTkzzPt7a1b3halUJz3FB/wdQ5ZKhVMirR8T619deO+fuupSZduegj8jbdCCyPYScL9sa46PvW0bctx2NcdKagRfbMwp0pRmBkacsf2SaKWXGzVDLqQqXBpDTSxSjJ+auqa8iIUYRfQnBsQwACEIAABCAAAQhAAAIQgEBuCCACyzYCU7Aazu33BWvtnFuh1AibRUFRqbcy5AvWFphKhPuxvbkCCoXK6wvQgXuRSKS/f4AEYU1NzTzPT01NO5zchhdlGPbJ4p4YF/2BfdzMFomOJ9nT3zrPeNRm0Ufk7QG9N8ZFycBG2QOkO4Nq+98758lcY3/vnA+qN5jXLI9hw/nVMS6apDMauQo5833X0gljgzB+ZRj2hLGBDsCkVdJo84eHhxF+URBsQAACEIAABCAAAQhAAAIQgECOCSACWxeBMQqV3lCYbyiiL7Od8wVr3b4qY2EJ3anRrRutVlhsJlFXWUWgoKhUpdZp9UaLzeULxvMvzu1TsuuisRxrQ9vkdkSD+EiPMJKLDQ4NyQ5Tlda8Q++/71qKcdH3rKe69QELW2hSGv0a67miNrJMZJLZtegij+9YTnTp/W06L31Ju2KRS9NZ8Om8+NIqifYIr1KtcZiURvrSK/T0YCWjihZ1xLjofdfSzdKjzTq3hS1s0pVfKe6+z8Vv8EbJIbVirVlqtPmDg0OY8J4CYgMCEIAABCAAAQhAAAIQgAAEckwAEdi6CEzJassqAr5gbfKXxeYStYNis52kYKKCnNuvVq8FE6JSeLvpAqIgjMxp1dTUnOKFlIz6gqmTLgEp2vi5Y9artiY6FcOwc0UHSIImKtiscycq1aX3k4OPGkKJjhHup924RJeIcdErpm7hkXqF/qWSw9LDYlz0juV4CVsoPDiPYRUK8dhP0QF4CwEIQAACEIAABCAAAQhAAAIQ2LkCiMA2JwLLY1iNzmB1llcEqldTsBDnCRSZzIxSvXMbx86tuUKhqq4OjY9P8Dw/Pj5RXGJJ/V4UjKpZ637NMky6fZGOVB/Zp+aKDpiUG0yor2BUnXr/R/YpUfCUJAIjE+F/7ODLVPLjK6U1VzCqNr3vQ+tpUdwmisDiqRajatV537SMkHv51HXuTcvIQX1A2P9Len7sgQAEIAABCEAAAhCAAAQgAAEI5J4AIrB1EVjuPeBde0f5hsJTp07xPB8OH1Js1yBSr9C/YT4WH5ZYelg0Of2ufXC4cQhAAAIQgAAEIAABCEAAAhCAwFYIIAJDBJabAj5fYDYS/1NZWbUV35xNOSedtL5D79+UE+IkEIAABCAAAQhAAAIQgAAEIAABCMgKIALLzQBI9mHvnp0KpTocPsTz/OjoqLFAvLbj9nFYKGqLcdGP7JMWyQKU26eSqAkEIAABCEAAAhCAAAQgAAEIQCAHBBCBIQKDwKMRKFQaPrCejnHRS6Zuhnk0dciBH2G4BQhAAAIQgAAEIAABCEAAAhCAQCoCiMAQPUDg0Qi06Dz3XUufuRYbtWWpfFdxDAQgAAEIQAACEIAABCAAAQhAAAIZCyACezTxR8YPDAUhAAEIQAACEIAABCAAAQhAAAIQgAAE0hVABIYIDAIQgAAEIAABCEAAAhCAAAQgAAEIQCDHBRCB5fgDTjcTxfEQgAAEIAABCEAAAhCAAAQgAAEIQCD3BBCBIQKDAAQgAAEIQAACEIAABCAAAQhAAAIQyHEBRGA5/oBzL7XFHUEAAhCAAAQgAAEIQAACEIAABCAAgXQFEIE9iMA8ZhteEIAABCAAAQhAAAIQgAAEIAABCEAAAg9NIN0YK5vjEYEhAkP2BwEIQAACEIAABCAAAQhAAAIQgAAEHoFANpFWumURgSECewRN/KHFybgQBCAAAQhAAAIQgAAEIAABCEAAAttWIN0YK5vjEYEhAkMEBgEIQAACEIAABCAAAQhAAAIQgAAEHoFANpFWumURgSECewRNPEn8PHjoMM/zkxOTIa8/yWH4CAIQgAAEIAABCEAAAhCAAAQgAIGdLpBujJXN8YjAEIFtowisurxiYmyM5/nHjg7u9K8x6g8BCEAAAhCAAAQgAAEIQAACEIBAcoFsIq10yyICQwS2jSKwzn0H+Ej8z/7GpuRfEnwKAQhAAAIQgAAEIAABCEAAAhCAwE4XSDfGyuZ4RGAJI7Anls7/27/869erf7766qtzs/yGDeuV6ze++uorUuR//PM/Hz+Crkxp5GsVVvuxoSGe58dPj1WVeUTanZbKv3PNx7jogr1d9NG2fbtgb49x0b9xzdSby7dtJVExCEAAAhCAAAQgAAEIQAACEIDAoxLIJtJKtywiMJkIrKa84s1vvfa///f/JmHW119/vWEE1lJT9+Mf/PAvf/kLLYIILN3vT0Oganpqiuf5cG+ftCwiMKkJ9kAAAhCAAAQgAAEIQAACEIAABHa0QLoxVjbHIwITR2BdLQfu/fJX//mf//n111//5S9/+ep//s8NI7CRQ0d+f/8+KfLnP//5//tf/+vrr79GBJbul7C3o5Pn+ZmZmb2hOmlZRGBSE+yBAAQgAAEIQAACEIAABCAAAQjsaIFsIq10yyICWxeBHT8y+IcvviA9ub766qtXrt/45c9/njwCOzfL/+u//Asp8m//8q9PLJ2Pff45IrB0v4E+m/PEyAjP86dOnPA7OGlxRGBSE+yBAAQgAAEIQAACEIAABCAAAQjsaIF0Y6xsjkcEti4COzfLk8m8/vjFH6ZOjnrMtg0jsJeeu/5//uM//vM///OT3/72aE98BB8iMOnXr8bjfezoYOuevdKPyJ69obqZmRme53s7OmWPyZkIrMbj3d+wp8Jil71N7IQABCAAAQhAAAIQgAAEIAABCOwegWwirXTLIgITR2D/77//+8c/+3lXywHS4FKJwL766qu733uvpryCFEEEJvyuVrsrhg4f4SMRnudbmxJGYOHePp7np6emGgJVwuJ0WxiBVZldl+w991xzMS76iWvhW87h/RY/PVK0UWG2j9gav+cc/YxbpMd3WYMV5oRT9deby6/Ye3/mnP2cO0+KfMd5cshaV2FOmFvtt/i/5Rgml7jnmnvC3l1pdspOh7+nOjQzPT0xNta2twVBmOhh4S0EIAABCEAAAhCAAAQgAAEI7CqBdGOsbI7fygjsyrXFy9fOXXp24dI3Fp545uzj8df88tX55afnl5+eu/jUmQtPnbnwJB+9wkevRM5fjixdnl26NLt0aebc46Ra2dxYumVJCzt+ZPDaU08LW9uGEdi5Wf7iwqKwCCIwoiEMv3ien5yY2FMdEkLR7aoyz/jpMZ7njw0NVVjlYyYagS3bu950jMS4qPD1d675IavMDGJVZu7bjmPCI8n259z5y/Yen9lB60A3hqx1ZOlJUanPufPP2gdkixyzNX7iWhAd/6bz+BP2bumKkHuqaqanp/nVPwjCKDs2IAABCEAAAhCAAAQgAAEIQGAXCqSb3mRzPI3ASPoUWbocOX+ZpFJnLjx55sJTcxefIpnV/PJVkmItPPHMwqVvnLv07OLla4tX4q+lK8+df/L5809d/2/nn7p+/snnl648Rz7IOAIjKVg2N5Zu2UTtbMMITFoQEViQcx8NH5qdnSVBz+TEREfLfq9VJm8ievsbmyKRCB+JdO570PlOqkojsB84x++55pbsHa0Wf9gaetXxGOmr9UPnRJ2lXFjQa7Y/ax+IcdHPufOvOh47aq1rNlectu390DlGds7ZWoXHe8y2Axb/r1x8jIv+evUSXdbKJotnxNr4vvM0KTJt2ycqssfs+YlrinQWe9re32WtbLX4l+wd91xzbzuOSyMwj9kW8vpHHhsmPeN4nkcQJiLFWwhAAAIQgAAEIAABCEAAAhDYJQLppjfZHD+9sDxz7vGZc49veQRGOoKl2AsMEdgObeuVrrIjA+HUwy9ym48dHSRJUPVfB5NKb59GYPdcc13WSnpAhdl20d5F8qmT1ia632O29Viq/sF1NsZFF2ztwmGPAbPjpmMwxkX/L+dknaVMWGTO3hrjovdcc63rR1ZWmbl3nCdjXPSO80TQ4hIWmbLti3HRf+SWjtv2CPd3WSt/4pyWjcDIYSGvP37jq0NEEYQJ6bANAQhAAAIQ8Zh1/AAAIABJREFUgAAEIAABCEAAArtEIJtIK92y6UZg8S5gmfUCQwSW2803s/CLdImanJjkeX7w0OEkRDQCe8FxWJhnecy2vZaKX7giMS76uL1LeAaSZ/3MNdNkeTBNG/2011r9KXfuH7mlsFV+bCY9km7ITuzlMduesx+KcdEfuMZD5nVpWoXZ9oLjcJIIjJwZQRgVxgYEIAABCEAAAhCAAAQgAAEI7DaBdGOsbI5/GBFYfDqw1eQs9bnAMugFZlFpPvF4/s3vl75+6OLylerkTIkaGQZCJpIR7R9e7clF5vxKPuxRVLBz3wE+Ev+zr2FdLyrxYZZKMkXXgr1d9FG1mfvAORrjojfs60I0Ek5J+215zLZ6c/nfuGZiXHRKMrBRdHL6NlEEdsMez7lkr5KoCD0n3SArZtIeYadPnQpybvopNiAAAQhAAAIQgAAEIAABCEAAAjkpkDyr2dxPM4vAzl16No25wBCB5WQzFd0UicCGjw5WutZNyCU6TPTWZ3eeODbC8/zoyVMB17peVKIjaS8waQQWtLjuOE9IIzASTr3rPNVsrqg3lwtf7ZbAz5yz8TGSkkCNLDdJupWJZriX7dK1KREYudlqdwWZQ21yYqLaLe65JgLBWwhAAAIQgAAEIAABCEAAAhCAwE4X2NyQK/nZHkkEFl8Ukq4ISRaFFK0IiV5gO64R015g09PTvR0HA04ulVtoqKyaWV0eMdzbl/z4jCMwaYwl3COKwJosnh86J4QHiLb/xjVTb16X8W1WBBZwcr0dB6cmp0hPOkRgydsDPoUABCAAAQhAAAIQgAAEIACBHBBIHlpt7qeJIrDV5SCFK0JeJStCkhGNWfYC25IILEuXRO0GAyETyYj2B5xcf1f37MwMWQVyenq6p6PTZ3OKDhO97e/q5nl+Znq6obJK9JHo7UOIwLxm+8uOI3QFyV5LtbDjGJl0fysiMBJ+Ta9GgST/am/ZV2GxiwTwFgIQgAAEIAABCEAAAhCAAAQgkGMCWYY5aRXfXhFYZOny7NIlskTl9MJyWneS5cGJ2hAisEQysvsrXWXhnl66IuT09HRXa1uiICzgKhs9eYrn+RMjI4mOoVfJOAKTnaWLnla4sd/i+6WLj3HRFxyHfWaH8COP2ZZoYq9seoFVusoGuntpbjg5MYHwS8SOtxCAAAQgAAEIQAACEIAABCCQwwJZhjlpFRdGYJGly/HX+ct89MrD6AW2OhbySeFAyAcR2OITGQyETOu2pQcnak+IwBLJJNmfYhC2N1Q3s9prrHPfgSRnIx9lEIElmQ5f9nJHrXWfc+djXHTIVi89YHMjMBERwi8pOPZAAAIQgAAEIAABCEAAAhCAQM4LSPOZrdvzIAJbfGJ26ZI0Apu7+NTcxafml5+eX96CgZCIwHK7KVe6yo4MhGmPsKnJqc59B7zWtd5VR8OHVsf9TYa8/g0pMojA5uytMS76U9d0g0W8uqLP7KizlNWby/0WQX3+GoEdszWK6lNhtl2198tOh0+Cth+4xkPmddP5V5htLzjii0WKxk4GnNzh/gHKgvBLRI23EIAABCAAAQhAAAIQgAAEILB7BLYu8JKeeasisKUrzy1eubZ4+RqZNmzh0jcWnnjm7OPPkCyNTIePCGw3tOkg5yarHJI5wiYnJjpa9nutjuryiomxMZ7nHzs6mIpDBhFYj6XqH1xnP+fOL9jbKsw2epWK+KjGts+5859y53qt1XQ/HQj5TcegaCBkr6X6nmtOmmd5zLYp274YF/1Hbum4bQ89lcds67JWyhbZUx0iKwAg/BJyYRsCEIAABCAAAQhAAAIQgAAEdqGANKjauj2ZRGCXviGcDn/pynNLV547/+Tz55+6/t/OP3X9/JPPk107MQI72tP3zhtvvv/dd+nrn34f+/rrr//85z//5Ic/oju/eeNF2i6nTo6+e+cd+tH73333//7n//H111//+//z7z/88C7d/40rT9Eiu3Cj2l0xdPgIH4nQICy+gmQk/md/Y1MqIBlEYF6z/Vn7AJne/k3HyJCtvsniOWqtu+E4fJ9binHRbzmGA4I5v+h0+DEu+pbj+Nrx9sOfus79wDkuG4HtMXt+4pqKcdHPuMWr9r4ua2Wrxb9k77jnmpMtsqc6NDZ6GnN+pfLQcQwEIAABCEAAAhCAAAQgAAEI5LbA1gVe0jMjAmMJCmlS52b5r7766uuN/sQ+/5w2wZeeu/5//uM/Nirx9S9//nNaZNduiIIwnucnxsaqyytSAckgAvOYbVVm7tuOYzEuKn194BxttHhEl26yeH7onJAe/Jrj2LK9SzYC85htx2yNn7gWRKXedIzIFsFSjyJzvIUABCAAAQhAAAIQgAAEIACBXSsgDaq2bs8WRGBPXRf2AiNjIXfKQEhEYA/hW1fj8R4bHCI9wg73D6R4xcwiMI/ZVmG2j9gav+cc/YxbJH21vuccPWVtEvb/Etahyuy6ZO/5hStCuo/91DUdse0PmB2JpsMnZfdb/N9yDJNL3HPNPWHvrjQ7kxcRXhTbEIAABCAAAQhAAAIQgAAEIACBXSiwdYGX9MwZR2CLl+MzfS1eufZgIORT1/86EHInR2C7sLU9klvubmvneX5mZmZvqO6RVAAXhQAEIAABCEAAAhCAAAQgAAEIQOCRC0iDqq3b88gjsKfOXHiSj16JnL8cfy1dnl26NLP4xMy5x6cXlrfutqVnfuRPffdUwGdznhgZ4Xn+1IkTfge3e24cdwoBCEAAAhCAAAQgAAEIQAACEICAUECaz2zdHnEEtppE8dErZy48eebCU3MX46/55afJQo5nH39m4YlnFlanw8+wF9hfF4V8mpz6zAVEYGsrFQobQQ5v7w3VzczM8Dzf29GZw7eJW4MABCAAAQhAAAIQgAAEIAABCEAgucDWBV7SM6cegZ19/BlEYLsurkreUvEpBCAAAQhAAAIQgAAEIAABCEAAAhDIWEAaVG3dHkRg61aEzPiZoSAEIAABCEAAAhCAAAQgAAEIQAACEIBAWgJbF3hJz4wIDBEYurZBAAIQgAAEIAABCEAAAhCAAAQgAIFHICANqrZuzyOLwOaX49OBYS6wtMJRHAwBCEAAAhCAAAQgAAEIQAACEIAABHJGYOsCL+mZN4zAVufCj0+Hv8lzgSECy5n2ihuBAAQgAAEIQAACEIAABCAAAQhAAAIZCEiDqq3bgwgMAyEfQUfHDL4VKAIBCEAAAhCAAAQgAAEIQAACEIBAjglsXeAlPfN2icD46JXI+cuRpcuzS5dmFp+YOff49MKytLpbtyfH2hBuBwIQgAAEIAABCEAAAhCAAAQgAAEIbHOBrct5pGeWRmD8/9/enXjHcZ53vtd/ImIRKYoiSEpcsFRXEQBBcJdEypJIUSIpkTQ3iTuxA4W90dgajY0ACVCiqM3yyCeeTDyxxzd27JFjS2PnasZ2rDE1yCQz1/a98cSxlOMkNnFd/Xa/qK6tqxsFEGR/depQhUZ1ddWnunBO/c7zPm8kpkdirb3Drb0jbX0jizQQ8q5HYEVaMQsCCCCAAAIIIIAAAggggAACCCCAwKIJ2IOqhXtlKUZgRiHYoleBLdrV5YMQQAABBBBAAAEEEEAAAQQQQAABBIq04oULvOx7FhFYczjaHI62hIdaeobufhWYiMCaugbsh7twr/DNQwABBBBAAAEEEEAAAQQQQAABBBBYTIGFy3nse27qGmjqGiACK1jMC8xnIYAAAggggAACCCCAAAIIIIAAAgjYg6qFe4UILDEjJF+7JSJw7PQJXdfr6utDO6uWyCFxGAgggAACCCCAAAIIIIAAAgggsBACCxd42fdMBEYEtoTmASjZVnGltlbX9ROvnA721lqjFV8J7f+Z0v1hSD+g7gp25+wNAQQQQAABBBBAAAEEEEAAAQSyELAHVQv3ChEYEdgSisD2HXyuJf7frmf3ZnHneLylWtvyoaLPKJEZJXIrdPZxrdRjY36FAAIIIIAAAggggAACCCCAAAKLILBwgZd9z0siAmvtHdYjsZaeoZbwkGhLJg7LfrgL94r9unYMRP7h17+ejf/32eef13e22reRr5Rsr7h+6/W//9//6/e///3s7OydO3f+8Te/+fYH3z148qjchhVvgbWbS06dfUXX9Su1NcXV5d4bZ/pbcwT2pdD5DVpZpnsIavuNmvLl0IUZJXI1dDKofd6t/VwNnZxRIt8NNamqdreOIaPPPaTumVEiHyvtT6jVGb2RjRFAAAEEEEAAAQQQQAABBBZCYOFyHvueHSOw1t7h+DLS1jfS3j8aX8Y6BsY7BsY7B8c7o1e7ohPdQ5PGEpsMx66FY9d6RqZ6RqYeEP8TL3XH4lsMTXZFJzqjV413Dhq7aO8fEztt6xtp7R0RH7akIrCS7RVvv//e7373O5F/zc7OekdgTx7a/19/8uM7d+7I7eXKP/7mN+HYwEJ8S+6/fZbv2dbQ2Kjr+qHjLwd+dmu1kgb1oBgI+YK6O/D9+98hEZh/q8C3JAILnJQdIoAAAggggAACCCCAAALzEbAHVQv3SkYRmEix0kdgPcPXw7FrRgQWT8GcIjAjBWvrMzI2SwQmCsGaugebugYW7rTte5YX7MlD+z/86x+KPOv3v//9Z599ljYC++AHfyW2/+1nv/36t77Z3t/z9vvv/d3/+nvx4j/8+tfnGmvk/llxE9h/5EVd15uamrbuvZsRldvhBfU6EVhQklnshwgsCzTeggACCCCAAAIIIIAAAggsnIA9n1m4V4wIrHuwORxtCRvDEFt6hvRITKRSIqESJWDt/UYVmDUCi2dcRgnY8PWUKjB7BGakYClVYEs0Ajt6/szf/t3/FDVcn33++eTNG3/1Xz70jsA6B3s//+d/np2d/cWvfnnqynn5tSjZXvG9j35wJ/7fn/2nr8vXWXEUeKyi7OyF87qun7t0Yf2WkOM298eLRGB38ToSgd1FfD4aAQQQQAABBBBAAAEEELALLFzgZd9zFhFYV3QiMRByaUZgL07XdP2fL3f9ny93/OrdfZGT9nN2fEVchvrO1s8+/3x2dvZv//7vztZfKdKK00ZgX/kP//7OnTu///3vX3/nTcu1rG1v/s0//dPs7OynfztTsr3C8tuc+rFse+WJV07vee5pt7Peund3U1OTruv7j7zots398ToR2F28jm4R2O5n95Vuy+k79C5eFD4aAQQQQAABBBBAAAEEclnAMaJZoBcDjsAio9NGPZhtIORiVoHNMwL7p9/+9nsf/eDJQ/vFVzBtBOaxweFXTvziV7+cnZ395f/7q6Pnz+Tmd7p0W8XxM6daWlp0XfeIwA4df1nX9YbGxvI92zyg1mull0LPfaA0zyiR20r4T0KX92nbVVX7bqhpRok0qAfN75Wvi4kg5b+H1D3mzezrqqr1qC99oDR/qvTMKJGfKJ1fCV08pO5Zq5XYN5Yt4TVt8zPqjj8JXb6thD9Ver6jNF4KPbfeNvWkdwT2svrkz5TuGSXSrh5aoyUm63xCrf5YaZ9RIvYjd9tbg3pQ9n3fplXdCp0Vu/2+0tKtHtmkKfYTyeKVTM9dfsRmbfOgevT7SsuMEhFW9erzHke1Vis5pO75SujiT5RO8ZYPlOYe9SWPNvybtc3DoeNi+58oncOh4yFNc4vATr56prm5+fjpkwRh8hqxggACCCCAAAIIIIAAAggsgsACpV2Ouw0wAouMTj9wr0dgR8+fiU6Mma+xR8IlNjt6/kx9Z+uV1qaqp63BSo5HYObwS9f12vq6LU/tMtvK9eLq8iu1Nbqunzr7ytrNDjGT2HKTFnordFYmWWLlZ0r3BfXZACOwQ+oekTdZPuhTpWcodGydLdKSMdAF9VkRM5nfOB06s0lLGdfpFloVacWaVv5NpX5GiXxDqVO0uTkW5xOBnVOf+aHSZj6kGSXyH5QrmhbAnJuZnru4ji+pT4lkynJU/znUvFvdKr8VcmWTFpoOnbFsLH78UGl1nNvxCbX6Q6XV8pa/CDVcUffLZFDuv0grPvHKaT3+H0GYmYV1BBBAAAEEEEAAAQQQQGChBRyzqgV6kQisQMi6XdS0EZjbG4u04qbudtFN/5PbP/fY7P771aatm4+eOtHc3Cxihdr6ur3PP7uuvNTtTHc9u7cl/t++g8+5bVOkFYvKphkl8rVQzSl13xa14pC6593Que8ojSK0slSBrdVKFE1T1cTyvLr7Y6XDsZZKfuh2dYuITn6ktDWrLzypVVdo5UfVp/40dEUUH51Xn5UbixURA32stH9HaXw3dO6Quqda23JZ3f+jePD0qdJjeYtbBLZGK+5TX55RIj9Tug+oKVnhPCKwju8ojYJrq1Z5Wv3Ct5RGEQz1qS/LKjPLGfn/MdNzL9KKd2tbRST3I6WtRj2wQ616UqvuCx0Vodg3lXpLNidZPlV63g2dO6o+VaGVP6lVd4YOi7dY4sIirVgK31bCV0Mn92s7t2qVIif9qnLpp0rXx0q7JThbV1667+D++oYGgjD/V58tEUAAAQQQQAABBBBAAIH5CyxQ2uW420WMwKJXOwfHOwbG2/vH4oucEdKYFFKPxFp6jG78858Rcj4DIe0Xbz4R2J//X//pzp07f/jDH770J+/b93xfvrKhSn3pxPEm3+GXQBA1OFdqa0vc+zGVaeo3QnUzSuT90EVzXdU6rTQWOi5iHUsEZhH2CJLkljXqgRkl8kOlbYdaJV8s0or/+Invhy7OKJEvhy5sTB1FKGKgGSUSCx0314htUSu+FzIG+n1VuWQ+YBnQXA2dNH/EAXWXKCIbCh2zjLj0OHK3vcm48Euh8+ZPL9VCIs77QGmqnHchWKbnvlYruRY6NaNEvh1qrNBSem89p+78cXyQ40U1JQZVNPXbISO2Gwgds2R2x9S9n8THnB5WnzBL7td2fqKExcBY81sqtPI/C9V8ooTtEZh4+7ry0r3PP1tbX0cQZvZkHQEEEEAAAQQQQAABBBBYOAHHrGqBXkyJwOIZVHJGyBHnGSGjV93a4VsHQoZj17pjk91Dk+INnTkWgbX39/zTb387Ozv7//36H8wzRS7c9+bu7jm78KtIKw7trKqrr9d1/djpEx6nsEvd+tchox/WSXWfZTOZEM0/ArPs2fyjCJW+G2qy9J+SlVCWwqIirbgvdHRGifyV0lKpzsU9jqGVTKb+ItRQYUum5Alm2gvsj73MLPFQkVZ8Tn1mRon8VOl6Wt1hPsEs1j3OvTN02H7uMs9qU62THqzVSsRox1uhs4/bRps6Hpvs9Wa57iLH/FDRq7UtljeaW6RZfiV/JAiTFKwggAACCCCAAAIIIIAAAgstsEBpl+Nu5xmBhWPXwrFrPcPXe0amXCMwkYLJCCxZCBZYFZgs+xITQbr96z1BpNtFza4K7ODJo7f/x6ezs7P/9m//dvPdt9x2fj+9fvLVMz6HPVrOet/B58QoyJ3PPGX5lflHjxjILQoxv71IK/bYg2VLxx+9IzB7NFakFZ9U99k7T9kjsDXJMZ6fKOFj6l77p3scuX1v4u0eWc/T6o6fKl2OA0LXaaWKpsqho+YVcymZPEIRgfk/d5lj2rM8OdD1G6G6Mk2VH+Gx4nbd3a5UkVbs1g7f/ilrNpc8lVoR9vQLB+yb8QoCCCCAAAIIIIAAAggggMB8BByzqgV60WcE1jFgDGHsHBzvjFeBdQ8Z1V3dsUmXCGxkSvxCVIHlWgT25KH9P/v5f5+dnb1z5873PvpByfa5CqD5fC2W+HtFBHby1TMbq+b6uKc95scqyl69cE7X9QuXL22o8go+PGIgtyjE8ukeezBvuUlTutUjYrJCSz/1GSVij3s8YiDHwEWGVtOhMyJj2q/tFL3MpkKnzUMp5VF5HLncm2VYpUcE5rE3+Sv7iVv2L44t03OX+z+lPm3O18R6u3rIUXiNVvyMuuMroUv22QYcB8AGEoGJE1yzuWT3c/vEXA0HXz4srwgrCCCAAAIIIIAAAggggAACgQgsUNrluNtgIrCRqdQqsByOwKqe3vP9//LhnTt3Zmdnf/bz//7kof2BfCeW/k5kFVhDY+P+Iy+u35IyDaLb8Zfv2d7Y2Kjr+qHjL7ttI16X6Ym9gCjACKxCK/+GYnQcc1sCjMAsH2FvQCZBPM79Ho3ALOdu/tEivEYrrlUP3I739jJvZl63DIQMMAKrfGLH2QvnW1padF0nApNfSFYQQAABBBBAAAEEEEAAgaAEHLOqBXrxbkZg7f3GWMjW3vunHX7J9orvffQDkX99cvvnB08eDeo7sfT3s35L6ODRI01NTWI4pAjCHqso8z7ygy8f1nW9sbGxfM927y09YqCgIjDZrP1TpeeN0Cv71O3mSiW3GqVMK6FkaGUOccR0k6dsbc6Eice5y71ZqrSyqwLzvgT232Z67vJELOdu/tESge1Tt4s2+T9S2i6oz1Zo5fKi7FK3fqA0i7b35mMLJAIzwq+LifCrpaXlxCuny7ZXmj+FdQQQQAABBBBAAAEEEEAAgfkLLFDa5bhb7wisvX80voylGQiZXRWYRwTWHI42dQ04HnHaF2VrMO/mX5b9uF02/73ASrZX/OnX/+Mf/vCH2dnZ//2L/ycXWuDb0TZUqYeOvSxnhGxobHzm0PNuQdiGKvXC5Uu6rp+9cN5tG/kRMj1ZuCqwam3Lh4o+o0TGQifsAxLdgpVMYyB7aKVomig9s8+TKE7f49ztexNvWeIRmP0iygttWRFTCnystD+lbbP8yi36dLtSPnuBbd27+8LlS6Lyi/DLYs6PCCCAAAIIIIAAAggggECwApZwZkF/bOoaaA5Hm8PRlvBQi21GyOwjsJ7h63JGSLdeYJYITI/EjCMID4kDuucisK/+xz8T+dcvfvXL3My/5G3gMwjbune3qBrbdzD9cFGPGMgtCpHHI1Y89iA2eEHd/ccpFB37xMtm7ZYapSKteP4RWJFWfFh9QjS6GgodW6uVuB25fTbMMk39RsgYuTkS+qL5XUszAvNuh28+frG+QSv7Uuj8jBL5cujCRk2xbOB23bOOwLbu3X3xymVRxkj4ZdHmRwQQQAABBBBAAAEEEEBgIQQWNPOy7NwSgemRmB6JtfYOt/aOtPWN+InAxHSQ1l5gcxFYzOic3xWdsM8IeT9FYG+//97v/uVfZmdnf/GrX56tv7IQX4t7bp8bqtSXThyXFWH1DQ37Du5fV14qT+ToqRO6rtfV14d2VskX3VZkemKPgWS2ZekJZdmV3MytBElGYC+p1rkp12jFA6Fjjs3aA4nA1mmlsdDxGSXyxyDssPqE5chl1tMXsg6t3aFW/VBpm1EiNWrKfIVLMwJTNPXboUb70EVxvpu0kKpqZZq6RisWr8gI7Cuhi5s066Baee6W616jHphRIh8qerW2xSLpxrJt355LNVcIvyxc/IgAAggggAACCCCAAAIILLSAJaVa0B+zj8BiiRkhrRFYZHS6Z2QqpyKwa2+8JvKvf/zNb9r7exb6+3Fv7X/T1s1HT51obm4W+UJtfd3e559dV15asq3iSm2trusnXjnt54xkudP7Rhoy12t/nVY6FDr+83i7dEsUYtlt2ghMDoS0z8y4T90ukqYFqgIr0oortAoRD31DqVO0lFk1ZZOyHyptT2rV8rxkcPZjpXOfmtJMzS3rKdKK0zrI/addyTT+kyfyF6GGCq3cvP8KrfwvQg0zSmQ6dMZcBycGQv5Y6fyCusO8/XqtdCT0RdFEzHLd92s7P0l+H2SaFhdOfMTHSvsT6hxjkVYsJnOg8ssszDoCCCCAAAIIIIAAAgggsAgCC5p5WXYeVAQWGZ2OjE4/IP7nEYF1Do53DIy394+JAjNzO/ygBkJaztDnj+K6Hjx59L2vfuXf//mfyeXTv52ZnZ393b/8yze/82354vVbr8vvQe9I9Lef/XZ2dvbzf/7nqTdv1ne22pfa9ubcmRpSyphXSrdVHD9zSvRX0nW9tr7u5KtnWuL/7Xp2r3lLj3UR68woka+Fak6p+7aoFYfUPe+Gzn0jVPctxaG2SFQVye7pz6u7P1Y6ZpTIKfVp+aKqanKEnQxoZpTIe6ELh9Q9FVr5C+ruq6GTP1W6vh6qXbgqMHHWp9R9YiRmu3rInN0UacVfUHfIrvCX1f1btcrn1d3vhs6J7e3Ny5ZmBFakFe/Wtoow8UdKW7P6wg61aodadVnd/91QkyiCO6DuMn8HZDv8j5V23bT9t5TG/xxq/lhpt9eUyf5onyo910Kn9ms7t2qVF9Rnvxtq+vP4RbRHYCdeOU3DezM76wgggAACCCCAAAIIIIDA4gj4DG0C2cx/BNY5OG4s0atd0YnuIaMErDs2GY5dE1Vg6SMwYyxkfBfJCMxIwRwjMNEOrKl7MJAz9LkTcWnrO1s/+/zz2XT/3f4fn8qvwvt/+tV0m8/+67/+68TrU/ItObtiCcJ0Xb9SW1uyrcInyCYt9FborHn2QBGaiHTDHoWIGiXL9vYfzTVEFVq56Exv2ezN0NkO9fBCR2DrtNKp0OkZJWLv/r5GK76oPif6hVmO7Z3Q+RJTWZzAXLIRWJFW/JL61E+UTstZiEt5UX3Okv2t0Ypr1QO341Vd5rf8ROk8H0+17NddVLp9qLSat59RIt9U6i+ozwpeSxXY2s3W/ms+v5NshgACCCCAAAIIIIAAAgggMB8Bn6FNIJs1dQ8meuHH2+E79QIba+83ZoQU+VVXdCLgCCyegg239g7LKjAisPl8e5b+e8u2V56Kl4Dpun7kxLGMDni9Vnop9NwHSvOMErmthP8kdHmftl22yjKHWbJRvSUHsf9oedcmTelWj3xfaZlRIp8qPd9RGi+FnluvlYpQaeEGQgqH7eoWkd1YxnuK327Tqq6HTv/f8dKn20r4G0rdKfXp9dpcezWJuZQjsCKteLO2eVA9KpBnlMj3lZah0PFtaqU8fvPKGq34GXXHV0KXRAL4E6XzVujVbVqV23UX7918SGYyAAAgAElEQVSsbR4OHRdZ20+UzuHQ8ZCmHVL3OEZg5o9jHQEEEEAAAQQQQAABBBBAYNEEAsm2fO7EHoHFe+EPt/XJdvjziMDkpJAiOXOsAltSEdiiXeMc/6BnDx3Udb2pqWnr3t3zp/COQua/f/aAAAIIIIAAAggggAACCCCAAAILIeAzvQpks/lEYOHYNetAyN54SzDZC0xGYJZJIeO9wBIDIa0RWM/QXawCW4jLyT4tAo9VlJ29cF7X9XOXLqzfMtfY3rKZ/x+JwPxbsSUCCCCAAAIIIIAAAggggAACS0cgkGzL507mIrCeoZaeIT0S86oCk43A4r3ALBFY7+j0A3MR2MiU+LXRM2zIWIxeYNGroh1+sh2Y0QvM3A6sJX4QRGBL57u4EEeyde/upqYmXdf3H3kxkP0TgQXCyE4QQAABBBBAAAEEEEAAAQQQWGQBn+lVIJu5RGBGMNXWNxKfttFoBJboBeYYgY1M9YxMRUans4nALB3xzRFYczgayBn63MkiX2M+LkABIrAAMdkVAggggAACCCCAAAIIIIAAAosm4DO0CWSz5nA00Q4/pQpM5l+johf+IkVgsiO+OKxAztDnThbt6vJBgQsQgQVOyg4RQAABBBBAAAEEEEAAAQQQWAQBn6FNIJuZIzCn6SDnEYH1DF936wUmB0JaqsCIwBbh68VHIIAAAggggAACCCCAAAIIIIAAAktBIJBsy+dO5hmB9QxfN3rfOw6EnIvA4u3AZC8w0Q7M3BG/tXektXdYJHDGWMhwoiO+z3MIZLOlcOE5BgQQQAABBBBAAAEEEEAAAQQQQCB3BAKJdHzuJDEKMpzohZ9shy8HQo6JgZCdg+PGInuBxSa7Y5NyOkhrBBYZnZaTQhrt8JMRmJGCxXeUrAJzmRSSCEwrzp2vO2eKAAIIIIAAAggggAACCCCAAAK5KeAzvQpkM0sE5jUd5OB4V3SiKzphTPCYGoFFRqdT2uETgeXmF5ezRgABBBBAAAEEEEAAAQQQQAABBPwLBJJt+dzJkozA4mMhmRHS/zeGLRFAAAEEEEAAAQQQQAABBBBAAIF7TsBnehXIZk7TQQ639TkPhAyiCix6VfQCS46FHBUfJtuBGb3A7kYEFogmO0EAAQQQQAABBBBAAAEEEEAAAQQQWIICThGYkX+19Y209ztMB5nxQMhMJ4UkAluC3xIOCQEEEEAAAQQQQAABBBBAAAEEELinBdwisHj+5RCBGY3A4r3AwrFrsh1+Si+w3nhjMNkOP9MITI/EqAK7p79SHDwCCCCAAAIIIIAAAggggAACCCCw1ARkBKZHYrbpIDOIwHpHp3tHpx8Q/0u0wx+ZEjmZmBGye2jSmBHSNhCyvd8YCykHQhKBLbWvCMeDAAIIIIAAAggggAACCCCAAAII3OsC843ARqZ6RqbEdJAZRGCiHVh7/1h8cY7AWsJD9zrufXb8lZVVzS3Gfzt27rrPTo3TQQABBBBAAAEEEEAAAQQQQACB+1ugJTxkLD1DTlVgRkLVMTDeORhfolcTjcDMAyG9I7Ce4euJgZAxY/ykrAKzR2DxQrDh1t5hWQVGBLbUvnmHDx/Rdb2mpmZ10bpgj21DQdFXN164rYRj6w4/nL8i2J2zNwQQQAABBBBAAAEEEEAAAQQQQMAcgbX2GhmUuRe+cwQWm+yOTcpGYKlVYGM3RC+wxFhIWwRmpGDxRC05I+SYGAhJBLbEv4tr162vra3Vdf3w4SOBH2rnmgMzSmRGiXxS1r17RVng+2eHCCCAAAIIIIAAAggggAACCCCQ4wL+I7Cu6IT3dJC9Yzce6A0qAusxitPu7rUpKHy4TK2orN5VWb0rVF6VX+BcnfTQilWbt2wXmzn+u3nL9odWrLq75zL/T9+xc1dLS0tzS0t5xZaM9nbx0SdnlMhfFtetzX/U7Y0yArtdFt77sOq2Ga8jgAACCCCAAAIIIIAAAggggAAC2QmIUZBiIKR3FVhwEZitI74oPJMd8Y0ZIe92BLZi5WqtslpGWjkegRUWrjh9+oyu6+fOnV/xcGZxnp8IrKRw7dc2XrqthIfXHVmZtzK7rzLvQgABBBBAAAEEEEAAAQQQQAABBNwEbBHYiHkgZMfAeKIXWLwRWJZVYIl2YEMp7cDErkU7fLdJId0OeqFfX/PYhsrqnZXVu8qrtoc2V3lXgT24rCCvYHl+wQrLsmLFKrVia2X1LkXbUlDoXEG20CcS1P43bixpaGjQdX3/gecz3aefCCzTfbI9AggggAACCCCAAAIIIIAAAgggkJGAiMCceuGPikZg5gisO55iiUZgshdYZHQ6MSOkHAgp2oH1xFvlh2PX7qEILC+/cGOxIoq/1PKq5SseWbNuQ9oIzC6el7+8WNEqq3cZO1n+iH2De+uVvXuf1nW9oaGxpFTJ9MiJwDIVY3sEEEAAAQQQQAABBBBAAAEEEAhcYF4RWOp0kHO9wO7dCCy/YEWo3Cj72lii5uUvf3BZQRYRWF7+Q8XK5srqXVrltuUZDhsM/AKn3WFB4Yq9e58+dOiw25YrHl517tx5XddPnzmTRTnbXYzAKrdsXV201u28eB0BBBBAAAEEEEAAAQQQQAABBHJHYMEjsB45KWTqQMjOQWOMZXwgZGJSSNELrLV3WI/E7lYvsPyCFcrmqjVr18tvQKYRWF7+Q+vjdWRLP/8qKFyx54knxQjHY8eOy1O2rCiK1tjYqOv6E08+ZfmV5ceywsdvPH7ib8q6ZpTIRyV6S9EzK/JWuEVg4nUxEaT89531Zx7Odxg0uq5g9bc21c0okauPHc1fVmj53AeXFVQ/VPzfSttnlMipVTvlb48dO97c3HzkyEsEYdKEFQQQQAABBBBAAAEEEEAAAQRyU0BGYKIXfmuv0Qusvd8YBSkGQnYOjhtLvBeYeSBkz/B1MdIxMQpydNq5CmwuAosleoF1RSfETi0RWFvfiDiIRATWcxdmhMzLLyxMHbeYaQT2+MbSyupdm7dsX/nImiX7lTKHX7quNzU1Pf30M25He+jwEV3Xa2tr166bSwbtGz+3suLHpR0yzBIrb64/3VL0jOOMkBlFYMuWFUTXHp5RIt8trt9Q4AAr9vZRiR4qnDvIl48e1eP/EYTZrxevIIAAAggggAACCCCAAAIIIJBTAmL2RT0Sy246yJ6RKVsENnZDDISMjE4bIZmsArsXIjD7tfcfgS1bVrDu8eKKrUYf/XWPF+flP2Tf211/Jb9g+c6du+vq6kQ21NTU9MILLz6yarXbgT26es3ly5d1XT9+/IseZ7S+oOibm2pmlMiPSzs61xzYsnxjqHD9ldVPfVSiv/34accI7OH8FWvzH5XLxGNHZ5SIWxXYg8sKvvDw5ttl4dtl4S88vNlytA/nr3hn/ZkZJXLz8ZMP5RnDV8ViOVmCMCnDCgIIIIAAAggggAACCCCAAAK5JjDPCMzcCz9ZBeYnAotetQ+EjFeBGYVgd7EKzH75/UdgefmFJWVGCzCxVGzdWaKUFy5fad/nXXklL69w+/adNTU1PsMvcZBbt25raWlpbmmprKzyOOzjj2yfUSKflHUfWFlp3uyPWdg3N9U6RmDmzR5cVhCLF3l5RGByLGR07eFlyZBL7CRUuP6jEt0yClLuP79g+fYdu+SJE4RJGVYQQAABBBBAAAEEEEAAAQQQyB2B1AjMGAXpMBAyPgqyKzphDISMGYvjdJBeEZicFLIrOmEMhExGYMmxkKPt/aPmCEykYEvhMmQSgT20oVhRy6u0impRC7ZEOuJnF349uKwgL/+h48e/qOv65cuXH13tMPxQXqD+tS/OKJGvbbq0On+VfPHBZQVyAONfFtetzX/U/CvLetoITO7q6xuvFKV+igjgLKMgLfsnCLOA8CMCCCCAAAIIIIAAAggggAACOSXQ0jOkR2LJgZAy/zJ6gXUMGA3rZSMwGYGFY9dcI7C+8dd6narAZATWPTR5v0Zglu/No0WPlVdtr6zeVRqqyCuYG51n2WwRfqyqqs6o8kse0tp162tra3VdP3T4iHzRccUjwHJrh2/Zj8ce5JYHV265XRb+pKx794oy+WJh3vIbj5+wj4KUG5hXLGlgc3Pzrt1PmDdgHQEEEEAAAQQQQAABBBBAAAEE7ksB/xGYuRe+YwTWN/7aAzICE+3ARMN8kZkZ9WOpk0KKjC3eeD+lCkyOhVwK4v6rwOxHu2r12oqtOyu27ly5qsj+20V7RURgl69cKS6ZS478fPoTTz6l63pjY6OiaN7bewRYAUZgGwrWfLe4fkaJdK45II9nY8HaD4qbZpTIxUeflC96r+TlFW6pqr506ZKu61945lnvjfktAggggAACCCCAAAIIIIAAAgjcBwIiArNNB+lQBWaNwEamLL3wM47ATO3A7s8IrKBwhVq+tbJ615p1G+7id0VWgbW0tBw9esx7Ykd5nAWFK06fOaPr+rlz51c8nDK8UW4jVxYnAstfVji67qUZJfLVDecfyUs0WTu0csuMEvnr0raKhzbK4/Fe2VRcevrMmZaWFiIwbyh+iwACCCCAAAIIIIAAAggggMB9I+AdgRmjIAfHO+O9wLKPwOYmhUytAjNFYGOiF1i8HdjwfVMFlpf3UKlSXlm9a8OmzMqvgv165eUVVlRWiYkddV0XQVjRmse8P6WkVGloaNR1fe/ep7239G5mH2AV2IPLCsRYyJ+WdW5bXvLgsgIZinn00Tcf/Kbi0jNnXhHhl08H89tZRwABBBBAAAEEEEAAAQQQQACBe1TAHIE598J3isB6hq+LMY6R0elesYzdMFWBObUDE430RS8wox1YPF1LtsM3R2CJSSH1SGwpmM5nIKScI/LuRmCCMS+vcGv19itXEjNCtrS0vPTSy6uL1roh7z/wvK7rDQ0NGzcaYZP3sjhVYA8uK5BjIetX73twWYGcJjLtKMgyRT137jzhl/d15LcIIIAAAggggAACCCCAAAII3K8Cll74DtNBDo6LWRyNKjDP6SAzjMB8TAq5FNDTRmAbNpVVVu8qKducl19oOeD8guVlWmVl9a7HN5VafnW3fvQZhK14eNW5c+d1XT958lRe/kNpj3bRIrD8ZYVXHzs6o0RE2dcXHt58uyzsPQqyTFHPnzfOxX8FXNrzZQMEEEAAAQQQQAABBBBAAAEEELi3BCwRWHu/0ZXLYzrI7tikYy/83rRVYBlNCinGQi4FyrQR2LrHNlVW71IrqgseethywIXLH9Eqt1VW7ypau97yq7v7o31ixEOHjzyyarU8qvKKLc0txn87du6SL3qs9K99cUaJfG3TpdX5KV3Dli0riK49PKNE/rK4bm3+ox578AjRLO8yN//qXHNgRom8v/7symRrMPPGIXXzhYsXCb/MJqwjgAACCCCAAAIIIIAAAgggkJsCeiSWTS/8+EDIyOh0YiDk2I25CCyjSSG924EthUuSNgJ7+JHVFVt3GqVeG62lXo9vLK2s3lW+ZfuKFSnB0FI4L6ORVsHynTt319XViZCoqanphRdeFEHY4cNHdF2vqalZXbTOz9Eef2T7jBL5pKz7wMpK8/Zblm/8qEQPNgKTU0BeePSJ9za8OqNExKBI8+eK9WPHjlP5ZWfhFQQQQAABBBBAAAEEEEAAAQRyUEBGYP4bgRlVYE7TQSYGQjpGYHMd8WOT/tuBLf71WJZXuHJV0SOr1shlfbFSWb1Lq9z2aNFj8sXlphkSl+UVbipVK6t3VWzdWVymrVxVVPDQylWr15aqFZXVuxyjscU/L49PLChcseeJJxsaGmQQdvz4F0UudvjwEY83mn+1vqDom5tqZpTI35R1da05sGX5xlDh+iurn/qoRP/axkv2CCx/2UNF+avW5j8ql4n48MZ/t/7spoK18sU1+avyltmGlybHQn5lw7nvlzT9t9L26oeKzQcj148ePXb06LG0jf/l9qwggAACCCCAAAIIIIAAAggggMD9KpCMwEbcIjC3RmA9I1OWXvipEZifjvjp2oEtPnp+wYpQeZWIrjz+tbS3LyhcUZYMvCzv2lSq+umltfhnavlESxCm63pzS0tlZZVlM48fn1tZ8ePSjhklYl7efPxUY9EX7BFYxUMb/7q0zbyl47rb8EkxFlK8xW0U5IPLCu4JeQ9SfoUAAggggAACCCCAAAIIIIAAAkEJmCOweTYCMyKw/quvJ6rAnCKwTNuBBXWS/veTXQT24LKCZXmFq1avU7Qt5VU7jMGPVTtKQptXPrLmQVsRk/+DWfwtCwpX7N33dENDo67rFy5ceHilV/cu++GVFT5+4/ETf1PWNaNEPirRW4qeWZG34uKjTwYegcmxkB6jIO2HxysIIIAAAggggAACCCCAAAIIIJCzAgE2Auu/+rp7BDYyFY5dc4zAPNqB5exVuYsnvmFjcX19va7r+w88fxcPg49GAAEEEEAAAQQQQAABBBBAAAEEAhQQEZjbKMjO6NWu6ET3kNG/S8wFaW4EZumFPxeBObYDm4vAzO3AbGMhxaG09o609g4HeJ7syqfA3r1P67re0NBYUqr4fAubIYAAAggggAACCCCAAAIIIIAAAktcIB6BpTQC6xgY7xgY7xwcF/lXIgKLOURgvaPTxjJ2o2/8tb7x19JEYM4d8W0RWHv/aFvfCBHYXfnerHh41blz53VdP33mTEHhirtyDHwoAggggAACCCCAAAIIIIAAAgggELiAjMAyagTm2AvfFoH5bgfmNhYy8LNlhwgggAACCCCAAAIIIIAAAggggAACOSjQ2juc2SjI4esi/7KMgpyrAsuoI35XdMKoNxs0Cs/a+8fii1EFJgrBcvB6cMoIIIAAAggggAACCCCAAAIIIIAAAoELtPamjIJs7x9LjIIcHO+KTjg0AnOJwPqvvp6oArNEYL2j05HR6Z6RqR5zR3zPdmByLGTgZ8sOEUAAAQQQQAABBBBAAAEEEEAAAQRyUEBEYD5HQZp74ctGYKIXmDUCc+yIn2k7sBy8HpwyAggggAACCCCAAAIIIIAAAggggEDgAhlFYD3xEjC3RmApVWCWCCxRCDZ8fW5eyPg0k8ZAyHhHfMexkIGfLTtEAAEEEEAAAQQQQAABBBBAAAEEEMhBgXk1AkudDtIpAvPREd+jHVgOXg9OGQEEEEAAAQQQQAABBBBAAAEEEEAgcAG3CCyjRmCiF/5cBGZpBxbJth1Y4GfLDhFAAAEEEEAAAQQQQAABBBBAAAEEclCgrW8ki0ZglukgRSMw1wjM3BHf0g6se2hSjoXsGJDzQo6Kjvg5eD04ZQQQQAABBBBAAAEEEEAAAQQQQACBwAU8IrDueLeu7thkd2zSaITv1AjM3AvfiMAGJm6KPKxv/DX/7cDcxkIGfrbsEAEEEEAAAQQQQAABBBBAAAEEEEAgBwWSEdhYe/9Yx8B456Cx+BoFaWsENjBx0ykC82gHFpsUVWBuhWA5eD04ZQQQQAABBBBAAAEEEEAAAQQQQACBwAUyGAUZrwITfb164/mXKAGTjcBSIjBLO7DsxkIGfrbsEAEEEEAAAQQQQAABBBBAAAEEEEAgBwXcIrAsRkE6RGCWsZA9I1PGMnw9HLsWjl0zxljGB1vKKrDOQdkObKy9fzQHrwenjAACCCCAAAIIIIAAAggggAACCCAQuEA8AksZBdkZvdoVnZARmEirHBuBiX5fshd+IgLLrB2Y51jIwM+WHSKAAAIIIIAAAggggAACCCCAAAII5KCAiMDEZIxGI7B4/pWIwJKN8GUv/LlRkE6NwNwjMEs7sGQhmOi0bykEM88LmYPXg1NGAAEEEEAAAQQQQAABBBBAAAEEEAhcwDECkyVg9rkgI6PTbo3ArBFY2nZgacdCBn627BABBBBAAAEEEEAAAQQQQAABBBBAIAcF2vuzHAUpeuGbR0EaEdjg5BtyIKSIwCztwCKj09Z2YOaxkPEJKWUhWA5eD04ZAQQQQAABBBBAAAEEEEAAAQQQQCBwgfb+sblRkIPjXdGJLEZB9l99fWDi5uDkG4kITKZgoltY79gNYxmdFgMpzU3xvcdCBn627BABBBBAAAEEEEAAAQQQQAABBBBAIAcFUiKw1Eb4mY6CdIjA5jkWMgevB6eMAAIIIIAAAggggAACCCCAAAIIIBC4gIjAjEb4yV74shGYx1yQjqMgXSOwrMdCBn627BABBBBAAAEEEEAAAQQQQAABBBBAIAcFghoFOTcQ0rUdWLqxkGIQZmf0aufguDisHLwenDICCCCAAAIIIIAAAggggAACCCCAQOACcxFYfBSkpRFYz/B10blLdPFynAtSNgJLVIGJCMytHZjoCGZuB+YxL2TgZ8sOEUAAAQQQQAABBBBAAAEEEEAAAQRyUKBjID4EMvNRkH3jr4npIAcmbooSMOcIzLEdmM95IXPwenDKCCCAAAIIIIAAAggggAACCCCAAAKBC8gIzP9ckG6NwIwILDp5y1IFJiIw53ZgI1M9w9cTVWCxye6hSctYyMDPlh0igAACCCCAAAIIIIAAAggggAACCOSgQCIC8zkKcnRa5F+yBEyMghRVYNHJW4kIzJKC9Y2/lojA4u3A/I+FzMHrwSkjgAACCCCAAAIIIIAAAggggAACCAQukN1ckDICM4+CdI3AvMZCjkyJiSe7Y5PGkloIFvjZskMEEEAAAQQQQAABBBBAAAEEEEAAgRwUMCIwpxKwcOyatRF+vATMYxRkIgITYyGznhdSpGBiXsgcvB6cMgIIIIAAAggggAACCCCAAAIIIIBA4AIyAuseMmqwRDGWkX9lOBdkdPKWQwTmPS+kQ1P8+EEkOoINjgd+tuwQAQQQQAABBBBAAAEEEEAAAQQQQCAHBToHx+ca4ccjMDEwUURgkdHpyOh0r1jGblgagVlGQcYjsGtGEjY4+YalHVh2TfFz8HpwyggggAACCCCAAAIIIIAAAggggAACgQs4joJ0KAHzbIQ/OPmGUQV27dYD0XgEZk7B+q++LpYsmuIHfrbsEAEEEEAAAQQQQAABBBBAAAEEEEAgBwVEBCZHQZpLwHpGpjxKwMRckKLeS4yCdI7A5FjILJri5+D14JQRQAABBBBAAAEEEEAAAQQQQAABBAIXmBsFGZ+SMRGBjUyJ/MsegcmiLvsoSCMCG7r+prkQTGwk32MpBBPDLEXX/Z7h6+HYNTkvpGiKH/jZskMEEEAAAQQQQAABBBBAAAEEEEAAgRwU6IpOyBKw7thkRo3wByZuJoZAxkdBDl1/0xqBWTqCWSKw3ninMYem+DGjM39XdCIHrwenjAACCCCAAAIIIIAAAggggAACCCAQuEAiAjOXgMXngsy0EX702q1EBCYLwdI0xR+7kRKBjUzZC8ECP1t2iAACCCCAAAIIIIAAAggggAACCCCQgwLzLAGTjfCHrr9pjcD8N8V3KAQbMgrBcvB6cMoIIIAAAggggAACCCCAAAIIIIAAAoELyAjM3AjfuwTMsRF+IgKLTb0lq8DMEZilKX7f+Gu98SowSyGYOAjZESzws2WHCCCAAAIIIIAAAggggAACCCCAAAI5KGBEYOZRkE6N8EULL9nU3rER/tD1N2NTbz0gIjBLCubdFF+kYOam+Im++EOTy/IKc/CScMoIIIAAAggggAACCCCAAAIIIIAAAgEKLMsrFBGYuQRMzAXZOzptLGM3esduuEVg0clbxhLvAuYVgVma4vdffT1RBZauEKxo3YYAz5ZdIYAAAggggAACCCCAAAIIIIAAAgjkoEDRug1pS8BEBJa2BGwuArMUgmXXFF8Ugm3fsy8HrwqnjAACCCCAAAIIIIAAAggggAACCCAQoMD2Pfu6Y5P2ErCIjxIwSyP82NRbiYGQlgjM3BFMBmmirkzUmIl6M9F+zBgOOXxddgQ7V6sHeLbsCgEEEEAAAQQQQAABBBBAAAEEEEAgBwXO1eqWCCzrRvgyAntbrFnagTmOhTQPh5yLwFJTMArBcvB7ySkjgAACCCCAAAIIIIAAAggggAACQQkEUAKWbAQmUq/Y1NsPxKbmIjBLCuanKX5kdNpSCNYdm1S0LUGdM/tBAAEEEEAAAQQQQAABBBBAAAEEEMgdAUXbktIFbPi66IKfGAKZeSP8eArmGYFlXQjWPTRJLVjufDU5UwQQQAABBBBAAAEEEEAAAQQQQCAQAaP+a2jSMgQyJQLznAgy0QUsWQImGuGbI7DgC8G6hybP1erbdu8rWrthWV5hIArsBAEEEEAAAQQQQAABBBBAAAEEEEDgPhNYlldYtHbDtt37jP5f8fzLEoH56QI2MHHTI/+SAyFdI7DsC8Fik91Dk13Ria7oRGf0aufgeOfgeMeAsbT3j8WX0fb+0ba+kba+kdbekdbe4dbeYT0S0yOxlp4hYwkbS3M42hyONnUPNnUNNHUNNHb2N3b2N4ilo6+ho6++vbeuPWIsbcZS29ojlho9HF+6r7QklsvNXfGl83KzsVxq6rjU1HGxMbk0tF9saL/Q0CaW8/WtiaVOPx9fztXpcjlb2zK31DSfrWl+9UqTXF650jS3XG58JXU5c6nBvJy+WO+xnLpQ57icPF/rvtScPJ9mOXGuJtjli2evZLm8evmLLAgggAACCCCAAAIIIIAAAjkikO3DY7DPsCfOpXlqTj5Wuz56Oz6qn7pQ5/GAf/pivTkNOHOpwRIXGD+a8gQZMrx6pelsPHmYCyJqW2RAcS6ZWhjZRTLKkOHGxXjWIaMPkYSIVCT+r5GTyNikRu8WWYqMVkTSIlKX+vbehngOIzIZkc+IrKape1CkNyLJEamOSHhE2tPaa4Q/bX0j7f1GFiRyIZERibyoM3pVJEiO+VcgJWBGBDY8/Xa8HViaFMzX1JDJvvhixKZx3EsjBavRvVKwBQrCXjV9cY0vcWoQ9srlRstX/8ylBu9b5fTFerd7zD0Ok7erz9vbYbPA/9Ck3WGWaVq2f0n5OAQQQAABBBBAAAEEEEAAgcAF0hwf94EAABIrSURBVD76Bb5BMrdyeLD18Sv5+Oy84vY8nvZB3v7sb88H3JKvwMOvS00djvlXPPxaGvmXqQSsJ94CLCX/cu8CNjj5hncJ2PC07whsYOKmdwpmNMVPRmDh2DX/KVjaQrAsasFkOViyFixsS8G6zLVgKSlYY4e5HOxCQ5uMUUU52HlTOZiIXc1BrIhmzWGt+aucWE8Xh6W9hcQGbnegeN1HLlbr469Adn87Ut4V+N81dogAAggggAACCCCAAAIIIHCfCSzO86mfJ2XvZ22fD+yW5Ms79hJZgTlJ8C778q78utDQZhR/yUFvjcYYuNT6LzFILlH/JYu/avSwqP9KFH+1xYfctUcyqP8Kx0f19Qy5l4AZ4wJd679M+Vc4ds0cgfWOThtLtl3AYlNvJyIwn4VglhRMfLA4CDEm0yEFC7QQLKMRkR4p2JWWbsdBkR5B2FwKVt8qgzBLFuYdhFmLwkSNWLosTNwzPm8w77tU/tbPDZ/JNilp12L9zeJDEUAAAQQQQAABBBBAAAEEclDAuUQrk2fYuT3Ix2TvFZ+P5JbMS/yYafKVQdmXadjj+frWlJGPXuFXp8hD7IMf55N/NYejwQyB9O6Cb4rAZJHWwMRN0QIsbQnYvCKwvvHXnFOw4evh2LWMCsH8NwXzm4Jl3hpMdgdLCcLcGoS5B2Hn6vS0Wdh84jA/4yUt96f3zezx2+z+iAT0rhz8U84pI4AAAggggAACCCCAAAL3jcBc0hTQQ6LfHXo85Hr/yvIonfZHx8wrbYcve8GXKP7KoOzLI/wyFX/ZKr9EY/QMmn/V+av/Cjb/yroLvq8IbOTGO8PTRj2Yn45glkKwRAoWr0ZzLQSL98UPsCnY/FMwt0GRrkMjPYIw9yzMHoRZuuaLb7nDMEmnxmGOvcPk/Zb2znTbwPv+n/9vF/kvHR+HAAIIIIAAAggggAACCCBwTwvM/znUew9uT8dpX5cP4PYVh1Kv1Mb28sHfPNQxJfmqaTZnCM6t7lOTL2vll7/wSza/T9v8aynkX/YuYH3jr/WNv5ZdCdjIjXceCCACG7vhfzhkIBNEpk3BLNNE+hsUmegO5jMIS+kR5h6EWYvCalsSyW7qJJKZxmHiBrPfeOZX0t7AgWzg/ceF3yKAAAIIIIAAAggggAACCCAQlEAgj7Fpd2J+sravOwdeos2RZVq8+I8+Y6+zqZM8pnT7Sg2/5JjHRM+vDMOvKy3dfpp/+en/FUj9V1d0QsymaKn/sudfvWM3AojAgk3BHDqC+SoEGxNTY6btji8m2vROwRo6+uZSMB+DIk3dweaCMFk06DE00hqEZZSFZRGHuXQQ85OIme/btDc8GyCAAAIIIIAAAggggAACCCBwHwuYn5G9110zL6fAK804x9RqL1H5Za758ki+zGVfHuGXfc5HWfkl+n/J/Et0vq9t7Uk0v2+3Nb/v6Gvo7G/o7G+ML01dA8bSPShjmYz6f93FLvjD02+P3HgnUQUWbAQWGZ3ONgUbDSYF6+xv6OjzmYLJQZGpKVi6ICw+a6TrxJGeQZhDXVhti/G9r2kWiz0hdu4dJm82W099+/3pfT/7+e19/IePU0MAAQQQQAABBBBAAAEEELinBfw81XpvY3+OdnhFPobbVhwf5OVjvnmQo1y3JF8e4ZdH2ddF02yPjuGXOf/KYvBjEPnXaHt/lrNARsQskKYu+PMZBSkisHdFGDbfjmBph0P6qgUzUjBRCNbWN9LaO9LaO9zaOyxm02zpiU+uGR5qCQ/J0LGpe1AkkSKVFAml8W8yBZsrB2uLiGhTJJ01eji5GEWAcjaE5GSRYopQ0S6u07kiLG0QlpqFWWaQFF93+e1PWfGMw7xGTYr70EcoZr6Zvf8QBPvbe/qvKgePAAIIIIAAAggggAACCCAQoECwz5veezM/Bftat+VcHi29ZAQ2r9grdcCjd9lX1uGXx8yPlsGP88m/2vpGRJHT0sm/Rm68+8DIDR8R2LVb0UljGZx8Y3DyDTHlpGw/JoZiytkh0/bF998aP7sUrDFepydTsJRysNQUrLa1J5mChUUammUQljYLq9PP2xZ74puSgonSMFN1mGM3fXmbyVsx/UqGAZmfPw3ef2j4LQIIIIAAAggggAACCCCAAALzEfDzZJrxNu4hl+XJWj5621fmMi+nQY72Dl/Wai+ZFdS3nk8u3mVf8w+/5gY/tqUZ/NjY2Z/F+McM8q+hye6YsYRj18Kxaz3D18WwQpEsGX3nx274bAEWvXZr6PqbQ9ffjE29FV+MWR9FsZco/DIisNHXvuQrBfMdgfWOTqdNwbqiE2LpjF7tHBzvHBzvGDAWkQ6ah0N6p2CyHMxSC+aVgrm2BhNFYekrwi43z6MozFYX5lga5jpYMjUR8w7FxJ1puW+z+XEBIrOM/zBxDAgggAACCCCAAAIIIIAAAgh4C/iOtNweje0Jl+WVlMDLJfNyjL2ck69k5uUz/DIPUBNT+SX/FePYjH9lZY952KOo/sm0+Zc9/0o0/wrHh+j1DIkRe2L0XmvviBzSl7b+y9wC3yv/yiQCS5t/jb72pTQRWGzqLbGXaCaFYP5TMBmBLWAK5mNQZGo5mK+KsLRBmFenMPktl3FvcsVeGuY1XjK1iZifRMxy97rd9gG/7v1Hit8igAACCCCAAAIIIIAAAgggMO8Ay8+TrOWhOO2PKZmXHK1lW3F7lrcPCJNpl3nFoezLNM+je9lXp7mVUwbhl6n4y23wY/D51+B4Z/SqKIeSU0AuTP71VmzKoQQsEYEtWiFYOHZNVLiJs7UUggWYgjV1DTi2BksZFGkrB8suCEubhZm/ymLd/EWfW0+mYOY7xO0uch4yKW/CZCuxlHu1pjntvZ3FBn7+xLANAggggAACCCCAAAIIIIAAAvMXyOKhNe1bLA/Ocz/KR2ynFbendfMT/dy6rIMxrdizgosN7cbS2CEX97KvjMOvucGP7jM/Wpt/meZ/nG/9l2f+5TwEMugSsLQR2NtiCGXwhWAurfGzScF6jO749hGRMgXzMyiyri0iCwK9gzC3iSPTBmGWojD5XZ+LwEx3wtx9kpqLud1jXgMnne7VuVvaJSwTG6T9S8EGCCCAAAIIIIAAAggggAACCCwpAZ8PvGkqS1IfpT0ext2e3x0f9mUUYF5JJF9+wy+HMY9XWoyeTvFFzvsXNqccYm5A41/3/EsUEs0Vf9nzLzFFYRbjH13yr4UpATPqv+xdwEZf+5IRgY29/p5YS9sRbOj6m0EOh1ywFKw5HJWtwWQQ5jVTZLIczDxfZIZBWFdy/K0xg6Q5ppXZbWJFZLrxf83feLnueJO43lF1usd9aP5VRvd2mo09UzOPvzVL6m8iB4MAAggggAACCCCAAAIIILBEBDweJNP8KjWoSvMw67mx+QnaY93j8dzxcV4+7JtX5jKv1NjL54BHc8Mv7/BrLvlKDb/cBj8mOt+bwq/mcDRR/7W08y/vLvgi9Rp7/T2HCGzkxjuiZ75IzvwXgvVffd0yO2SapmCZpGDt/aOis1pr74jotSb6rumRWIu4EqZaMMcULE05mEsQZs/C5PBasWIeeWsOwtJkYaKyMZmImW8Gue54/yReTK0Os9+EHnds2l/N568G70UAAQQQQAABBBBAAAEEEEBgKQikffj12MD+lG19xTyQK3VdPtSbV+ZiL9M4R1k0Y66ksQQL5szBEkf4KvsyhV917ZG58KujT5QKeRR/WfIvGcJY+t8nm9+PihkOxWyHYuZD41+n/l9Z1H/1X319YOLmwMTNwck3BiffiMbnbPQxC+Q7IzfeTYnA0hWCBTcccmSqZ/i6mOoy0RRsfilYa++wuAbmFCxlUGT3oEgx5UW1lIOJ7mD17b2yGtCckprrBsUECsl/UyaOzCgLE99s+UVPWfFMxC40tM0nFLPerr4ryDz+KPj51VL4w8cxIIAAAggggAACCCCAAAIILH0BP8+Y89/G/nSc/pXUkMv8bG7Ouczr/jMvkRJkmHx1J9MJY+SjObswZxoy6Khv77WHX7Lz19zgx+7Bpu7B5nB0LvxynvxxWM7/GEj+1TMyFRmdjoxO94pl7Ebv2A1RYtV/9XWx+My/3IZAjr3+XqIKTEZg3n3xg5kdMvsUbEzIWmrBrClYamswn+VgDkGYS1GY+UsWX88sC7OUhvmJw8RtY76RLOvme89rPV3hWPp73mkP8//rwx4QQAABBBBAAAEEEEAAAQQQ8COQ3XNr+ne5J1zmp2zLw7j5x7nAS5S2pCv1com9nJvci7Ibe7cvc/jlmHyJsq+U8Cvz4q8Wa/Mve/41Np/6r4DyL9dZIGUJWDwCu2kkYTIFkx3BPIZDzrcpmJ8ULHpVVM2JCjqhGf93NHVEZMqgyEQtWDIFy7QczH8QZhsdGRbfRUtRorle0RboWruGiRvgUtPc1A8pBWKNHZY7ynyzOa6bb9Qs150yr/R/O3gXAggggAACCCCAAAIIIIAAAndLwF+e5fGY7PiIbX7R8nhufXhP5l/yMd+84hgOmNMDS7DgnXzNzfPYFjFSsGS3e4/wK6PiL1v+NWKr/3LKv6JXfY5/nGf+5dkCLGUIpBF83XzvgbFkBGZPwURHsOHpRDv9tE3BBiZuyhK1NE3B0qVgXdGJTh8pWFufoe/RGkymYGnKwTr7jQGSHX1ySRka6VIRJkoNM68LE9M3GBGYZTHfFXLd7V5KvJ4cO+k246T5LrWve9zzd+1Xd+uvJJ+LAAIIIIAAAggggAACCCAQrMC806jAn0ztz8VpX0kJvJLxluOjunyQN69YHvyTP85N7Cjyr0yTL+/wS4YbxopIPOL/yiZRXp3vUwc/6pGYpflXW99Icvyjc/7VFZ0QS/fQpLHEEovoi9UzfL1nZEosPsc/+m8BNjz99siNd+LLXAswUfiVjMCSKZgoD3MfDplBU7D0rfEzT8E6BsaT5WBztWBeKZhnOZicLHKuTb5TEBZsFnalpdsc7prWfcVh8i5yvNlSXjRFY+bbNe29Pf8NAv8LxQ4RQAABBBBAAAEEEEAAAQRyUGD+z6dp92B+Xk5Z94y6LFM3ykd1uZLMucxP+tbMyzKxo5/RjqIQJ9Mxjx5t7906f8nir7T5lxi61zEwnuh/n2x+3xWdmH/+5b8FvlsLsNHXviTzL1MElpqCeQ+HzKYp2NgN0dVMJHwy8PPujm+vBbOkYKmDIoedy8GSQZjo6JYoB7O1yc86CKtri5g7z/kcIym+3KYIzHwzmG+SlHV5O9lXUvKvdPdqYmOXmCzltk9uk/YPBxsggAACCCCAAAIIIIAAAgggcFcEHB9jXV/0+chs2sz+DC5fcUq75IO8+Uk/sW6p9soy+fI95tE87NGx7f1c5/ueIdFdyjbzo735V8rkj0HlX1m1wHdsAeYwBNIYAXnzvQfGb35ZrCWCsdffE7VgMgXzGA6ZWVOw1BQsMjqdCMKSc0SGY9cS1XGiUm5oUhTOyRGRnYPjqa3BjFqw1BQsMSjSrUe+27hIc0VYZllYZmMkEy3DavRuxy+9SyLW5XlHdcobL+1KNjGZ6Z739fZkZOb6t4YNEEAAAQQQQAABBBBAAAEEEPApkOkzaebbp32Ulht4P5u7PdE7Pv4nO3ylTOwo+ixZimzcar68u305J19dA8b4x+Scj3PhV3Lkoyz+So58NMIvW/OvlPwrUfw1OG5t/pUc/ygGP4Zj1+T4R1EaZZn/MaP8y7EFmPcQyLGb743f/LIRgVlSMLfhkN5NwaKTtwYn3xicfENMVOncFCz4FCxlmkjzoEiZgumRmFubfEuDsIyCMOsAydQszEdpmDFxqfzSO94SbvdP8nWZK7uuyBt1Piu+kq/M/8qwWwQQQAABBBBAAAEEEEAAAQQCFJjPk698b7qcSzyAO5R3JR/Vuxwf8OXjv62fuBEOeMVeqQVfMvlynOfRMuZxruzLd/hlGvk4V/yVpvnX4uRfk7ei124NXX/TZ/5lGQIpsq/UCMxhOOS7opGYqAWLTaVvjb+AKVhqg3zLoMi2vhGxiJBSZpaihC9NCtY92JQcGil6wskWcWmLwjLNwpxGSqbEYW41YuIukjeVy4prHOZxG8tbnRUEEEAAAQQQQAABBBBAAAEE7ksBj4diz19lnHaJh3dT5uVQ6mWPvazt7QNNvozEI9viL0v+ZW/+taD1X4OTb0QnbxmLU/5lbwE2ciO1C358/KMoARu/+eX/HxhhG9UjLuXKAAAAAElFTkSuQmCC;" vertex="1" parent="bgPquZVtsYAJ8FmIdvjN-33">
          <mxGeometry x="20" y="15" width="546.53" height="230" as="geometry" />
        </mxCell>
        <mxCell id="bgPquZVtsYAJ8FmIdvjN-56" style="edgeStyle=orthogonalEdgeStyle;rounded=0;orthogonalLoop=1;jettySize=auto;html=1;shape=flexArrow;" edge="1" parent="1">
          <mxGeometry relative="1" as="geometry">
            <mxPoint x="360" y="1420" as="targetPoint" />
            <mxPoint x="360" y="1370" as="sourcePoint" />
          </mxGeometry>
        </mxCell>
        <mxCell id="bgPquZVtsYAJ8FmIdvjN-57" style="edgeStyle=orthogonalEdgeStyle;rounded=0;orthogonalLoop=1;jettySize=auto;html=1;shape=flexArrow;" edge="1" parent="1">
          <mxGeometry relative="1" as="geometry">
            <mxPoint x="364.5" y="1190" as="targetPoint" />
            <mxPoint x="364.5" y="1140" as="sourcePoint" />
          </mxGeometry>
        </mxCell>
        <mxCell id="bgPquZVtsYAJ8FmIdvjN-68" value="执行子应用 scripts" style="rounded=0;whiteSpace=wrap;html=1;fontSize=15;fontStyle=1;labelBackgroundColor=none;fillColor=#FFF2CC;strokeColor=#d79b00;align=left;spacing=20;" vertex="1" parent="1">
          <mxGeometry x="200" y="1700" width="330" height="150" as="geometry" />
        </mxCell>
        <mxCell id="bgPquZVtsYAJ8FmIdvjN-69" value="" style="group" vertex="1" connectable="0" parent="1">
          <mxGeometry x="200" y="1880" width="1560" height="860" as="geometry" />
        </mxCell>
        <mxCell id="bgPquZVtsYAJ8FmIdvjN-12" value="返回最终的 parcelConfigGetter 函数" style="rounded=0;whiteSpace=wrap;html=1;fontSize=15;fontStyle=1;labelBackgroundColor=none;fillColor=#FFF2CC;strokeColor=#d79b00;align=left;spacing=20;" vertex="1" parent="bgPquZVtsYAJ8FmIdvjN-69">
          <mxGeometry y="59" width="330" height="150" as="geometry" />
        </mxCell>
        <mxCell id="bgPquZVtsYAJ8FmIdvjN-13" value="" style="rounded=0;whiteSpace=wrap;html=1;fontSize=15;fontStyle=1;labelBackgroundColor=none;fillColor=#FFF2CC;strokeColor=#d79b00;align=left;spacing=20;" vertex="1" parent="bgPquZVtsYAJ8FmIdvjN-69">
          <mxGeometry x="627" y="59" width="863" height="801" as="geometry" />
        </mxCell>
        <mxCell id="bgPquZVtsYAJ8FmIdvjN-22" value="执行 parcelConfigGetter()" style="text;html=1;align=center;verticalAlign=middle;resizable=0;points=[];autosize=1;strokeColor=none;fillColor=none;fontSize=20;fontStyle=1" vertex="1" parent="bgPquZVtsYAJ8FmIdvjN-69">
          <mxGeometry x="354" y="110" width="250" height="40" as="geometry" />
        </mxCell>
        <mxCell id="bgPquZVtsYAJ8FmIdvjN-24" value="" style="rounded=0;whiteSpace=wrap;html=1;" vertex="1" parent="bgPquZVtsYAJ8FmIdvjN-69">
          <mxGeometry x="655" y="131.5" width="290" height="656" as="geometry" />
        </mxCell>
        <mxCell id="bgPquZVtsYAJ8FmIdvjN-23" value="&lt;font style=&quot;font-size: 30px;&quot;&gt;...&lt;/font&gt;" style="text;html=1;align=center;verticalAlign=middle;resizable=0;points=[];autosize=1;strokeColor=none;fillColor=none;fontSize=20;fontStyle=1" vertex="1" parent="bgPquZVtsYAJ8FmIdvjN-69">
          <mxGeometry x="1400" y="81.5" width="50" height="50" as="geometry" />
        </mxCell>
        <mxCell id="bgPquZVtsYAJ8FmIdvjN-14" value="初始化 appWrapperElement&lt;div&gt;&lt;br&gt;&lt;/div&gt;&lt;div&gt;&lt;span style=&quot;font-weight: normal;&quot;&gt;&lt;i&gt;(注：appWrapperElement 是子应用模板的根节点，会被插入到 container 中)&lt;/i&gt;&lt;/span&gt;&lt;/div&gt;" style="rounded=0;whiteSpace=wrap;html=1;fontSize=15;fontStyle=1;labelBackgroundColor=none;fillColor=#FFF2CC;strokeColor=#d79b00;align=left;spacing=10;" vertex="1" parent="bgPquZVtsYAJ8FmIdvjN-69">
          <mxGeometry x="670" y="170" width="260" height="110" as="geometry" />
        </mxCell>
        <mxCell id="bgPquZVtsYAJ8FmIdvjN-17" value="挂载沙箱" style="rounded=0;whiteSpace=wrap;html=1;fontSize=15;fontStyle=1;labelBackgroundColor=none;fillColor=#FFF2CC;strokeColor=#d79b00;align=left;spacing=20;" vertex="1" parent="bgPquZVtsYAJ8FmIdvjN-69">
          <mxGeometry x="670" y="370" width="260" height="70" as="geometry" />
        </mxCell>
        <mxCell id="bgPquZVtsYAJ8FmIdvjN-18" value="调用子应用暴露的 mount 函数执行挂载" style="rounded=0;whiteSpace=wrap;html=1;fontSize=15;fontStyle=1;labelBackgroundColor=none;fillColor=#FFF2CC;strokeColor=#d79b00;align=left;spacing=20;" vertex="1" parent="bgPquZVtsYAJ8FmIdvjN-69">
          <mxGeometry x="670" y="530" width="260" height="70" as="geometry" />
        </mxCell>
        <mxCell id="bgPquZVtsYAJ8FmIdvjN-34" value="" style="rounded=0;whiteSpace=wrap;html=1;" vertex="1" parent="bgPquZVtsYAJ8FmIdvjN-69">
          <mxGeometry x="1055" y="131.5" width="290" height="656" as="geometry" />
        </mxCell>
        <mxCell id="bgPquZVtsYAJ8FmIdvjN-16" value="执行子应用暴露的 unmount 钩子执行卸载" style="rounded=0;whiteSpace=wrap;html=1;fontSize=15;fontStyle=1;labelBackgroundColor=none;fillColor=#FFF2CC;strokeColor=#d79b00;align=left;spacing=20;" vertex="1" parent="bgPquZVtsYAJ8FmIdvjN-69">
          <mxGeometry x="1070" y="440" width="260" height="70" as="geometry" />
        </mxCell>
        <mxCell id="bgPquZVtsYAJ8FmIdvjN-19" value="卸载沙箱" style="rounded=0;whiteSpace=wrap;html=1;fontSize=15;fontStyle=1;labelBackgroundColor=none;fillColor=#FFF2CC;strokeColor=#d79b00;align=left;spacing=20;" vertex="1" parent="bgPquZVtsYAJ8FmIdvjN-69">
          <mxGeometry x="1070" y="240" width="260" height="70" as="geometry" />
        </mxCell>
        <mxCell id="bgPquZVtsYAJ8FmIdvjN-36" value="mount Array" style="text;html=1;align=center;verticalAlign=middle;resizable=0;points=[];autosize=1;strokeColor=none;fillColor=none;fontSize=20;fontStyle=1" vertex="1" parent="bgPquZVtsYAJ8FmIdvjN-69">
          <mxGeometry x="725" y="80" width="130" height="40" as="geometry" />
        </mxCell>
        <mxCell id="bgPquZVtsYAJ8FmIdvjN-37" value="unmount Array" style="text;html=1;align=center;verticalAlign=middle;resizable=0;points=[];autosize=1;strokeColor=none;fillColor=none;fontSize=20;fontStyle=1" vertex="1" parent="bgPquZVtsYAJ8FmIdvjN-69">
          <mxGeometry x="1100" y="80" width="150" height="40" as="geometry" />
        </mxCell>
        <mxCell id="bgPquZVtsYAJ8FmIdvjN-58" style="edgeStyle=orthogonalEdgeStyle;rounded=0;orthogonalLoop=1;jettySize=auto;html=1;shape=flexArrow;" edge="1" parent="bgPquZVtsYAJ8FmIdvjN-69">
          <mxGeometry relative="1" as="geometry">
            <mxPoint x="789.5" y="350" as="targetPoint" />
            <mxPoint x="789.5" y="300" as="sourcePoint" />
          </mxGeometry>
        </mxCell>
        <mxCell id="bgPquZVtsYAJ8FmIdvjN-64" style="edgeStyle=orthogonalEdgeStyle;rounded=0;orthogonalLoop=1;jettySize=auto;html=1;shape=flexArrow;" edge="1" parent="bgPquZVtsYAJ8FmIdvjN-69">
          <mxGeometry relative="1" as="geometry">
            <mxPoint x="160" y="50" as="targetPoint" />
            <mxPoint x="160" as="sourcePoint" />
          </mxGeometry>
        </mxCell>
        <mxCell id="bgPquZVtsYAJ8FmIdvjN-66" style="edgeStyle=orthogonalEdgeStyle;rounded=0;orthogonalLoop=1;jettySize=auto;html=1;shape=flexArrow;" edge="1" parent="bgPquZVtsYAJ8FmIdvjN-69">
          <mxGeometry relative="1" as="geometry">
            <mxPoint x="1199.58" y="400" as="targetPoint" />
            <mxPoint x="1199.58" y="350" as="sourcePoint" />
          </mxGeometry>
        </mxCell>
        <mxCell id="bgPquZVtsYAJ8FmIdvjN-67" style="edgeStyle=orthogonalEdgeStyle;rounded=0;orthogonalLoop=1;jettySize=auto;html=1;shape=flexArrow;" edge="1" parent="bgPquZVtsYAJ8FmIdvjN-69">
          <mxGeometry relative="1" as="geometry">
            <mxPoint x="789.5" y="520" as="targetPoint" />
            <mxPoint x="789.5" y="470" as="sourcePoint" />
          </mxGeometry>
        </mxCell>
        <mxCell id="bgPquZVtsYAJ8FmIdvjN-75" value="&lt;font style=&quot;font-size: 20px;&quot;&gt;&lt;b&gt;beforeMount&lt;/b&gt;&lt;/font&gt;" style="rounded=1;whiteSpace=wrap;html=1;fillColor=#d5e8d4;strokeColor=#82b366;" vertex="1" parent="bgPquZVtsYAJ8FmIdvjN-69">
          <mxGeometry x="430" y="290" width="260" height="70" as="geometry" />
        </mxCell>
        <mxCell id="bgPquZVtsYAJ8FmIdvjN-74" value="&lt;font style=&quot;font-size: 20px;&quot;&gt;&lt;b&gt;afterMount&lt;/b&gt;&lt;/font&gt;" style="rounded=1;whiteSpace=wrap;html=1;fillColor=#d5e8d4;strokeColor=#82b366;" vertex="1" parent="bgPquZVtsYAJ8FmIdvjN-69">
          <mxGeometry x="430" y="450" width="260" height="70" as="geometry" />
        </mxCell>
        <mxCell id="bgPquZVtsYAJ8FmIdvjN-73" value="&lt;font style=&quot;font-size: 20px;&quot;&gt;&lt;b&gt;beforeUnmount&lt;/b&gt;&lt;/font&gt;" style="rounded=1;whiteSpace=wrap;html=1;fillColor=#d5e8d4;strokeColor=#82b366;" vertex="1" parent="bgPquZVtsYAJ8FmIdvjN-69">
          <mxGeometry x="1300" y="150" width="260" height="70" as="geometry" />
        </mxCell>
        <mxCell id="bgPquZVtsYAJ8FmIdvjN-71" value="&lt;font style=&quot;font-size: 20px;&quot;&gt;&lt;b&gt;afterUnmount&lt;/b&gt;&lt;/font&gt;" style="rounded=1;whiteSpace=wrap;html=1;fillColor=#d5e8d4;strokeColor=#82b366;" vertex="1" parent="bgPquZVtsYAJ8FmIdvjN-69">
          <mxGeometry x="1300" y="560" width="260" height="70" as="geometry" />
        </mxCell>
        <mxCell id="bgPquZVtsYAJ8FmIdvjN-96" style="edgeStyle=orthogonalEdgeStyle;rounded=0;orthogonalLoop=1;jettySize=auto;html=1;fillColor=#d5e8d4;strokeColor=#D5E8D4;strokeWidth=4;" edge="1" parent="bgPquZVtsYAJ8FmIdvjN-69">
          <mxGeometry relative="1" as="geometry">
            <mxPoint x="760" y="325" as="targetPoint" />
            <mxPoint x="700" y="324.5799999999999" as="sourcePoint" />
          </mxGeometry>
        </mxCell>
        <mxCell id="bgPquZVtsYAJ8FmIdvjN-97" style="edgeStyle=orthogonalEdgeStyle;rounded=0;orthogonalLoop=1;jettySize=auto;html=1;fillColor=#d5e8d4;strokeColor=#D5E8D4;strokeWidth=4;" edge="1" parent="bgPquZVtsYAJ8FmIdvjN-69">
          <mxGeometry relative="1" as="geometry">
            <mxPoint x="760" y="484.5799999999999" as="targetPoint" />
            <mxPoint x="700" y="484.5799999999999" as="sourcePoint" />
          </mxGeometry>
        </mxCell>
        <mxCell id="bgPquZVtsYAJ8FmIdvjN-102" style="edgeStyle=orthogonalEdgeStyle;rounded=0;orthogonalLoop=1;jettySize=auto;html=1;fillColor=#d5e8d4;strokeColor=#D5E8D4;strokeWidth=4;" edge="1" parent="bgPquZVtsYAJ8FmIdvjN-69">
          <mxGeometry relative="1" as="geometry">
            <mxPoint x="1230" y="184.57999999999993" as="targetPoint" />
            <mxPoint x="1290" y="184.57999999999993" as="sourcePoint" />
          </mxGeometry>
        </mxCell>
        <mxCell id="bgPquZVtsYAJ8FmIdvjN-101" style="edgeStyle=orthogonalEdgeStyle;rounded=0;orthogonalLoop=1;jettySize=auto;html=1;fillColor=#d5e8d4;strokeColor=#D5E8D4;strokeWidth=4;" edge="1" parent="bgPquZVtsYAJ8FmIdvjN-69">
          <mxGeometry relative="1" as="geometry">
            <mxPoint x="1230" y="600" as="targetPoint" />
            <mxPoint x="1290" y="600" as="sourcePoint" />
          </mxGeometry>
        </mxCell>
        <mxCell id="bgPquZVtsYAJ8FmIdvjN-121" value="" style="shape=flexArrow;endArrow=classic;html=1;rounded=0;" edge="1" parent="bgPquZVtsYAJ8FmIdvjN-69">
          <mxGeometry width="50" height="50" relative="1" as="geometry">
            <mxPoint x="380" y="160" as="sourcePoint" />
            <mxPoint x="580" y="160" as="targetPoint" />
          </mxGeometry>
        </mxCell>
        <mxCell id="bgPquZVtsYAJ8FmIdvjN-122" value="parceConfig 对象" style="text;html=1;align=center;verticalAlign=middle;resizable=0;points=[];autosize=1;strokeColor=#d6b656;fillColor=#fff2cc;fontSize=20;fontStyle=1" vertex="1" parent="bgPquZVtsYAJ8FmIdvjN-69">
          <mxGeometry x="627" y="19" width="180" height="40" as="geometry" />
        </mxCell>
        <mxCell id="bgPquZVtsYAJ8FmIdvjN-70" style="edgeStyle=orthogonalEdgeStyle;rounded=0;orthogonalLoop=1;jettySize=auto;html=1;shape=flexArrow;" edge="1" parent="1">
          <mxGeometry relative="1" as="geometry">
            <mxPoint x="360" y="1670" as="targetPoint" />
            <mxPoint x="360" y="1620" as="sourcePoint" />
          </mxGeometry>
        </mxCell>
        <mxCell id="bgPquZVtsYAJ8FmIdvjN-72" value="&lt;font style=&quot;font-size: 20px;&quot;&gt;&lt;b&gt;beforeLoad&lt;/b&gt;&lt;/font&gt;" style="rounded=1;whiteSpace=wrap;html=1;fillColor=#d5e8d4;strokeColor=#82b366;" vertex="1" parent="1">
          <mxGeometry x="-180" y="1860" width="260" height="70" as="geometry" />
        </mxCell>
        <mxCell id="bgPquZVtsYAJ8FmIdvjN-100" style="edgeStyle=orthogonalEdgeStyle;rounded=0;orthogonalLoop=1;jettySize=auto;html=1;fillColor=#d5e8d4;strokeColor=#D5E8D4;strokeWidth=4;" edge="1" parent="1">
          <mxGeometry relative="1" as="geometry">
            <mxPoint x="320" y="1895" as="targetPoint" />
            <mxPoint x="110" y="1894.54" as="sourcePoint" />
          </mxGeometry>
        </mxCell>
        <mxCell id="bgPquZVtsYAJ8FmIdvjN-103" value="初始化沙箱，得到沙箱容器对象&lt;div&gt;使用沙箱容器的代理对象 proxy 作为接下来使用的全局对象&lt;/div&gt;" style="shape=note;whiteSpace=wrap;html=1;backgroundOutline=1;darkOpacity=0.05;align=left;fontStyle=0;spacing=20;fillColor=#dae8fc;strokeColor=#6c8ebf;" vertex="1" parent="1">
          <mxGeometry x="-380" y="1475" width="430" height="80" as="geometry" />
        </mxCell>
        <mxCell id="bgPquZVtsYAJ8FmIdvjN-104" value="执行子应用的 script 得到子应用暴露的生命周期钩子" style="shape=note;whiteSpace=wrap;html=1;backgroundOutline=1;darkOpacity=0.05;align=left;fontStyle=0;spacing=20;fillColor=#dae8fc;strokeColor=#6c8ebf;" vertex="1" parent="1">
          <mxGeometry x="-380" y="1747.5" width="430" height="55" as="geometry" />
        </mxCell>
        <mxCell id="bgPquZVtsYAJ8FmIdvjN-105" value="loadApp 函数返回的是一个函数：parcelConfigGetter,后面会调用 parcelConfigGetter 获取 config。config 中含有 name、bootstrap、mount、unmount 等值，后面会作为 single-spa 加载的子应用对象" style="shape=note;whiteSpace=wrap;html=1;backgroundOutline=1;darkOpacity=0.05;align=left;fontStyle=0;spacing=20;fillColor=#dae8fc;strokeColor=#6c8ebf;" vertex="1" parent="1">
          <mxGeometry x="-380" y="1980" width="430" height="80" as="geometry" />
        </mxCell>
        <mxCell id="bgPquZVtsYAJ8FmIdvjN-109" value="" style="group" vertex="1" connectable="0" parent="1">
          <mxGeometry x="60" y="1995" width="100" height="40" as="geometry" />
        </mxCell>
        <mxCell id="bgPquZVtsYAJ8FmIdvjN-107" value="" style="endArrow=none;dashed=1;html=1;rounded=0;fontSize=19;fontStyle=1;strokeWidth=3;" edge="1" parent="bgPquZVtsYAJ8FmIdvjN-109">
          <mxGeometry width="50" height="50" relative="1" as="geometry">
            <mxPoint y="35" as="sourcePoint" />
            <mxPoint x="100" y="35" as="targetPoint" />
          </mxGeometry>
        </mxCell>
        <mxCell id="bgPquZVtsYAJ8FmIdvjN-108" value="说明" style="text;html=1;align=center;verticalAlign=middle;resizable=0;points=[];autosize=1;strokeColor=none;fillColor=none;fontSize=19;fontStyle=1" vertex="1" parent="bgPquZVtsYAJ8FmIdvjN-109">
          <mxGeometry x="15" width="60" height="40" as="geometry" />
        </mxCell>
        <mxCell id="bgPquZVtsYAJ8FmIdvjN-112" value="" style="group" vertex="1" connectable="0" parent="1">
          <mxGeometry x="60" y="1490" width="100" height="40" as="geometry" />
        </mxCell>
        <mxCell id="bgPquZVtsYAJ8FmIdvjN-113" value="" style="endArrow=none;dashed=1;html=1;rounded=0;fontSize=19;fontStyle=1;strokeWidth=3;" edge="1" parent="bgPquZVtsYAJ8FmIdvjN-112">
          <mxGeometry width="50" height="50" relative="1" as="geometry">
            <mxPoint y="35" as="sourcePoint" />
            <mxPoint x="100" y="35" as="targetPoint" />
          </mxGeometry>
        </mxCell>
        <mxCell id="bgPquZVtsYAJ8FmIdvjN-114" value="说明" style="text;html=1;align=center;verticalAlign=middle;resizable=0;points=[];autosize=1;strokeColor=none;fillColor=none;fontSize=19;fontStyle=1" vertex="1" parent="bgPquZVtsYAJ8FmIdvjN-112">
          <mxGeometry x="15" width="60" height="40" as="geometry" />
        </mxCell>
        <mxCell id="bgPquZVtsYAJ8FmIdvjN-115" value="" style="group" vertex="1" connectable="0" parent="1">
          <mxGeometry x="70" y="1750" width="100" height="40" as="geometry" />
        </mxCell>
        <mxCell id="bgPquZVtsYAJ8FmIdvjN-116" value="" style="endArrow=none;dashed=1;html=1;rounded=0;fontSize=19;fontStyle=1;strokeWidth=3;" edge="1" parent="bgPquZVtsYAJ8FmIdvjN-115">
          <mxGeometry width="50" height="50" relative="1" as="geometry">
            <mxPoint y="35" as="sourcePoint" />
            <mxPoint x="100" y="35" as="targetPoint" />
          </mxGeometry>
        </mxCell>
        <mxCell id="bgPquZVtsYAJ8FmIdvjN-117" value="说明" style="text;html=1;align=center;verticalAlign=middle;resizable=0;points=[];autosize=1;strokeColor=none;fillColor=none;fontSize=19;fontStyle=1" vertex="1" parent="bgPquZVtsYAJ8FmIdvjN-115">
          <mxGeometry x="15" width="60" height="40" as="geometry" />
        </mxCell>
        <mxCell id="bgPquZVtsYAJ8FmIdvjN-118" value="" style="group" vertex="1" connectable="0" parent="1">
          <mxGeometry x="60" y="1010" width="100" height="40" as="geometry" />
        </mxCell>
        <mxCell id="bgPquZVtsYAJ8FmIdvjN-119" value="" style="endArrow=none;dashed=1;html=1;rounded=0;fontSize=19;fontStyle=1;strokeWidth=3;" edge="1" parent="bgPquZVtsYAJ8FmIdvjN-118">
          <mxGeometry width="50" height="50" relative="1" as="geometry">
            <mxPoint y="35" as="sourcePoint" />
            <mxPoint x="100" y="35" as="targetPoint" />
          </mxGeometry>
        </mxCell>
        <mxCell id="bgPquZVtsYAJ8FmIdvjN-120" value="说明" style="text;html=1;align=center;verticalAlign=middle;resizable=0;points=[];autosize=1;strokeColor=none;fillColor=none;fontSize=19;fontStyle=1" vertex="1" parent="bgPquZVtsYAJ8FmIdvjN-118">
          <mxGeometry x="15" width="60" height="40" as="geometry" />
        </mxCell>
        <mxCell id="bgPquZVtsYAJ8FmIdvjN-144" value="loadApp()" style="text;html=1;align=center;verticalAlign=middle;resizable=0;points=[];autosize=1;strokeColor=none;fillColor=none;fontSize=20;fontStyle=1" vertex="1" parent="1">
          <mxGeometry x="310" y="580" width="110" height="40" as="geometry" />
        </mxCell>
        <mxCell id="bgPquZVtsYAJ8FmIdvjN-145" style="edgeStyle=orthogonalEdgeStyle;rounded=0;orthogonalLoop=1;jettySize=auto;html=1;shape=flexArrow;" edge="1" parent="1">
          <mxGeometry relative="1" as="geometry">
            <mxPoint x="364.23" y="680" as="targetPoint" />
            <mxPoint x="364.23" y="630" as="sourcePoint" />
          </mxGeometry>
        </mxCell>
        <mxCell id="bgPquZVtsYAJ8FmIdvjN-156" value="" style="group;dashed=1;dashPattern=8 8;strokeWidth=3;" vertex="1" connectable="0" parent="1">
          <mxGeometry x="-470" y="-560" width="1500" height="510" as="geometry" />
        </mxCell>
        <mxCell id="bgPquZVtsYAJ8FmIdvjN-123" value="registerMicroApp()" style="text;html=1;align=center;verticalAlign=middle;resizable=0;points=[];autosize=1;strokeColor=none;fillColor=none;fontSize=20;fontStyle=1;container=0;" vertex="1" parent="bgPquZVtsYAJ8FmIdvjN-156">
          <mxGeometry x="1210" width="190" height="40" as="geometry" />
        </mxCell>
        <mxCell id="bgPquZVtsYAJ8FmIdvjN-125" value="调用 single-spa 中 registerApplication([&lt;font color=&quot;#ffa305&quot;&gt;&lt;span style=&quot;font-size: 21px;&quot;&gt;my-app&lt;/span&gt;&lt;/font&gt;])" style="rounded=0;whiteSpace=wrap;html=1;fontSize=15;fontStyle=1;labelBackgroundColor=none;fillColor=#FFF2CC;strokeColor=#d79b00;align=left;spacing=20;container=0;" vertex="1" parent="bgPquZVtsYAJ8FmIdvjN-156">
          <mxGeometry x="1170" y="190" width="330" height="150" as="geometry" />
        </mxCell>
        <mxCell id="bgPquZVtsYAJ8FmIdvjN-140" style="edgeStyle=orthogonalEdgeStyle;rounded=0;orthogonalLoop=1;jettySize=auto;html=1;shape=flexArrow;" edge="1" parent="bgPquZVtsYAJ8FmIdvjN-156">
          <mxGeometry relative="1" as="geometry">
            <mxPoint x="1304" y="130" as="targetPoint" />
            <mxPoint x="1304" y="80" as="sourcePoint" />
          </mxGeometry>
        </mxCell>
        <mxCell id="bgPquZVtsYAJ8FmIdvjN-148" value="" style="group" vertex="1" connectable="0" parent="bgPquZVtsYAJ8FmIdvjN-156">
          <mxGeometry y="190" width="430" height="320" as="geometry" />
        </mxCell>
        <mxCell id="bgPquZVtsYAJ8FmIdvjN-126" value="" style="rounded=0;whiteSpace=wrap;html=1;fontSize=15;fontStyle=1;labelBackgroundColor=none;fillColor=#FFF2CC;strokeColor=#d79b00;align=left;spacing=20;container=0;" vertex="1" parent="bgPquZVtsYAJ8FmIdvjN-148">
          <mxGeometry width="429.99999999999994" height="320" as="geometry" />
        </mxCell>
        <mxCell id="bgPquZVtsYAJ8FmIdvjN-127" value="{" style="text;html=1;align=center;verticalAlign=middle;resizable=0;points=[];autosize=1;strokeColor=none;fillColor=none;fontColor=#336600;fontStyle=1;fontSize=20;container=0;" vertex="1" parent="bgPquZVtsYAJ8FmIdvjN-148">
          <mxGeometry x="20.476190476190474" y="25" width="30" height="40" as="geometry" />
        </mxCell>
        <mxCell id="bgPquZVtsYAJ8FmIdvjN-128" value="}" style="text;html=1;align=center;verticalAlign=middle;resizable=0;points=[];autosize=1;strokeColor=none;fillColor=none;fontColor=#336600;fontStyle=1;fontSize=20;container=0;" vertex="1" parent="bgPquZVtsYAJ8FmIdvjN-148">
          <mxGeometry x="20.476190476190474" y="260" width="30" height="40" as="geometry" />
        </mxCell>
        <mxCell id="bgPquZVtsYAJ8FmIdvjN-130" value="name: &#39;appName&#39;," style="text;html=1;align=left;verticalAlign=middle;resizable=0;points=[];autosize=1;strokeColor=none;fillColor=none;fontColor=#336600;fontSize=20;fontStyle=1;container=0;" vertex="1" parent="bgPquZVtsYAJ8FmIdvjN-148">
          <mxGeometry x="61.42857142857142" y="75" width="180" height="40" as="geometry" />
        </mxCell>
        <mxCell id="bgPquZVtsYAJ8FmIdvjN-131" value="app: () =&amp;gt; Promise.resolve(...)," style="text;html=1;align=left;verticalAlign=middle;resizable=0;points=[];autosize=1;strokeColor=none;fillColor=none;fontColor=#336600;fontSize=20;fontStyle=1;container=0;" vertex="1" parent="bgPquZVtsYAJ8FmIdvjN-148">
          <mxGeometry x="61.42857142857142" y="119" width="290" height="40" as="geometry" />
        </mxCell>
        <mxCell id="bgPquZVtsYAJ8FmIdvjN-134" value="activeWhen: &#39;/appName&#39;," style="text;html=1;align=left;verticalAlign=middle;resizable=0;points=[];autosize=1;strokeColor=none;fillColor=none;fontColor=#336600;fontSize=20;fontStyle=1;container=0;" vertex="1" parent="bgPquZVtsYAJ8FmIdvjN-148">
          <mxGeometry x="61.42857142857142" y="159" width="240" height="40" as="geometry" />
        </mxCell>
        <mxCell id="bgPquZVtsYAJ8FmIdvjN-135" value="customProps: {}" style="text;html=1;align=left;verticalAlign=middle;resizable=0;points=[];autosize=1;strokeColor=none;fillColor=none;fontColor=#336600;fontSize=20;fontStyle=1;container=0;" vertex="1" parent="bgPquZVtsYAJ8FmIdvjN-148">
          <mxGeometry x="61.42857142857142" y="210" width="160" height="40" as="geometry" />
        </mxCell>
        <mxCell id="bgPquZVtsYAJ8FmIdvjN-149" value="my-app 中的 app 属性是子应用加载入口，可以是一个对象也可以是返回对象的函数（返回 Promise 也可）。这个对象是一个暴露了一些特定钩子的 JS 对象，single-spa 将其视为子应用。&lt;div&gt;&lt;br&gt;&lt;/div&gt;&lt;div&gt;qiankun 使用 loadApp 来获取 app 属性的一些配置&lt;/div&gt;" style="shape=note;whiteSpace=wrap;html=1;backgroundOutline=1;darkOpacity=0.05;align=left;fontStyle=0;spacing=20;fillColor=#dae8fc;strokeColor=#6c8ebf;" vertex="1" parent="bgPquZVtsYAJ8FmIdvjN-156">
          <mxGeometry x="540" y="190" width="460" height="175" as="geometry" />
        </mxCell>
        <mxCell id="bgPquZVtsYAJ8FmIdvjN-150" value="my-app 数据结构" style="text;html=1;align=center;verticalAlign=middle;resizable=0;points=[];autosize=1;strokeColor=#d6b656;fillColor=#fff2cc;fontStyle=1;fontSize=18;" vertex="1" parent="bgPquZVtsYAJ8FmIdvjN-156">
          <mxGeometry y="150" width="160" height="40" as="geometry" />
        </mxCell>
        <mxCell id="bgPquZVtsYAJ8FmIdvjN-151" value="" style="group" vertex="1" connectable="0" parent="bgPquZVtsYAJ8FmIdvjN-156">
          <mxGeometry x="1030" y="250" width="100" height="40" as="geometry" />
        </mxCell>
        <mxCell id="bgPquZVtsYAJ8FmIdvjN-152" value="" style="endArrow=none;dashed=1;html=1;rounded=0;fontSize=19;fontStyle=1;strokeWidth=3;" edge="1" parent="bgPquZVtsYAJ8FmIdvjN-151">
          <mxGeometry width="50" height="50" relative="1" as="geometry">
            <mxPoint y="35" as="sourcePoint" />
            <mxPoint x="100" y="35" as="targetPoint" />
          </mxGeometry>
        </mxCell>
        <mxCell id="bgPquZVtsYAJ8FmIdvjN-153" value="说明" style="text;html=1;align=center;verticalAlign=middle;resizable=0;points=[];autosize=1;strokeColor=none;fillColor=none;fontSize=19;fontStyle=1" vertex="1" parent="bgPquZVtsYAJ8FmIdvjN-151">
          <mxGeometry x="15" width="60" height="40" as="geometry" />
        </mxCell>
      </root>
    </mxGraphModel>
  </diagram>
</mxfile>
